<svg xmlns="http://www.w3.org/2000/svg" viewBox="0 0 2272 1872.7"><g id="Camada_2" data-name="Camada 2"><g id="Camada_1-2" data-name="Camada 1"><g id="object"><rect width="2272" height="1872.5" fill="none"/><path d="M1592.3,1786.6c6.9-41,12.1-83.6,11.7-125.3-.1-12.2-.3-24.8-2.1-36.9a131.37,131.37,0,0,0-2.9-15.2,68.6,68.6,0,0,0-3.2-9c-1.4-3-3.6-5.1-5.8-7.6-3.6-4-10.2-3.5-13.8,0a31.59,31.59,0,0,0-7.6,10.9,139.69,139.69,0,0,0-5.6,16.1c-2.6,9.2-3.8,18.9-5.6,28.3-3.6,19.4-6.2,39.1-9.1,58.6-5.9,39-13,78-21.6,116.4-3.7,16.6-8.4,32.9-12.4,49.5h60.9c2.1-9,4-18.1,5.9-27.1C1585.2,1825.9,1589,1806.3,1592.3,1786.6Z" fill="#ff777f"/><path d="M1661.9,1859.1c10.1-24.1,19.3-48.6,26.4-73.7,14.8-52.4,20.8-108.8,5.5-161.8-4.3-14.8-11-29.2-18-43a201.6,201.6,0,0,0-10.4-18.7c-4.3-6.8-8.6-14.4-14.9-19.6-7.7-6.4-19.9-2.5-20.2,8.4-.1,6.7,1.6,13,3.1,19.5,1.5,6.7,3.1,13.3,4.8,19.9,1.4,5.7,2.7,11.5,3.8,17.2.6,2.9,1.1,5.8,1.6,8.7.3,1.6.5,3.2.8,4.9a.9.9,0,0,0,.1.5c0,.3.1.6.1,1,.1,1.3.3,2.5.5,3.8-.5-3.8,2.5,15.2.8,5.7.5,2.5.6,5.1.9,7.7.6,6.3.9,12.7,1.3,19.1a269.29,269.29,0,0,1-.7,38.1c-.5,5.7-1.2,11.4-1.8,17.1-.6,5.4.4-1.7.3-1.8.4.6-.7,4.8-.8,5.7-.5,3.1-1,6.3-1.6,9.4-2.3,12.3-5.2,24.5-8.7,36.5-3.5,12.2-7.5,24.2-11.9,36.1-2,5.5-4.2,11-6.4,16.5-1.1,2.7-2.2,5.3-3.2,7.9.1-.1.1-.2.2-.4a6.89,6.89,0,0,0-.3.8c-.1.3-.2.5-.3.8s-.4,1-.7,1.5c-.3.8-.7,1.6-1,2.4-5.8,13.3-12.1,26.3-18.1,39.4-.6,1.3-1.2,2.7-1.9,4h65.2C1658.1,1868,1660,1863.5,1661.9,1859.1Z" fill="#ff777f"/><path d="M1596.1,1735.2c-17,4.3-43,3.4-54.3,2.7a5.65,5.65,0,0,0-6,5.1c-3.9,34.5-26.2,129.5-26.2,129.5h74c9.9-26.2,17.4-104.8,19.7-131.2A5.81,5.81,0,0,0,1596.1,1735.2Z" fill="#440235"/><path d="M1697.9,1730.5c-18.7,5.5-45,.9-56.4-1.7a4.87,4.87,0,0,0-5.9,4.2c-3.7,35.1-44.6,139.5-44.6,139.5h71.2c22.5-26.9,37.5-109.8,41.8-136.6A4.8,4.8,0,0,0,1697.9,1730.5Z" fill="#440235"/><path d="M1598.9,1609.3a68.6,68.6,0,0,0-3.2-9c-1.4-3-3.6-5.1-5.8-7.6-3.6-4-10.2-3.5-13.8,0a31.59,31.59,0,0,0-7.6,10.9,139.69,139.69,0,0,0-5.6,16.1c-2.6,9-3.8,18.4-5.5,27.6a99.42,99.42,0,0,0,43.6-13.9c.6-.3,1.2-.7,1.7-1-.3-2.7-.6-5.4-1-8A85.5,85.5,0,0,0,1598.9,1609.3Z" fill="#ec5946"/><path d="M1681.6,1650.8a135,135,0,0,0,17.9-2.4,235.68,235.68,0,0,0-5.6-24.9c-4.3-14.8-11-29.2-18-43a201.6,201.6,0,0,0-10.4-18.7c-4.3-6.8-8.6-14.4-14.9-19.6-7.7-6.4-19.9-2.5-20.2,8.4-.1,6.7,1.6,13,3.1,19.5,1.5,6.7,3.1,13.3,4.8,19.9,1.4,5.7,2.7,11.5,3.8,17.2.6,2.9,1.1,5.8,1.6,8.7.3,1.6.5,3.2.8,4.9a.9.9,0,0,0,.1.5c0,.3.1.6.1,1,.1,1.3.3,2.5.5,3.8-.5-3.8,2.5,15.2.8,5.7.5,2.5.6,5.1.9,7.7.3,2.8.5,5.7.7,8.5A110.84,110.84,0,0,0,1681.6,1650.8Z" fill="#ec5946"/><path d="M1436.4,1661.8a278.38,278.38,0,0,0-1.7-37.6c-.9-7.5-1.8-15-3-22.4-1.1-7-3.5-13.2-6.4-19.7-2.4-5.2-9.5-7.8-14.7-7a14.86,14.86,0,0,0-12.2,10.5c-3.9,11.6-4.4,23.6-5.7,35.7-1.3,11.3-2.4,22.4-3.3,33.7s-2.1,22.5-3.5,33.6a12.54,12.54,0,0,1-.2,1.5,11.48,11.48,0,0,0-.2,1.4c-.2,1.6-.5,3.2-.7,4.7-.1.8-1.5,12-.5,3.8-.7,5.7-1.6,11.4-2.5,17.1a783.41,783.41,0,0,1-32.7,129.6c-2.8,8.3-5.9,16.5-9,24.7h59.4a675.48,675.48,0,0,0,31.2-132.5A661.59,661.59,0,0,0,1436.4,1661.8Z" fill="#2b83c5"/><path d="M1247.7,1833.4c5-21.6,9.8-43.3,14.2-65.1,9.1-44.7,16.7-90.1,21.2-135.5,1.2-12.1,2.8-24.3,3.2-36.4.5-12.9-.4-25.6-.4-38.5.1-13.8-20.3-16.6-24-3.2-2.9,10.5-6.9,20.6-9.8,31s-5.2,21.1-7.7,31.7q-7.35,31.35-14.5,62.7c-9.8,42.2-20,84.3-31.2,126.2-3.2,11.9-6.4,23.7-9.8,35.6-1.6,5.6-3.2,11.2-4.7,16.8-.8,3-1.6,5.9-2.5,8.9-.4,1.3-.8,2.6-1.1,3.9v.2h.1a14.23,14.23,0,0,1,3.9-5.6,47.32,47.32,0,0,0-3.9,5.6h57.7c.5-2,1.1-4.1,1.6-6.1C1242.7,1854.7,1245.2,1844.1,1247.7,1833.4Z" fill="#2b83c5"/><path d="M1405.4,1738.7a82.14,82.14,0,0,1-26.3-6.2,791.19,791.19,0,0,1-30.1,114.3c-2.8,8.3-5.9,16.5-9,24.7h59.4a675.48,675.48,0,0,0,31.2-132.5c.1-.5.1-1,.2-1.5A113.64,113.64,0,0,1,1405.4,1738.7Z" fill="#ec5946"/><path d="M1214.9,1743.4c-5.2,21-10.5,41.9-16.1,62.7-3.2,11.9-6.4,23.7-9.8,35.6-1.6,5.6-3.2,11.2-4.7,16.8-.8,3-1.6,5.9-2.5,8.9-.4,1.3-.8,2.6-1.1,3.9v.2h.1c.8-2.1,1.1-1.9,0,0h57.7c.5-2,1.1-4.1,1.6-6.1,2.6-10.6,5.2-21.3,7.6-31.9,5-21.6,9.8-43.3,14.2-65.1,1.4-7,2.8-14.1,4.2-21.1A111,111,0,0,1,1214.9,1743.4Z" fill="#ec5946"/><path d="M1430.8,1737.5a113.64,113.64,0,0,1-25.4,1.2,82.14,82.14,0,0,1-26.3-6.2c-1.2,6.5-2.5,13-3.8,19.4,5.8.5,11.6,1.1,17.4,2,11.7,1.9,23,5.4,34.3,8.9,1.3-7.9,2.5-15.9,3.6-23.9A7.84,7.84,0,0,1,1430.8,1737.5Z" fill="#440235"/><path d="M1214.9,1743.4c-1.4,5.9-2.9,11.7-4.4,17.6,17.5.5,34.9,1.4,52.3,2.7,1.1-5.5,2.2-11,3.2-16.5A109.28,109.28,0,0,1,1214.9,1743.4Z" fill="#440235"/><path d="M1435.9,1637.9c-.3-4.6-.7-9.1-1.2-13.7-.9-7.5-1.8-15-3-22.4-1.1-7-3.5-13.2-6.4-19.7-2.4-5.2-9.5-7.8-14.7-7a14.86,14.86,0,0,0-12.2,10.5c-3.9,11.6-4.4,23.6-5.7,35.7-.8,7-1.5,14-2.2,21,7-.1,14-.5,20.9-1.2C1419.6,1640.4,1427.7,1639.3,1435.9,1637.9Z" fill="#196084"/><path d="M1286.3,1596.4c.5-12.9-.4-25.6-.4-38.5.1-13.8-20.3-16.6-24-3.2-2.9,10.5-6.9,20.6-9.8,31s-5.2,21.1-7.7,31.7c-1.8,7.8-3.6,15.5-5.4,23.3a431.07,431.07,0,0,0,43.8-6.1c.1-.6.1-1.1.2-1.7C1284.3,1620.7,1285.8,1608.5,1286.3,1596.4Z" fill="#196084"/><path d="M762,1851c1.8-10.7,3.4-21.4,5-32.2.3-2.3.7-4.7,1-7,.1-.8.1-2.7.3-4.4.1.2.4-.2.5-1.6,0-.3.1-.7.1-1h0c.1-1,.3-2,.4-3,.4-3,.8-6.1,1.1-9.1,2.5-21.2,4.4-42.6,6.2-63.9,1.8-21.7,2.4-43.4,4-65.1.9-12.2,1.3-24.4,2.6-36.6s.4-28.3,8.2-38.6c4.5-6,13.1-8.6,19-2.4,8.1,8.4,9.7,20.8,11.6,31.8,2,12.2,3.4,24.4,4.4,36.7,1.8,22,1.8,44,1.4,66.1-.8,45.4-5.4,90.8-12.5,135.6-.8,5.2-1.7,10.5-2.6,15.7H758.3C759.6,1865,760.8,1858,762,1851Z" fill="#ec5946"/><path d="M822.1,1617.8c-1.9-11-3.5-23.4-11.6-31.8-5.9-6.1-14.5-3.6-19,2.4-7.8,10.4-6.9,26.3-8.2,38.6-.3,3.4-.6,6.8-.9,10.1a289.78,289.78,0,0,0,40.4-14.4C822.6,1621.1,822.3,1619.5,822.1,1617.8Z" fill="#440235"/><path d="M827.8,1720.6c-.8,45.4-5.4,90.8-12.5,135.6-.8,5.2-1.7,10.5-2.6,15.7H758.3c1.3-7,2.5-14,3.7-21,1.8-10.7,3.4-21.4,5-32.2.3-2.3.7-4.7,1-7,.1-.8.1-2.7.3-4.4.1.2.4-.2.5-1.6,0-.3.1-.7.1-1h0c.1-1,.3-2,.4-3,.4-3,.8-6.1,1.1-9.1,2.5-21.2,4.4-42.6,6.2-63.9q.75-8.7,1.2-17.4a189.67,189.67,0,0,0,50.1-13.5C828,1705.5,827.9,1713.1,827.8,1720.6Z" fill="#440235"/><path d="M762,1851c1.8-10.7,3.4-21.4,5-32.2.3-2.3.7-4.7,1-7,.1-.8.1-2.7.3-4.4.1.2.4-.2.5-1.6,0-.3.1-.7.1-1h0c.1-1,.3-2,.4-3,.4-3,.8-6.1,1.1-9.1,1.1-9.6,2.1-19.1,3.1-28.7,9.7-3.2,19.6-6.2,28.7-10.8,7.9-3.9,15.2-9,22.5-14,.9-.6,1.7-1.2,2.6-1.8a1008.07,1008.07,0,0,1-12,118.9c-.8,5.2-1.7,10.5-2.6,15.7H758.3C759.6,1865,760.8,1858,762,1851Z" fill="#fec83d"/><path d="M764.3,1836.6a178.08,178.08,0,0,0,59.3-44.6c-2.1,21.5-4.9,43-8.3,64.3-.8,5.2-1.7,10.5-2.6,15.7H758.3c1.3-7,2.5-14,3.7-21C762.8,1846.2,763.5,1841.4,764.3,1836.6Z" fill="#fc903f"/><path d="M770.5,1792.7c1.1-9.6,2.1-19.1,3.1-28.7,9.7-3.2,19.6-6.2,28.7-10.8,7.9-3.9,15.2-9,22.5-14,.9-.6,1.7-1.2,2.6-1.8-.2,5.7-.5,11.4-.8,17.1-19.1,13.8-38,27.9-56.5,42.4C770.2,1795.5,770.3,1794.1,770.5,1792.7Z" fill="#440235"/><path d="M774.4,1783.1a3,3,0,0,1,.7-2.6h0A9.39,9.39,0,0,0,774.4,1783.1Z" fill="#ec5946"/><path d="M761.4,1772.5c1.7-11.5,2-22.6,1.9-34.4a10.07,10.07,0,0,1,6.5-9.4c15.3-5.6,29.7-13.5,44-21.3,5.6-3.1,11.5-6.4,14.9-11.8.1-.1.1-.2.2-.3a4.77,4.77,0,0,1,8.7,1.2c3.7,13,8,26,5.1,39-.6,2.6-1.3,5.3-2.9,7.4a20.74,20.74,0,0,1-6.5,4.8c-20,10.8-42.4,20.9-63.3,31.2A6.07,6.07,0,0,1,761.4,1772.5Z" fill="#ffeecb"/><path d="M762.8,1758.7c.4-6.8.6-13.6.5-20.6a10.07,10.07,0,0,1,6.5-9.4c15.3-5.6,29.7-13.5,44-21.3,5.6-3.1,11.5-6.4,14.9-11.8.1-.1.1-.2.2-.3a4.77,4.77,0,0,1,8.7,1.2c0,.1.1.3.1.4A272.25,272.25,0,0,1,762.8,1758.7Z" fill="#f3ac87"/><path d="M946.4,1837.9c-3.2-8.9-6.4-17.9-9.4-26.9q-9-27.6-15.8-55.8c-4.4-18.4-8.1-37.1-11.4-55.7-.8-4.5-1.5-9-2.2-13.5-.4-2.6-.8-5.2-1.2-7.7-.1-1-.3-1.9-.4-2.9-.2-1.6-.6-4.3-.2-1.2-1.4-10.5-3.3-21-4.8-31.5a2.81,2.81,0,0,1-.1-.8v-.1c-.2-1.6-.4-3.3-.6-4.9-.3-2.6-.6-5.2-.9-7.9-.7-6-1.9-11.9-3-17.9-.9-4.8-2.4-9.4-3.4-14.1a6.17,6.17,0,0,1-.2-2.3c.1-1,.5-2.1.5-3.1v-.2a5.79,5.79,0,0,0-1-6.5c-7.1-6.4-15.9-1.6-19.9,5.8-4.6,8.5-5.7,18.5-7,27.9-3,21.5-2.2,44.6-.2,66.2a677.4,677.4,0,0,0,24.2,127.1c3.3,11.3,6.9,22.5,10.7,33.7,1.9,5.6,4.1,11.1,6.3,16.5,1.2,3.1,2.5,6.3,4,9.3H966C956.6,1863.3,950.1,1848.3,946.4,1837.9Z" fill="#ffc001"/><path d="M946.4,1837.9c-3.2-8.9-6.4-17.9-9.4-26.9-1.2-3.7-2.4-7.4-3.5-11a200.42,200.42,0,0,1-45.5,7.6c.4,1.5.8,2.9,1.3,4.4,3.3,11.3,6.9,22.5,10.7,33.7,1.9,5.6,4.1,11.1,6.3,16.5,1.2,3.1,2.5,6.3,4,9.3h55.6C956.6,1863.3,950.1,1848.3,946.4,1837.9Z" fill="#fc903f"/><path d="M890.3,1650c-13.3-.7-25.6,2.7-38.2,6.4-.8.2-.5,1.5.4,1.3,12.3-3.1,25.3-3.7,37.9-5.3A1.2,1.2,0,0,0,890.3,1650Z" fill="#440235"/><path d="M884.7,1658.8c-9.9-1-21.5,1.1-30.7,4.6-.6.2-.6,1.3.2,1.2,10.1-.5,21-1.2,30.9-3.3C886.6,1660.9,886.1,1658.9,884.7,1658.8Z" fill="#440235"/><path d="M881.7,1672.9c-8.3-.1-16.6,3-25,2.5a.6.6,0,1,0,0,1.2c8.6.5,17.5,2.3,25.6-1.5A1.19,1.19,0,0,0,881.7,1672.9Z" fill="#440235"/><path d="M885.1,1684.7c-8-1.8-17,.4-24.8,2.4a.66.66,0,0,0,.2,1.3c8-.3,16.8.6,24.7-1.1A1.37,1.37,0,0,0,885.1,1684.7Z" fill="#440235"/><path d="M884.5,1701.2c-4-.9-8.1.2-12.1.7-4.5.6-9.1.9-13.4,2.2-.6.2-.7,1.2,0,1.3,4.5.8,9.1.4,13.6.1,4.1-.3,8.4-.2,12.1-2A1.26,1.26,0,0,0,884.5,1701.2Z" fill="#440235"/><path d="M890.6,1717c-4.6-1.7-10.5.1-15.3.7-5.1.7-10.1,1.5-15.1,2.3-.8.1-.6,1.4.2,1.4,5.6-.1,11.3-.1,16.9-.3,4.4-.2,9.6.4,13.6-1.9C891.9,1718.7,891.6,1717.4,890.6,1717Z" fill="#440235"/><path d="M892.5,1727.9c-7.7-2.1-17.4,1.2-24.9,2.9-1.7.4-1,3,.7,2.7,7.7-1.5,16.9-.4,24.2-3.2A1.27,1.27,0,0,0,892.5,1727.9Z" fill="#440235"/><path d="M899,1741.1c-9-.8-18.1,3.5-26.9,4.9-.9.1-.5,1.4.4,1.3,8.8-1.4,18.8-.1,27.2-3.7C901,1743,900.2,1741.2,899,1741.1Z" fill="#440235"/><path d="M897.2,1756.7c-8.6.3-17,3-25.6,4-.8.1-.9,1.3,0,1.3,8.6-.2,17.8.2,25.9-2.8C898.8,1758.7,898.8,1756.6,897.2,1756.7Z" fill="#440235"/><path d="M1068.1,1846.7c.4-2.3.7-4.6,1-7,.1-.8.8-5.1.2-1.7-.6,3.8.3-2.6.3-2.7,2.4-19.7,4.2-39.6,5.4-59.4,2.4-40.4,2.6-81.1,2.6-121.5,0-11.7.2-23.5,1.2-35.2.5-5.5,1.3-11,1.9-16.5.3-3.2.4-6.6,1-9.7s2.1-5.9,3.4-8.8c2.6-5.9,10.9-4.5,13.8,0,5.7,8.6,7.5,19,10,28.9a230.2,230.2,0,0,1,5.8,33c2.3,21,4.6,42,5.8,63.1,2.3,40.6,3.3,81.6-.6,122.1-1.2,12.6-2.8,25.2-4.7,37.7l-.3,2.4h-51.4c.8-3.6,1.6-7.2,2.2-10.8C1066.6,1856,1067.3,1851.4,1068.1,1846.7Z" fill="#ffc001"/><path d="M896.3,1611.1c-.9-4.8-2.4-9.4-3.4-14.1a6.17,6.17,0,0,1-.2-2.3c.1-1,.5-2.1.5-3.1v-.2a5.79,5.79,0,0,0-1-6.5c-7.1-6.4-15.9-1.6-19.9,5.8-4.6,8.5-5.7,18.5-7,27.9-.4,2.8-.7,5.7-1,8.6,11.8,1.5,23.6,3,35.4,4.3-.1-.8-.2-1.7-.3-2.5C898.6,1623,897.5,1617.1,896.3,1611.1Z" fill="#440235"/><path d="M1109,1613.2c-2.5-9.9-4.3-20.3-10-28.9-2.9-4.5-11.3-5.9-13.8,0-1.2,2.9-2.7,5.7-3.4,8.8s-.7,6.5-1,9.7c-.6,5.5-1.4,11.1-1.9,16.5-.2,2.9-.4,5.7-.6,8.6,10.8-2.4,21.6-5.2,32.3-8C1110.1,1617.6,1109.6,1615.4,1109,1613.2Z" fill="#440235"/><path d="M889.3,1811.9c3.3,11.3,6.9,22.5,10.7,33.7,1.9,5.6,4.1,11.1,6.3,16.5,1.2,3.1,2.5,6.3,4,9.3h55.6c-9.3-8.1-15.8-23.2-19.5-33.6-1.9-5.4-3.9-10.8-5.7-16.2a207.56,207.56,0,0,1-53.6-17.4C887.8,1806.9,888.5,1809.4,889.3,1811.9Z" fill="#fc903f"/><path d="M1069.7,1834.4c0,.1-.9,6.4-.3,2.7.5-3.5-.1.8-.2,1.7-.3,2.3-.7,4.6-1,7-.7,4.6-1.5,9.3-2.3,13.9-.7,3.6-1.5,7.2-2.2,10.8h51.4l.3-2.4c1.9-12.5,3.5-25.1,4.7-37.7a624.62,624.62,0,0,0,2.5-68.4c-15.5,14.3-32.3,27.4-49.4,39.9C1072.2,1812.7,1071,1823.6,1069.7,1834.4Z" fill="#fc903f"/><path d="M1065.3,1729.4c5.7-4.7,17.5-2.6,24.4-1.8,9.9,1,19.7,2.3,29.5,3.3.6.1.9,1.1.2,1.2-8.9,1.3-17.9.3-26.8-.2-4.6-.3-9.2-.4-13.7-.3-4.2.1-9,1.5-13,.1C1065.1,1731.3,1064.5,1730.1,1065.3,1729.4Z" fill="#440235"/><path d="M1071.3,1719.3c5.6-2.1,13.2-.7,19.2-.4,7,.4,13.9,1.3,20.8,1.7a.6.6,0,0,1,0,1.2,205.79,205.79,0,0,0-20.8.3c-6,.2-13.4,1.8-19.2,0A1.46,1.46,0,0,1,1071.3,1719.3Z" fill="#440235"/><path d="M1076.7,1707.6c6.1-2.3,14.4-.8,20.7-.2a140.12,140.12,0,0,1,20.3,4c.9.2.5,1.5-.4,1.3a178.22,178.22,0,0,0-21.9-2c-6-.2-12.8,1.2-18.7-.3C1075.2,1710.1,1075.4,1708.1,1076.7,1707.6Z" fill="#440235"/><path d="M1077.6,1699.5c5.4-2.2,12.9-.6,18.6-.1,6.2.6,12.3,1.7,18.4,2.7.7.1.6,1.4-.2,1.3-6.4-.6-12.8-.8-19.2-.9-5.5-.1-12.5,1.3-17.6-.7C1076.3,1701.5,1076.4,1700,1077.6,1699.5Z" fill="#440235"/><path d="M1077.4,1683.3c6.1-1.9,13.8-.5,20,.2a106.57,106.57,0,0,1,19.5,3.7c.7.2.6,1.4-.2,1.3-6.8-.4-13.6-1.1-20.4-1.3-6.1-.2-13,1-19-.4A1.88,1.88,0,0,1,1077.4,1683.3Z" fill="#440235"/><path d="M1078.1,1670.7c4.9-2.1,11.2-.8,16.4-.5,6.7.4,13.3.9,20,.9a.65.65,0,0,1,0,1.3c-6.7,0-13.3.5-20,.9-5.2.3-11.5,1.6-16.4-.5A1.22,1.22,0,0,1,1078.1,1670.7Z" fill="#440235"/><path d="M1073.4,1659.3c5.5-2.5,12.9-1.6,18.8-1.5,7.4.1,14.8.6,22.2,1.4.9.1,1,1.5,0,1.4-7.1-.2-14.1-.2-21.2.2-6.2.3-13.5,2.3-19.5.9A1.29,1.29,0,0,1,1073.4,1659.3Z" fill="#440235"/><path d="M1075.2,1649.2c1.3,1.5,2.2,1.3,4.2,1.2,4-.3,8-1.3,12.1-1.6a125.38,125.38,0,0,1,24.5.3c.8.1,1-1.2.2-1.4a102.09,102.09,0,0,0-22.7-2.7,106.74,106.74,0,0,0-12.6.9c-1,.1-3.3.1-4.1.9a1.59,1.59,0,0,0-1.3.3,1.38,1.38,0,0,1-.4.3A1.37,1.37,0,0,0,1075.2,1649.2Z" fill="#440235"/><path d="M1079.1,1634c9.4-3,19.3-3.1,29.1-2.1,2.2.2,2.3,3.7,0,3.5-9.7-.8-19.1.1-28.7,1.1C1077.9,1636.8,1077.8,1634.5,1079.1,1634Z" fill="#440235"/><polygon points="880 1802.9 950 1817.2 978.9 1871.5 906.3 1871.5 880 1802.9" fill="#ec5946"/><path d="M906.3,1871.5h54.1a590.37,590.37,0,0,1-69.9-41.2Z" fill="#440235"/><polygon points="1054.9 1871.5 1063.5 1817.2 1132 1778.4 1122.6 1870.9 1054.9 1871.5" fill="#ec5946"/><path d="M1065.7,1854.4a83.94,83.94,0,0,1-8.4,3l-2.4,15.1,67.6-.5,4.8-47.6C1108.4,1836.9,1086.9,1845.9,1065.7,1854.4Z" fill="#440235"/><path d="M663.4,1851c-1.8-10.7-3.4-21.4-5-32.2-.3-2.3-.7-4.7-1-7-.1-.8-.1-2.7-.3-4.4-.1.2-.4-.2-.5-1.6,0-.3-.1-.7-.1-1h0c-.1-1-.3-2-.4-3-.4-3-.8-6.1-1.1-9.1-2.5-21.2-4.4-42.6-6.2-63.9-1.8-21.7-2.4-43.4-4-65.1-.9-12.2-1.3-24.4-2.6-36.6s-.4-28.3-8.2-38.6c-4.5-6-13.1-8.6-19-2.4-8.1,8.4-9.7,20.8-11.6,31.8-2,12.2-3.4,24.4-4.4,36.7-1.8,22-1.8,44-1.4,66.1.8,45.4,5.4,90.8,12.5,135.6.8,5.2,1.7,10.5,2.6,15.7h54.4C665.8,1865,664.5,1858,663.4,1851Z" fill="#ec5946"/><path d="M597.5,1720.6c.8,45.4,5.4,90.8,12.5,135.6.8,5.2,1.7,10.5,2.6,15.7H667c-1.3-7-2.5-14-3.7-21-1.8-10.7-3.4-21.4-5-32.2-.3-2.3-.7-4.7-1-7-.1-.8-.1-2.7-.3-4.4-.1.2-.4-.2-.5-1.6,0-.3-.1-.7-.1-1h0c-.1-1-.3-2-.4-3-.4-3-.8-6.1-1.1-9.1-2.5-21.2-4.4-42.6-6.2-63.9q-.75-8.7-1.2-17.4a189.67,189.67,0,0,1-50.1-13.5C597.3,1705.5,597.4,1713.1,597.5,1720.6Z" fill="#440235"/><path d="M663.4,1851c-1.8-10.7-3.4-21.4-5-32.2-.3-2.3-.7-4.7-1-7-.1-.8-.1-2.7-.3-4.4-.1.2-.4-.2-.5-1.6,0-.3-.1-.7-.1-1h0c-.1-1-.3-2-.4-3-.4-3-.8-6.1-1.1-9.1-1.1-9.6-2.1-19.1-3.1-28.7-9.7-3.2-19.6-6.2-28.7-10.8-7.9-3.9-15.2-9-22.5-14-.9-.6-1.7-1.2-2.6-1.8a1008.07,1008.07,0,0,0,12,118.9c.8,5.2,1.7,10.5,2.6,15.7h54.4C665.8,1865,664.5,1858,663.4,1851Z" fill="#fec83d"/><path d="M661.1,1836.6a178.08,178.08,0,0,1-59.3-44.6c2.1,21.5,4.9,43,8.3,64.3.8,5.2,1.7,10.5,2.6,15.7h54.4c-1.3-7-2.5-14-3.7-21C662.6,1846.2,661.8,1841.4,661.1,1836.6Z" fill="#fc903f"/><path d="M654.9,1792.7c-1.1-9.6-2.1-19.1-3.1-28.7-9.7-3.2-19.6-6.2-28.7-10.8-7.9-3.9-15.2-9-22.5-14-.9-.6-1.7-1.2-2.6-1.8.2,5.7.5,11.4.8,17.1,19.1,13.8,38,27.9,56.5,42.4C655.2,1795.5,655,1794.1,654.9,1792.7Z" fill="#440235"/><path d="M650.9,1783.1a3,3,0,0,0-.7-2.6h0A5.4,5.4,0,0,1,650.9,1783.1Z" fill="#ec5946"/><path d="M663.9,1772.5c-1.7-11.5-2-22.6-1.9-34.4a10.07,10.07,0,0,0-6.5-9.4c-15.3-5.6-29.7-13.5-44-21.3-5.6-3.1-11.5-6.4-14.9-11.8-.1-.1-.1-.2-.2-.3a4.77,4.77,0,0,0-8.7,1.2c-3.7,13-8,26-5.1,39,.6,2.6,1.3,5.3,2.9,7.4a20.74,20.74,0,0,0,6.5,4.8c20,10.8,42.4,20.9,63.3,31.2A6.07,6.07,0,0,0,663.9,1772.5Z" fill="#ffeecb"/><path d="M662.5,1758.7c-.4-6.8-.6-13.6-.5-20.6a10.07,10.07,0,0,0-6.5-9.4c-15.3-5.6-29.7-13.5-44-21.3-5.6-3.1-11.5-6.4-14.9-11.8-.1-.1-.1-.2-.2-.3a4.77,4.77,0,0,0-8.7,1.2c0,.1-.1.3-.1.4A273.72,273.72,0,0,0,662.5,1758.7Z" fill="#f3ac87"/><path d="M740.7,780.22l170.7,679.4,505.5-26.7,118.8-681.6S1158.6,474.82,740.7,780.22Z" fill="#4da8bb"/><path d="M835.1,1156l76.3,303.6,505.5-26.7L1527,801.12Q1176.3,968.82,835.1,1156Z" fill="#4199a5"/><rect x="828.02" y="1335.97" width="587.02" height="219.55" fill="#fff7d2"/><path d="M1102.3,953.62s-19.1,3.7-24.3,12.6l85.1,367.9,41.7,1.4s26.5-276.4,28.7-291.5-24.9-79.9-24.9-79.9-29.6-15.7-39.4-13.6S1102.3,953.62,1102.3,953.62Z" fill="#bf4c43"/><path d="M1179.2,1015.92a20.08,20.08,0,0,1-6-.6,23.84,23.84,0,0,1-5.9-3.1c-14.5-9.4-54.6-36.9-77.2-54.9-4.9,2-9.8,4.9-12.1,8.8l85.1,367.9,41.7,1.4s26.5-276.4,28.7-291.5c.8-5.9-2.7-19.3-7.4-33.5-3.8.6-7.7,1.3-11.4,1.9A202.55,202.55,0,0,1,1179.2,1015.92Z" fill="#9b3531"/><path d="M1204.7,1093.62c-3.9,3.5-8.7,5.9-13.4,8.3-1.5-2.1-1.3-5-2.1-7.5s-5.1-3.2-6.7-1.1c-.1,7.8-.2,15.5-.3,23.3a7.62,7.62,0,0,1-.6,3.7c-1.4,2.7-5.1,3-7.3,5.1-2.5,2.4-2.4,4.6-2.3,8.1.3,6.7.5,13.4.8,20.1a3.29,3.29,0,0,1-.4,2c-.4.6-1.1.8-1.7,1.2-2.5,1.2-4.2,3.9-5,6.6-1.6,5.8-3.2,11.6-4.9,17.4a5.5,5.5,0,0,1-1.6,3,5.59,5.59,0,0,1-2.6.7c-2.3.2-4.7.3-7,.3a5,5,0,0,1-2.7-.5c-1.4-.8-1.7-2.8-1.9-4.4-2.6-28.7-6.9-44.5-5.8-24.1a5.59,5.59,0,0,1-.5,3.4c-.7,1.2-2.2,1.6-3.5,2a3.09,3.09,0,0,1-.8.2c6.4,24.6,13.4,53.2,20.1,81.2a23.9,23.9,0,0,0,8.5-13.1c.4-1.5.7-3.3,2.1-4.1a5,5,0,0,1,3.2-.2c6.8,1,14.4.8,19.9-3.4a17.67,17.67,0,0,0,3.1-3c6.6-50,13.6-100.7,18.5-131.4A25.19,25.19,0,0,1,1204.7,1093.62Z" fill="#aa6304"/><path d="M1204.7,1093.62a29.53,29.53,0,0,1-4.5,3.4q-10.5,64.35-22.1,128.5a20.69,20.69,0,0,0,10.2-3.7,17.67,17.67,0,0,0,3.1-3c6.6-50,13.6-100.7,18.5-131.4A28.09,28.09,0,0,1,1204.7,1093.62Z" fill="#7f4806"/><path d="M1161.5,1178.62c.6,18,1.4,38,2,49.1a3.85,3.85,0,0,1,1.7-2.4,5,5,0,0,1,3.2-.2,41.33,41.33,0,0,0,8.6.4l-11.8-60.1C1163.9,1169.82,1162.7,1174.22,1161.5,1178.62Z" fill="#7f4806"/><path d="M1138.7,1159.22a5.59,5.59,0,0,0,.5-3.4c-1.1-20.4,3.2-4.6,5.8,24.1.1,1.7.4,3.6,1.9,4.4a5,5,0,0,0,2.7.5c2.3,0,4.7-.1,7-.3a5.59,5.59,0,0,0,2.6-.7,5.5,5.5,0,0,0,1.6-3c1.6-5.8,3.2-11.6,4.9-17.4a10.2,10.2,0,0,1,5-6.6,4.07,4.07,0,0,0,1.7-1.2,3.44,3.44,0,0,0,.4-2c-.3-6.7-.5-13.4-.8-20.1-.1-3.5-.2-5.7,2.3-8.1,2.2-2.1,5.9-2.4,7.3-5.1a7.62,7.62,0,0,0,.6-3.7c.1-7.8.2-15.5.3-23.3,1.6-2.1,5.8-1.4,6.7,1.1s.6,5.4,2.1,7.5c4.7-2.4,9.4-4.8,13.4-8.3s7-8.3,7.3-13.5c.2-3,2.4-3,2.8-6,.5-3.6-.4-9.6,1.1-12.9,6.4-13.5,5.1-29.2,3.6-44.1-1.6.8-3.1,1.5-4.7,2.3-28.5,14.1-58.8,29.5-88.8,40.1-8.1,2.9-16.4,5.2-24.6,7.9l22.4,96.8c3.8-1,7.5-2.1,11.3-3.1A5.77,5.77,0,0,0,1138.7,1159.22Z" fill="#cc7901"/><path d="M1181.6,1120.32a7.62,7.62,0,0,0,.6-3.7c.1-7.6.2-15.3.3-22.9l-2.8-41.7.5,69.9A7,7,0,0,0,1181.6,1120.32Z" fill="#ffcf57"/><path d="M1159.8,1064.72s-3.9,120.8.7,122.2l7.5-9.7Z" fill="#ffcf57"/><path d="M1214.9,1019.42c-6.2,3.1-12.5,6.2-18.9,9.4,2,22.1,7,44.2,7,66.2.6-.5,1.2-.9,1.7-1.4,3.9-3.5,7-8.3,7.3-13.5.2-3,2.4-3,2.8-6,.5-3.6-.4-9.6,1.1-12.9,6.4-13.5,5.1-29.2,3.6-44.1C1218,1017.92,1216.5,1018.62,1214.9,1019.42Z" fill="#aa6304"/><polygon points="1164 1185.92 1160.6 1061.22 1171.3 1173.22 1164 1185.92" fill="#aa6304"/><path d="M1219.6,1017.12c-1.6.8-3.1,1.5-4.7,2.3-28.5,14.1-58.8,29.5-88.8,40.1-8.1,2.9-16.4,5.2-24.6,7.9l6.9,29.8a141,141,0,0,0,13.7-6.3,11.83,11.83,0,0,1,4.5-1.4c1.8-.1,3.4.7,5.1,1.3,6.9,2.7,14.6,3.9,21.8,2.3s14-6.2,17.1-13c2.1-4.5,2.6-9.8,5.8-13.6,4.7-5.6,13-5.7,20.1-7.4,8.7-2,16.3-6.9,23.6-12.2C1221.4,1037.32,1220.5,1027,1219.6,1017.12Z" fill="#aa6304"/><path d="M1135.9,1078.22c-1.3,1.3,5.2,80.6,5.2,80.6l-3.6,7.8-7.7-98.6Z" fill="#aa6304"/><path d="M1094.8,1057.12s59.3-38.5,100.1-33.4l8.8,15.3C1203.6,1039.12,1104.2,1050.52,1094.8,1057.12Z" fill="#ffc001"/><path d="M1102.3,1058.82s10.1-54.6,3.8-67.3c0,0-9.5-29.2-24.9-35.5C1081.3,956,1088.5,1035.42,1102.3,1058.82Z" fill="#ec5946"/><path d="M1222.9,990a1.85,1.85,0,0,1,.2.7A2.54,2.54,0,0,0,1222.9,990Z" fill="#ffc001"/><path d="M1225.3,996.72a7.49,7.49,0,0,1,.5,1.6A14.24,14.24,0,0,0,1225.3,996.72Z" fill="#ffc001"/><path d="M1223.7,992.32a1.85,1.85,0,0,1,.2.7A1.85,1.85,0,0,0,1223.7,992.32Z" fill="#ffc001"/><path d="M1222.1,987.92c.1.3.2.5.3.8C1222.3,988.42,1222.2,988.22,1222.1,987.92Z" fill="#ffc001"/><path d="M1215.2,971.32a4.88,4.88,0,0,1,.3.7A4.88,4.88,0,0,0,1215.2,971.32Z" fill="#ffc001"/><path d="M1230.3,1011.82c.3,1,.6,2,1,3C1231,1013.82,1230.7,1012.82,1230.3,1011.82Z" fill="#ffc001"/><path d="M1213.8,968.62a4.88,4.88,0,0,1,.3.7C1214.1,969.12,1213.9,968.92,1213.8,968.62Z" fill="#ffc001"/><path d="M1216,973.12c.2.3.3.7.5,1A9.29,9.29,0,0,0,1216,973.12Z" fill="#ffc001"/><path d="M1287.7,1236.92c.2.8.3,1.5.5,2.3C1288,1238.42,1287.8,1237.62,1287.7,1236.92Z" fill="#ffc001"/><path d="M1291,1254c.1.6.2,1.1.3,1.7A5.55,5.55,0,0,0,1291,1254Z" fill="#ffc001"/><path d="M1292.4,1261.72c.1.4.1.9.2,1.3C1292.5,1262.62,1292.5,1262.22,1292.4,1261.72Z" fill="#ffc001"/><path d="M1293.2,1267c0,.3.1.6.1.9C1293.3,1267.62,1293.2,1267.32,1293.2,1267Z" fill="#ffc001"/><path d="M1293,1265.92c0,.4.1.7.1,1A3.75,3.75,0,0,0,1293,1265.92Z" fill="#ffc001"/><path d="M1292.2,1260.32a6.75,6.75,0,0,1,.2,1.4C1292.3,1261.32,1292.3,1260.82,1292.2,1260.32Z" fill="#ffc001"/><path d="M1291.4,1255.72c.1.6.2,1.1.3,1.6C1291.6,1256.82,1291.5,1256.32,1291.4,1255.72Z" fill="#ffc001"/><path d="M1232.2,1017.52l.6,1.8A6.36,6.36,0,0,1,1232.2,1017.52Z" fill="#ffc001"/><path d="M1293.5,1271.42c0,.5-.1,1-.1,1.6a9.15,9.15,0,0,0,.1-1.6,26.6,26.6,0,0,0-.2-3.5A15.92,15.92,0,0,1,1293.5,1271.42Z" fill="#ffc001"/><path d="M1293.4,1274.42v0Z" fill="#ffc001"/><path d="M1293.9,1282.72c0,.4.1.8.1,1.3A5.28,5.28,0,0,0,1293.9,1282.72Z" fill="#ffc001"/><path d="M1293.4,1274.42a21.75,21.75,0,0,0,.1,2.5C1293.5,1276,1293.4,1275.22,1293.4,1274.42Z" fill="#ffc001"/><path d="M1293.6,1278.52c0,.6.1,1.1.1,1.7C1293.7,1279.72,1293.6,1279.12,1293.6,1278.52Z" fill="#ffc001"/><path d="M1292.7,1263.72c.1.6.2,1.2.3,1.7C1292.9,1264.92,1292.8,1264.32,1292.7,1263.72Z" fill="#ffc001"/><path d="M1246,1064.72l.9,3.3Z" fill="#ffc001"/><path d="M1248.2,1073l.6,2.1Z" fill="#ffc001"/><path d="M1253.7,1093.32c.3,1.1.6,2.3.9,3.4C1254.3,1095.62,1254,1094.42,1253.7,1093.32Z" fill="#ffc001"/><path d="M1240.1,1043.92a13.32,13.32,0,0,1,.5,1.9A18,18,0,0,0,1240.1,1043.92Z" fill="#ffc001"/><path d="M1259,1114a16,16,0,0,1,.5,2.1A16,16,0,0,0,1259,1114Z" fill="#ffc001"/><path d="M1242.7,1053c.1.2.1.5.2.7A6.37,6.37,0,0,1,1242.7,1053Z" fill="#ffc001"/><path d="M1263.4,1131.22c.3,1.1.6,2.3.9,3.4A18.87,18.87,0,0,1,1263.4,1131.22Z" fill="#ffc001"/><path d="M1287.2,1234.62c.2.8.3,1.6.5,2.3C1287.5,1236.12,1287.4,1235.42,1287.2,1234.62Z" fill="#ffc001"/><path d="M1286.7,1232.22c.2.8.3,1.6.5,2.4C1287,1233.82,1286.9,1233,1286.7,1232.22Z" fill="#ffc001"/><path d="M1272.7,1170c.2.6.3,1.3.5,1.9A13.32,13.32,0,0,0,1272.7,1170Z" fill="#ffc001"/><path d="M1280,1201.22a24.6,24.6,0,0,0,.7,2.9A24.6,24.6,0,0,1,1280,1201.22Z" fill="#ffc001"/><path d="M1290,1248.52c.3,1.3.5,2.5.7,3.7C1290.5,1251.12,1290.3,1249.82,1290,1248.52Z" fill="#ffc001"/><path d="M1211.3,964.42c.1.2.3.4.4.6C1211.6,964.82,1211.4,964.62,1211.3,964.42Z" fill="#ffc001"/><path d="M1303.8,1342.32Z" fill="#ffeecb"/><path d="M1179.5,1371.42v-.5A.45.45,0,0,1,1179.5,1371.42Z" fill="#ffeecb"/><path d="M1224.6,1052.32a25.4,25.4,0,0,1-1.6,10.9c-14.4,39.7-37.4,250.5-43.3,306.6,19.4-.8,72.8-5.4,123-32.9-1.3-6.6-3.5-18.1-5.4-29.8a7.72,7.72,0,0,1-.2-1.5c-.4-2.3-.7-4.5-1.1-6.8-.2-1.2-.4-2.5-.5-3.7-.1-.5-.1-1-.2-1.5-.1-.7-.2-1.4-.3-2.2l-.3-2.1q-.3-2.85-.6-5.4c0-.4-.1-.9-.1-1.3-.1-.8-.1-1.7-.2-2.4s-.1-1.2-.1-1.7-.1-1.1-.1-1.6c0-.9-.1-1.7-.1-2.5v-1.3a8.08,8.08,0,0,1,.1-1.6,26.6,26.6,0,0,0-.2-3.5c0-.3-.1-.6-.1-.9s-.1-.7-.1-1a.75.75,0,0,0-.1-.5c-.1-.6-.2-1.1-.3-1.7,0-.2-.1-.4-.1-.6-.1-.4-.1-.9-.2-1.3a5.9,5.9,0,0,1-.2-1.4c-.2-1-.3-2-.5-3-.1-.5-.2-1.1-.3-1.6s-.2-1.1-.3-1.7l-.3-1.8c-.2-1.2-.5-2.4-.7-3.7-.6-2.9-1.2-6-1.9-9.4-.2-.7-.3-1.5-.5-2.3s-.3-1.5-.5-2.3-.3-1.6-.5-2.4c-1.8-8.4-3.8-17.9-6.1-28-.2-1-.4-1.9-.7-2.9s-.4-2-.7-3c-.3-1.5-.7-3-1-4.5s-.7-3.1-1.1-4.6a12.44,12.44,0,0,0-.4-1.6c-.4-1.6-.7-3.1-1.1-4.7a9.36,9.36,0,0,0-.4-1.6c-.2-1.1-.5-2.1-.7-3.2a9.36,9.36,0,0,0-.4-1.6c-.4-1.5-.7-3-1.1-4.5-.2-.6-.3-1.3-.5-1.9-.3-1.1-.5-2.2-.8-3.3s-.5-2.2-.8-3.3c-.4-1.7-.8-3.3-1.2-5-.3-1.1-.5-2.2-.8-3.4-.1-.6-.3-1.1-.4-1.7-.5-2.2-1.1-4.5-1.6-6.8s-1.1-4.5-1.7-6.8c-.3-1.1-.6-2.3-.8-3.4-.1-.6-.3-1.1-.4-1.7-.3-1.1-.6-2.3-.9-3.4-.4-1.7-.9-3.4-1.3-5.2-.3-1.2-.6-2.3-.9-3.5s-.6-2.3-.9-3.5c-.3-1-.5-2.1-.8-3.1a16,16,0,0,1-.5-2.1c-.9-3.5-1.8-6.9-2.7-10.4l-1.8-6.9c-.3-1.1-.6-2.3-.9-3.4s-.6-2.3-.9-3.4c-.6-2.3-1.2-4.5-1.8-6.8-.5-1.7-.9-3.4-1.4-5.1-.3-1-.5-1.9-.8-2.9l-.6-2.1c-.5-1.7-.9-3.3-1.4-5l-.9-3.3c-.2-.5-.3-1.1-.5-1.6l-.9-3.3c-.3-1.1-.6-2.2-.9-3.2s-.5-1.9-.8-2.9c-.1-.2-.1-.5-.2-.7l-2.1-7.2a13.32,13.32,0,0,1-.5-1.9c-.1-.5-.3-1-.4-1.5-1.2-4.1-2.4-8.1-3.6-12.1-.1-.5-.3-1-.4-1.5-1-3.3-2-6.4-2.9-9.5l-.6-1.8-.9-2.7c-.3-1-.6-2-1-3-1.5-4.7-3-9.3-4.5-13.5a9.83,9.83,0,0,1-.5-1.6c-.4-1.3-.9-2.5-1.3-3.7a1.85,1.85,0,0,1-.2-.7c-.2-.5-.4-1.1-.6-1.6a1.85,1.85,0,0,1-.2-.7c-.2-.4-.3-.9-.5-1.3s-.2-.5-.3-.8c-.6-1.6-1.2-3.1-1.8-4.6a10.37,10.37,0,0,1-.4-1c-1.2-3-2.4-5.8-3.5-8.3-.2-.3-.3-.7-.5-1s-.3-.7-.5-1.1c-.1-.2-.2-.5-.3-.7-.3-.7-.7-1.4-1-2a4.88,4.88,0,0,1-.3-.7c-.7-1.4-1.5-2.6-2.1-3.7-.1-.2-.3-.4-.4-.6a14.79,14.79,0,0,0-2.1-2.6,4.36,4.36,0,0,0-1.1-.9C1219,981.32,1223.4,1033.82,1224.6,1052.32Z" fill="#ffeecb"/><path d="M1202.7,1176.42c-9,66.2-17.5,142.6-21.7,181.6,1.2,5.2,2,9.2,2.6,11.7,22-1.2,71.9-6.9,119.1-32.8-1.3-6.6-3.5-18.1-5.4-29.8a7.72,7.72,0,0,1-.2-1.5c-.4-2.3-.7-4.5-1.1-6.8-.2-1.2-.4-2.5-.5-3.7-.1-.5-.1-1-.2-1.5-.1-.7-.2-1.4-.3-2.2l-.3-2.1q-.3-2.85-.6-5.4c0-.4-.1-.9-.1-1.3-.1-.8-.1-1.7-.2-2.4s-.1-1.2-.1-1.7-.1-1.1-.1-1.6c0-.9-.1-1.7-.1-2.5v-1.3a8.08,8.08,0,0,1,.1-1.6,26.6,26.6,0,0,0-.2-3.5c0-.3-.1-.6-.1-.9s-.1-.7-.1-1a.75.75,0,0,0-.1-.5c-.1-.6-.2-1.1-.3-1.7,0-.2-.1-.4-.1-.6-.1-.4-.1-.9-.2-1.3a5.9,5.9,0,0,1-.2-1.4c-.2-1-.3-2-.5-3-.1-.5-.2-1.1-.3-1.6s-.2-1.1-.3-1.7l-.3-1.8c-.2-1.2-.5-2.4-.7-3.7-.6-2.9-1.2-6-1.9-9.4-.2-.7-.3-1.5-.5-2.3s-.3-1.5-.5-2.3-.3-1.6-.5-2.4c-1.8-8.4-3.8-17.9-6.1-28-.2-1-.4-1.9-.7-2.9s-.4-2-.7-3c-.3-1.5-.7-3-1-4.5s-.7-3.1-1.1-4.6a12.44,12.44,0,0,0-.4-1.6,4.33,4.33,0,0,0-.1-.5c-11.3-1.1-22.6-2.5-33.9-4.1C1229.4,1181.12,1216,1178.92,1202.7,1176.42Z" fill="#ffe0b3"/><path d="M1212.4,1352.32c3.5-3.6,5.7-8.8,4.7-13.7-.8-3.6-3.1-6.7-5.5-9.5a26.6,26.6,0,0,0-7.5-6.7,27.64,27.64,0,0,0-7.4-2.3,106,106,0,0,0-11.3-1.6c-2.1,18.4-3.8,34.1-5,45.5a70.82,70.82,0,0,0,19.2-4.1C1204.2,1358.12,1208.9,1355.92,1212.4,1352.32Z" fill="#b7996c"/><path d="M1281.4,1336.32c-7.1-.7-13.2-4-19.2-7.7a91,91,0,0,0-21.4-10.1c-12.7-3.9-31.2-6.9-40.8,4.9-7.6,9.3-6.7,23.5-.2,33.1a35,35,0,0,0,11,10.3c3-.4,6.1-1,9.3-1.5a34.66,34.66,0,0,1-14.3-9.8c-6.3-7.4-8.3-20.7-1.6-28.5,4.2-5,10.9-6.3,17.2-6.2a70,70,0,0,1,21.7,4.5c7.1,2.6,13.4,6.7,20,10.5,5.9,3.4,12,5.8,18.9,6.1a40.2,40.2,0,0,0,17.9-3.4c1-.5,2-1,3-1.6-.3-1.3-.6-2.9-.9-4.6a25.57,25.57,0,0,1-2.4,1.1A38.37,38.37,0,0,1,1281.4,1336.32Z" fill="#ffcf57"/><path d="M1245,1234c-7.3,5.8-14.2,12.9-17.3,21.9-2.9,8.4-2.1,18.2,3.8,25.1s15.2,9.3,23.6,11.2c4.8,1,9.9,1.6,14.6-.1a23,23,0,0,0,9.4-6.6,25,25,0,0,0,5.2-22.6c-2.4-8.4-9.7-15.5-18.8-15.2-8.8.3-15.7,7.8-14.2,16.7,1.4,7.9,10.4,11.9,17.4,8.1a8,8,0,0,0,3.6-3.9,2.14,2.14,0,0,0-.5-2.7,2,2,0,0,0-2.7.2c-3.7,4.6-11.6,4-13.1-2.2a9.53,9.53,0,0,1,2.2-8.4c2.4-2.7,6.3-3.5,9.8-3,7.4,1.2,12.1,8.6,12.5,15.7a20.9,20.9,0,0,1-7.8,17.1c-6.6,5.1-14.6,3.1-22,1.1-7.2-1.9-14.9-5.1-18.1-12.4-3.1-6.8-1.7-15.1,1.9-21.5,4-7.1,10.4-12.7,16.8-17.6,7.7-5.9,15.9-11.3,22.1-18.9a66.26,66.26,0,0,0,7.4-11.5c0-.2-.1-.3-.1-.5-.2-1-.4-1.9-.7-2.9-.1-.6-.3-1.2-.4-1.8a61.3,61.3,0,0,1-11,16.1C1261.5,1222.72,1252.8,1227.92,1245,1234Z" fill="#ffcf57"/><path d="M1206.4,1219.12c6.4-3.5,13.1-7.7,17.9-13.3a31.6,31.6,0,0,0,4-5.8c5.4,3.3,12.2,4,18.3,3.4,6.7-.7,13.7-3,18.5-8a1.2,1.2,0,0,0-1.4-1.9c-5.5,3.1-11.2,5.8-17.6,6.5-5.8.7-11.4-.3-17-1.7a59.67,59.67,0,0,0,3.6-10c1.7-6.1,3.1-12.5,6.6-17.8a21.33,21.33,0,0,1,8.3-7.2c3.9-2,8.1-2.7,12.2-4.1a1.76,1.76,0,0,0-.9-3.4c-6.6,1.1-13.8,3.6-18.9,8.2a28.41,28.41,0,0,0-5.6,7.3,25.68,25.68,0,0,0-.6-4c-.6-3.9-1.7-7.8-2.5-11.6-1.5-7.2-2-14.6,3-20.6.6-.7.1-2-.9-1.6-7.3,2.7-6.8,13-5.9,19.2.6,4.2,1.7,8.4,2.7,12.5.5,2.2,1,4.5,1.3,6.7l.3,3c.1.6.2,1.1.3,1.7-.3.8-.6,1.6-.9,2.5-1.9,5.7-3.1,11.8-5.7,17.3-2.9,6.3-7.8,10.7-13.4,14.7-3.3,2.3-6.6,4.9-10.3,6.5a10,10,0,0,1-4.8.9l-.3,2.7A14.84,14.84,0,0,0,1206.4,1219.12Z" fill="#ffcf57"/><path d="M1232.9,1089.52a31.88,31.88,0,0,0,4.9,16.7c3.3,5.3,8.7,11.3,15.1,12.4a1.47,1.47,0,0,0,1.1-2.7c-2.3-1.7-4.8-3.1-6.9-5a31,31,0,0,1-5.6-6.4,29.51,29.51,0,0,1-4.7-15.8c0-7.2,2.7-14.2,3.4-21.4a99.53,99.53,0,0,0-.6-22.5c-.1-1.1-.3-2.3-.5-3.4-1.1-3.7-2.2-7.4-3.3-11-.1-.5-.3-1-.4-1.5l-1.5-4.8c2.4,14.2,4.5,28.9,2.6,43.2C1235.8,1074.72,1232.9,1081.92,1232.9,1089.52Z" fill="#ffcf57"/><path d="M1179.4,1372.62a1.27,1.27,0,0,1,.1-.6C1179.5,1372.22,1179.4,1372.42,1179.4,1372.62Z" fill="#ffeecb"/><path d="M1303.8,1342.42h0c-.2-.8-.6-2.7-1.1-5.5h0c-50.2,27.5-103.5,32.2-123,32.9,5.9-56.1,28.9-266.9,43.3-306.6a27,27,0,0,0,1.6-10.9c-1.2-18.4-5.7-71-16.5-91.4,0,0-39.1-15.8-43.1-13.8s-.7,9.1-.7,9.1,37.6,3.2,40.4,13.9,16.6,73.1,10.4,88.7-41.9,297.6-43.1,311.2c-.2,2.1,2.5,3.3,7.2,3.6h8.6a2.77,2.77,0,0,0,.9-.1h.2a2.2,2.2,0,0,0,.8-.1h1.4a1.27,1.27,0,0,0,.6-.1h.4a1.27,1.27,0,0,0,.6-.1h.4a1.7,1.7,0,0,0,.7-.1h.3c.3,0,.7-.1,1-.1h.4c.2,0,.5-.1.7-.1a.6.6,0,0,0,.4-.1c.2,0,.4-.1.7-.1a.9.9,0,0,0,.5-.1c.2,0,.4-.1.7-.1a.9.9,0,0,0,.5-.1c.2,0,.5-.1.7-.1a.6.6,0,0,0,.4-.1c.4,0,.7-.1,1.1-.1h.3c.3,0,.6-.1.8-.1a.9.9,0,0,0,.5-.1c.2,0,.5-.1.7-.1a.9.9,0,0,0,.5-.1c.2,0,.5-.1.7-.1a.9.9,0,0,0,.5-.1c.3,0,.5-.1.8-.1a.6.6,0,0,0,.4-.1c.3-.1.7-.1,1-.2h.2c.4-.1.8-.1,1.2-.2a.6.6,0,0,0,.4-.1c.3,0,.5-.1.8-.1s.3-.1.5-.1.5-.1.8-.1.3-.1.5-.1.5-.1.8-.1.3-.1.5-.1.6-.1.9-.2a.76.76,0,0,0,.4-.1c.4-.1.8-.1,1.3-.2a.6.6,0,0,0,.4-.1c.3-.1.6-.1.9-.2s.3-.1.5-.1.5-.1.8-.2.3-.1.5-.1.5-.1.8-.2.3-.1.5-.1.6-.1.9-.2c.1,0,.3-.1.4-.1l1.3-.3a.37.37,0,0,0,.3-.1c.3-.1.7-.1,1.1-.2.2,0,.3-.1.5-.1s.6-.1.8-.2a4.33,4.33,0,0,0,.5-.1c.3-.1.5-.1.8-.2a4.33,4.33,0,0,0,.5-.1c.3-.1.6-.1.8-.2s.3-.1.5-.1.7-.1,1-.2a.37.37,0,0,0,.3-.1l1.3-.3c.1,0,.3-.1.4-.1.3-.1.6-.1.9-.2a4.33,4.33,0,0,0,.5-.1c.3-.1.6-.1.8-.2a4.33,4.33,0,0,0,.5-.1c.3-.1.6-.1.9-.2s.3-.1.5-.1.6-.1,1-.2c.1,0,.3-.1.4-.1l1.31-.3c.09,0,.19-.1.4-.1a3.48,3.48,0,0,1,1-.2c.19,0,.3-.1.5-.1s.6-.1.9-.2a4.33,4.33,0,0,0,.5-.1c.3-.1.6-.1.8-.2a4.33,4.33,0,0,0,.5-.1c.3-.1.6-.1.9-.2s.3-.1.5-.1l1.2-.3h.1l1.3-.3c.1,0,.3-.1.4-.1a2.92,2.92,0,0,1,.9-.2c.2,0,.3-.1.5-.1s.6-.1.8-.2.3-.1.5-.1.6-.1.9-.2.3-.1.5-.1.7-.2,1-.3c.1,0,.2-.1.3-.1a6.47,6.47,0,0,0,1.3-.4c.1,0,.2-.1.3-.1l1-.3c.2,0,.3-.1.5-.1a2.92,2.92,0,0,1,.9-.2c.2,0,.3-.1.5-.1a3.09,3.09,0,0,1,.8-.2c.2,0,.3-.1.5-.1a2.92,2.92,0,0,1,.9-.2c.1,0,.3-.1.4-.1a6.47,6.47,0,0,0,1.3-.4h.1c.4-.1.8-.2,1.1-.3.1,0,.3-.1.4-.1a2.92,2.92,0,0,1,.9-.2c.2,0,.3-.1.5-.1a2.35,2.35,0,0,1,.8-.2c.2,0,.3-.1.5-.1a3.09,3.09,0,0,1,.8-.2c.1,0,.3-.1.4-.1l1.1-.3c.1,0,.1,0,.2-.1a5.64,5.64,0,0,0,1.2-.4c.1,0,.2-.1.3-.1l.9-.3c.1,0,.3-.1.4-.1a2.35,2.35,0,0,1,.8-.2c.2,0,.3-.1.5-.1a2.35,2.35,0,0,1,.8-.2c.1,0,.3-.1.4-.1l.9-.3c.1,0,.2-.1.3-.1a5.64,5.64,0,0,0,1.2-.4.35.35,0,0,0,.2-.1l.9-.3c.1,0,.3-.1.4-.1a1.85,1.85,0,0,1,.7-.2c.1,0,.3-.1.4-.1a1.85,1.85,0,0,1,.7-.2c.1,0,.3-.1.4-.1.3-.1.5-.2.8-.3.1,0,.2-.1.4-.1a4.87,4.87,0,0,0,1.1-.4h0a4.87,4.87,0,0,0,1.1-.4c.1,0,.2-.1.3-.1s.5-.2.7-.3.3-.1.4-.1a1.45,1.45,0,0,1,.7-.2c.1,0,.3-.1.4-.1a1.45,1.45,0,0,1,.7-.2c.1,0,.2-.1.3-.1.3-.1.5-.2.8-.3.1,0,.1-.1.2-.1a6.89,6.89,0,0,0,1-.4.35.35,0,0,0,.2-.1c.2-.1.5-.2.7-.3s.2-.1.3-.1a1.42,1.42,0,0,1,.6-.2c.1,0,.2-.1.3-.1a1.42,1.42,0,0,1,.6-.2c.1,0,.2-.1.3-.1l.6-.3c.1,0,.2-.1.3-.1a2,2,0,0,0,.8-.4h.1c.2-.1.5-.2.7-.3s.2-.1.3-.1a1.69,1.69,0,0,1,.5-.2c.1,0,.2-.1.3-.1s.3-.2.5-.2.2-.1.3-.1.3-.2.5-.2a.35.35,0,0,0,.2-.1l.6-.3h.1c.2-.1.5-.2.7-.3s.1-.1.2-.1.3-.2.5-.2a.35.35,0,0,0,.2-.1c.1-.1.3-.1.4-.2a.35.35,0,0,0,.2-.1c.1-.1.3-.1.4-.2s.1-.1.2-.1a.76.76,0,0,1,.4-.2.35.35,0,0,1,.2-.1,2.19,2.19,0,0,0,.5-.3.1.1,0,0,0,.1-.1c.1-.1.3-.2.4-.3s.1-.1.2-.1.2-.1.3-.2.1-.1.2-.1.2-.1.3-.2.1-.1.2-.1.2-.1.3-.2l.1-.1c.1-.1.3-.2.4-.3C1303.9,1342.82,1303.8,1342.62,1303.8,1342.42Z" fill="#ffc001"/><path d="M1208.4,961a5,5,0,0,1,.8.7C1208.9,961.52,1208.7,961.22,1208.4,961Z" fill="#ffc001"/><path d="M1257.1,1235.22c3.3,1.5,4.7,5.3,7.2,7.9-3.3.5-6.8,1.1-10,.1-2.1-.6-7.2-4.5-7.2-6C1247,1233.92,1254.7,1234.12,1257.1,1235.22Z" fill="#ffcf57"/><path d="M1219.5,1249.62c-3.3,1.5-4.7,5.3-7.2,7.9,3.3.5,6.8,1.1,10,.1,2.1-.6,7.2-4.5,7.2-6C1229.6,1248.32,1221.9,1248.52,1219.5,1249.62Z" fill="#ffcf57"/><path d="M1235.5,1272.12c3.3,1.4,7.1,0,10.7.1-1.8-2.8-3.8-5.8-6.7-7.5-1.9-1.1-8.1-2.3-9.3-1.3C1227.7,1265.52,1233,1271.12,1235.5,1272.12Z" fill="#ffcf57"/><path d="M1257.6,1325.22c3.4-1.3,5.1-4.9,7.8-7.3-3.3-.8-6.7-1.6-10-.8-2.1.5-7.5,3.9-7.6,5.5C1247.4,1325.82,1255.1,1326.22,1257.6,1325.22Z" fill="#ffcf57"/><path d="M1252.8,1193.52c.9-3.5-1.1-7-1.5-10.6-2.5,2.2-5.2,4.6-6.4,7.7-.8,2-1.1,8.4.1,9.4C1247.4,1202.12,1252.2,1196,1252.8,1193.52Z" fill="#ffcf57"/><path d="M1250,1146.92c.9-3.5,0,0-.5-3.6-2.5,2.2-5.2,4.6-6.4,7.7-.8,2-1.1,8.4.1,9.4C1245.7,1162.52,1249.4,1149.42,1250,1146.92Z" fill="#ffcf57"/><path d="M1255.4,1210.82c2.2,2.8,6.2,3.4,9.3,5.2-.2-3.4-.5-6.9-2.2-9.8-1.1-1.9-6-6-7.5-5.6C1251.8,1201.32,1253.8,1208.72,1255.4,1210.82Z" fill="#ffcf57"/><path d="M1230.7,1111c-2.4,2.7-2.3,6.7-3.6,10.1,3.3-.8,6.7-1.7,9.3-3.8,1.7-1.4,4.9-6.9,4.3-8.4C1239.5,1105.82,1232.5,1109,1230.7,1111Z" fill="#ffcf57"/><path d="M1195.2,969l-1.7,7.4s-6.2,32.5-4.4,36.9c0,0-24.5,12-26,17.9s-9.5,42.9-9.5,42.9-16.2,12.7-10.8,15.2,22.7-9.7,24.2-14.1l10.9-35.7s33.9-2.1,36.3-11.1l1.8-28.7s.5-19.1-4.3-25.9l-.2-3.7-6.5-6.8C1205,963.22,1198,963.42,1195.2,969Z" fill="#f9ae90"/><path d="M1195.3,977a20.48,20.48,0,0,0,11.3-5.3,25.72,25.72,0,0,0,3.3-3.3l-4.9-5.2s-7,.2-9.8,5.8l-1.7,7.4a2.8,2.8,0,0,1-.1.6A12,12,0,0,0,1195.3,977Z" fill="#440235"/><path d="M1204.7,1002a7.75,7.75,0,0,0,3-.7c1.9-1.1,2.4-3.5,2.8-5.6a56.44,56.44,0,0,0,.7-14.2,3.78,3.78,0,0,0-1.2-2.7,2.44,2.44,0,0,0-2.6,0c-.8.5-6.3-2.1-6.8-1.3-2.2,3.7-.2,11.3-.4,15.6l-1.4-.2a2.92,2.92,0,0,1-.9-.2,2.3,2.3,0,0,1-.8-1.7,18.2,18.2,0,0,0-2.5-7.2,10,10,0,0,0-1.9-2.2c-.9,5-2.2,12.9-3,19.6A50.14,50.14,0,0,0,1204.7,1002Z" fill="#440235"/><path d="M1211.3,1012.62a9.69,9.69,0,0,0,4-1.8l.7-11.2v-4.4a27.45,27.45,0,0,1-26.4,5.8,86.33,86.33,0,0,0-.7,8.9,87.45,87.45,0,0,0,8.8,2.3C1202.2,1013.22,1206.8,1013.72,1211.3,1012.62Z" fill="#440235"/><path d="M1213.9,1019.62a58.78,58.78,0,0,1-7.6,5.5,19.37,19.37,0,0,1-5,2,1.1,1.1,0,0,1-.8,0c-.3-.1-.4-.4-.6-.6-1.3-1.6-4.4-5.1-6.4-5.2-4.6-.2-3.8,4.3-5.5,5.6-2.1,1.6-3.3,5.2-5.8,5.9-1.8.5-3.7.7-5,2.1-.4.4-.6.9-1,1.2a5.85,5.85,0,0,1-1.7,1,69.36,69.36,0,0,1-13.5,3.8c-2.9,12.9-7.2,33.2-7.2,33.2s-16.2,12.7-10.8,15.2,22.7-9.7,24.2-14.1l10.9-35.7s33.9-2.1,36.3-11.1l.6-9.5A5.25,5.25,0,0,0,1213.9,1019.62Z" fill="#440235"/><path d="M1180,1041.12a13,13,0,0,1,2.3-4.9,19.4,19.4,0,0,1,2.6-2.3c3.6-3.1,5.6-7.5,7.4-11.8a3,3,0,0,1,2.6,1.6,3.33,3.33,0,0,1-.2,3.2c-.8,1.3-.7,2.7-1.4,4.1a6.53,6.53,0,0,0-.8,4.5c3.3.1,6.3-1.2,9.4-2.3a25.44,25.44,0,0,0,3.8-1.6c2.4-1.4,4.2-3.7,5.9-5.9a6,6,0,0,1,1.7-3.7,14.6,14.6,0,0,1,3.4-2.6c.2-.1.5.2.5.4a7.81,7.81,0,0,1-1.9,4.8c-.7.8-.7,2.8-1.1,3.8a7.2,7.2,0,0,1,4.1-4.1,13.46,13.46,0,0,1-3,7.4c.9-.8,2.3-.2,3.5-.3a3,3,0,0,1-.8,2.3c-1.2,1.7-2.3,3.3-3.5,5-6.1,8.8-14.8,14.1-25.5,14.6a9.67,9.67,0,0,1-5.1-.8,7.68,7.68,0,0,1-3.5-4.9C1180,1045.42,1179.4,1043.12,1180,1041.12Z" fill="#f9ae90"/><path d="M1181.5,1037.12a17.6,17.6,0,0,0-1.6,4c-.6,2,0,4.3.6,6.3a8,8,0,0,0,3.5,4.9,9.83,9.83,0,0,0,5.1.8c1.4-.1,2.7-.2,4-.4A25.47,25.47,0,0,1,1181.5,1037.12Z" fill="#440235"/><path d="M1098,1053.42l82.3-14.3,3.9,14.7s-42.4,28.2-85.2,34.5Z" fill="#ec5946"/><path d="M1098,1053.42l1.1,34.8a169,169,0,0,0,23.4-5.4,256.11,256.11,0,0,1-15.5-31Z" fill="#440235"/><path d="M1149.7,1071.82a6.62,6.62,0,0,0-2.8-.1,18.29,18.29,0,0,1-3.3-.2,19.5,19.5,0,0,1-6.2-2.4,64.13,64.13,0,0,1-7.7-5.1,28,28,0,0,0,4.1-1.3,29.72,29.72,0,0,1,3.9-1.3c.6-.1,1.2-.2,1.7-.3,4.5,2,9.6-1.9,10.5-6.5a1.43,1.43,0,0,0-1.5-1.7,1.21,1.21,0,0,0-1,.1,19.18,19.18,0,0,0-7.4,5.2.76.76,0,0,1-.4.2c-1.9-.1-4.2,1-5.7,1.5a45.1,45.1,0,0,1-6.4,2.6c-6.1-4.5-12.4-9.2-20-10.8-1.2-.3-1.8,1.6-.5,1.9,8.2,2,14.5,7.8,21,12.8.3.2.5.4.8.6a25.13,25.13,0,0,0-3.1,2.6,8.14,8.14,0,0,0-1.8,4.5l-.1.1a15.52,15.52,0,0,0-3.7,6,.86.86,0,0,0,.6,1.1,4.83,4.83,0,0,0,4.8-2.1c1-1.4,1.7-3.9.8-5.5a1.16,1.16,0,0,0-.7-.5,7.76,7.76,0,0,1,2.7-4,17.38,17.38,0,0,0,1.5-1.3,42.63,42.63,0,0,0,8.7,5.2,19.63,19.63,0,0,0,6.3,1.7c1.9.2,4.3.2,5.5-1.4A1.08,1.08,0,0,0,1149.7,1071.82Z" fill="#ffc001"/><path d="M1173.4,1054c-1.5-.1-2.9.5-4.4.4a15.53,15.53,0,0,1-3.6-.8,11.34,11.34,0,0,0,4.6-4.1c.4-.5.2-1.5-.6-1.4-2.4.3-6.2,1.3-7.5,3.7-2.2-1.3-4.2-2.9-6.4-4.1a23.67,23.67,0,0,0-8.6-2.5c-3-.3-6.7-.3-9.3,1.2a.34.34,0,0,0,.1.6c3.3.6,6.7-.2,10,.3a21.6,21.6,0,0,1,8.9,3.5c-1.7,3.3,0,7.9,2,10.6a1,1,0,0,0,1.9-.3,16.4,16.4,0,0,0-.6-8.2,21.47,21.47,0,0,0,6.3,3c2.3.6,6.2,1.1,7.7-1.2C1174.2,1054.42,1173.9,1054,1173.4,1054Z" fill="#ffc001"/><path d="M1106,949.42l-19.4,10.5s12.5,88.7,32.8,149,64.9,263.7,64.9,263.7-117.1,30.8-200.3-35.4c0,0,59.6-309,69.3-330.9s22.8-61.9,53-60.3Z" fill="#ffeecb"/><path d="M1134.6,1340.92c0,11.3,20,20.5,44.6,20.5h2.5c-2-9.2-5.2-23.5-9.2-40.8C1151.1,1322.12,1134.6,1330.62,1134.6,1340.92Z" fill="#b7996c"/><path d="M1119.3,1108.92c-20.2-60.3-32.8-149-32.8-149l19.4-10.5.2-3.3c-10-.5-18.1,3.5-24.9,9.9.4,6,2.2,20.2,8.3,53.7,10.2,56.2,76.2,312.1,86.8,353.2a5.7,5.7,0,0,1-4.3,7c-22.3,5.1-119.7,15.9-187.2-39.1-.6,4.1-.9,6.4-.9,6.4,83.2,66.2,200.3,35.4,200.3,35.4S1139.5,1169.22,1119.3,1108.92Z" fill="#ffc001"/><path d="M1086.4,1030c-2.7-13.1-12.1-23.6-15.5-36.4a23.62,23.62,0,0,1-.2-12.1,47,47,0,0,1,4.4-10.9c.4-.7-.7-1.4-1.1-.7-3.6,5.6-7.2,10.9-7.2,17.8,0,6.7,2.6,13.3,5.5,19.3,1.6,3.3,3.4,6.6,5,10a19,19,0,0,1-4.8,16.4c-3.2,3.5-9.4,7.7-8.8,13.1a1.39,1.39,0,0,0,2.7.4,20.83,20.83,0,0,1,4.5-7.2,54.22,54.22,0,0,0,6-6.7,16.78,16.78,0,0,0,2.8-10.8c2.5,5.9,4.1,12.1,3.4,18.8a22.22,22.22,0,0,1-2.3,7.7c-1.3,2.5-3.8,4.2-4.8,6.7a1.25,1.25,0,0,0,1.2,1.6c2.7-.1,4.5-2.3,5.9-4.4a23.57,23.57,0,0,0,3.2-6.8A38.23,38.23,0,0,0,1086.4,1030Z" fill="#ffcf57"/><path d="M1044,1091.82c-2.1-3.1-1.4-7.6-2.1-11.4,3.3,1.1,6.7,2.3,9.1,4.9,1.5,1.7,4,8,3.2,9.6C1052.3,1098.12,1045.5,1094.12,1044,1091.82Z" fill="#ffcf57"/><path d="M1060.1,1051.72c-3.6,1-7.6-1.1-11.5-1.6,2.1-2.8,4.3-5.6,7.5-7.1,2.1-.9,8.8-1.2,10.1,0C1068.7,1045.82,1062.8,1051,1060.1,1051.72Z" fill="#ffcf57"/><path d="M1060.5,1111.52c2.8-2.5,3.2-7,4.9-10.5-3.5.3-7.1.6-10,2.5-1.9,1.2-5.8,6.8-5.4,8.5C1050.9,1115.62,1058.4,1113.42,1060.5,1111.52Z" fill="#ffcf57"/><path d="M1070.5,1147.52c.2-4.1,3.5-7.3,5.1-11,2,3.3,4.1,6.7,4.5,10.5.2,2.5-1.6,9.5-3.2,10.2C1073.6,1158.62,1070.4,1150.52,1070.5,1147.52Z" fill="#ffcf57"/><path d="M1070.5,1099.12c.3-4.1,3.7-7.2,5.4-10.9,1.9,3.3,3.9,6.8,4.2,10.6.2,2.5-1.8,9.4-3.5,10.1C1073.3,1110.42,1070.3,1102.12,1070.5,1099.12Z" fill="#ffcf57"/><path d="M1099,1199.92c3.1,1.9,4.1,5.8,6.3,8.7-3.4.2-6.9.3-10-1.1-2-.9-6.6-5.3-6.5-6.8C1089.1,1197.52,1096.8,1198.52,1099,1199.92Z" fill="#ffcf57"/><path d="M1125.6,1256.42c2.9-2.1,6.9-1.5,10.4-2.3-1.2,3.2-2.5,6.4-5,8.7-1.6,1.5-7.5,4-8.8,3.2C1119.4,1264.42,1123.5,1257.92,1125.6,1256.42Z" fill="#ffcf57"/><path d="M1115.8,1284.22c-2.9-2.1-6.9-1.5-10.4-2.3,1.2,3.2,2.5,6.4,5,8.7,1.6,1.5,7.5,4,8.8,3.2C1122,1292.32,1117.9,1285.72,1115.8,1284.22Z" fill="#ffcf57"/><path d="M1110.9,1188.42c2.1,1.3,2.9,4,4.4,6-2.4.1-4.8.2-7-.7-1.4-.6-4.6-3.7-4.5-4.8C1104.1,1186.72,1109.4,1187.42,1110.9,1188.42Z" fill="#ffcf57"/><path d="M1094.7,1154.72c2.1,1.3,2.9,4,4.4,6-2.4.1-4.8.2-7-.7-1.4-.6-4.6-3.7-4.5-4.8C1087.8,1153,1093.1,1153.82,1094.7,1154.72Z" fill="#ffcf57"/><path d="M1071.5,1119.22c2.1,1.3,2.9,4,4.4,6-2.4.1-4.8.2-7-.7-1.4-.6-4.6-3.7-4.5-4.8C1064.6,1117.42,1069.9,1118.22,1071.5,1119.22Z" fill="#ffcf57"/><path d="M1112.7,905.32c.6,9.1,6.5,17.8,4.6,26.8-1,4.7-4.3,9.1-3.9,13.9a12,12,0,0,0,4.7,8.3,23.65,23.65,0,0,0,8.7,4.3,53.87,53.87,0,0,0,37.7-2.4,15.34,15.34,0,0,0,4.4-2.7c3.6-3.2,4.6-8.6,3.5-13.3s-4.1-8.7-7.4-12.2c-1-1-2-2.2-1.8-3.6.2-1.6,2-2.4,3.4-3.3,3.6-2.2,5.5-7.5,3-10.8-1.9-2.5-5.8-3.9-5.7-7,0-1.6,1.3-2.9,2.3-4.2s1.9-3,1.2-4.5-2.4-1.8-3.9-2.4c-3.9-1.6-6.4-5.3-9.5-8a23.54,23.54,0,0,0-19.1-5.4c-7,1.2-10.7,5.5-15.7,9.9S1112.2,898.92,1112.7,905.32Z" fill="#440235"/><path d="M1168.8,953.42c3.6-3.2,4.6-8.6,3.5-13.3s-4.1-8.7-7.4-12.2c-1-1-2-2.2-1.8-3.6.2-1.6,2-2.4,3.4-3.3,3.6-2.2,5.5-7.5,3-10.8-1.9-2.5-5.8-3.9-5.7-7,0-1.6,1.3-2.9,2.3-4.2s1.9-3,1.2-4.5-2.4-1.8-3.9-2.4c-3.3-1.3-5.6-4.2-8.2-6.8a12.72,12.72,0,0,0,.8,13.4c1.5,2.1,3.9,4,3.7,6.6-.1,1.7-1.3,3-2.3,4.3-1.2,1.5-2.3,3.4-2.1,5.3.3,2.9,3.2,4.9,3.6,7.8.5,3.7-3.4,6.7-3.5,10.4s3.4,6.5,4.3,10.1c1.2,4.7-2.3,9.6-1.1,14.2.1.2.1.5.2.7a49.18,49.18,0,0,0,6-2.3A11.48,11.48,0,0,0,1168.8,953.42Z" fill="#2d3e51"/><path d="M1129.5,920v17.9l-31.3,18.9s42.7,32.1,41.3,32.1,37.7-38.3,36.8-38.3-35.9-11.8-35.9-11.8v-22.7Z" fill="#f9ae90"/><path d="M1176.3,950.62c-.5,0-8.7-3.8-20-7.1-6.7,8.9-13.4,17.8-20.2,26.7-2.5,3.3-4.9,6.5-7.6,9.7,5.9,4.6,10.5,8.2,10.9,8.9C1140.8,986.62,1177.2,950.62,1176.3,950.62Z" fill="#440235"/><polygon points="1108.5 944.32 1139.5 988.92 1132.8 990.82 1089.5 958.42 1108.5 944.32" fill="#ffc001"/><polygon points="1159.3 943.42 1129.5 992.02 1135.9 996.72 1180.3 948.72 1159.3 943.42" fill="#ffc001"/><path d="M1159.3,943.42,1129.4,992l4,2.9a17.89,17.89,0,0,0,4.7-4.8,54.35,54.35,0,0,0,7-13.8,33.91,33.91,0,0,1,2-5.3,36.56,36.56,0,0,1,3.1-4.9c3.7-5.2,7.5-10.4,11.2-15.6a2,2,0,0,1,.8-.8,2.23,2.23,0,0,1,1.4,0c4.2.8,15.3,2.4,19.3,4l-2.6-5.1Z" fill="#aa6304"/><path d="M1140.4,928.72V916l-11,3.9v9.2A19,19,0,0,0,1140.4,928.72Z" fill="#440235"/><path d="M1121.9,893.92s-2.9,30.9,12.8,30.4,16-12.7,15.3-32l-6.2-11.6C1143.8,880.62,1125.1,885.82,1121.9,893.92Z" fill="#f9ae90"/><path d="M1143.8,880.62s-18.6,5.2-21.9,13.2c0,0-.2,2.6-.2,6.4a7.53,7.53,0,0,0,2.9-.6c1.3-.5,2.7-1.1,4-1.6s2.7-1.1,4-1.8a24.29,24.29,0,0,0,9.4-8.6,17,17,0,0,0,8.1,8.2c0-1.2-.1-2.4-.1-3.6Z" fill="#440235"/><path d="M1148.7,869.62c-4.7-.6-4.6.8-4.6.8s-2.1-3.8-4.6-3.5c-7.7,1-14.7,4.4-21.1,8.7a32.62,32.62,0,0,0-7.4,6.5c-.7.8-1.3,1.9-.8,2.9a8.79,8.79,0,0,1,.6,1c.6,1.3-.6,2.7-1.7,3.7a34.14,34.14,0,0,0-5.3,6.1,8.45,8.45,0,0,0-1.6,3.3,3.35,3.35,0,0,0,1.1,3.3c1.2.9,3.2.7,4.1,2s-.1,3.2-1.2,4.4-2.5,2.7-2.1,4.3c.3,1.3,1.7,2,3,2.4a11.28,11.28,0,0,1,2.4.8v.5l.2-.4a2.84,2.84,0,0,1,1.1.8c-2.9,4.8-5.6,9-8.5,13.8-2.5,4.3-5.2,9.1-4.2,13.9.7,3.2,2.9,5.8,4.1,8.8,1.7,4,1.6,8.5.9,12.8s-2.2,8.4-3.3,12.5a23.3,23.3,0,0,0-.9,8.7c1.1,7,8.2,11.9,15.3,12s13.7-3.7,18.6-8.8c3.4-3.5,6.2-8,6.3-12.9,0-7-5.5-12.5-10.1-17.7a114.88,114.88,0,0,1-7.4-9.5c-2.4-3.6-4.7-8-3.1-12s6.7-6,8.4-10c1.4-3.4.1-7.2-1.5-10.5s-3.5-6.7-3.3-10.3c.2-3.3,2.1-6.3,2.6-9.6a9.64,9.64,0,0,0,0-2.4c6-2.3,14.2-6.4,18.4-12.3,0,0,3.8,12.6,15.1,15.7,0,0,9.9-2.5,9.8-6.3C1167.7,889.32,1153.4,870.22,1148.7,869.62Z" fill="#2d3e51"/><path d="M1109.3,926.42c2-2.7,4.5-5.4,5.8-8.5,1-2.3.9-5.5-1.7-6.7-1.2-.5-3.3-.4-4-1.6-.9-1.4,1.1-2.9,1.9-3.9,1.7-2.4.3-4-1.8-5.3a6.48,6.48,0,0,1-2-1.7c-.8-1.5.2-3.1,1-4.4a19.4,19.4,0,0,1,5.2-5.1c.2-.1,0-.3-.1-.3-2.8,1.5-6.2,4.4-7,7.7-.8,3.1,2.1,3.8,3.9,5.5,2.7,2.6-2.5,4.4-2.1,7.2a2.56,2.56,0,0,0,1.6,1.9c1.9.8,4,.5,4.7,2.9,1.2,3.7-3.1,8.1-5.1,10.8-2.2,2.9-4.5,5.9-5.7,9.4a16.9,16.9,0,0,0,.3,11.1c1.5,4.3,4.2,8.4,4.4,13.1.2,8.2-6.5,17.8-.6,25.4.3.3.9-.1.6-.5-5-7.1.2-15.5.8-23,.7-8.7-7.2-15.6-5.2-24.4C1105.1,932.32,1107.2,929.32,1109.3,926.42Z" fill="#46627c"/><path d="M1119,913.42c-.5-2-1.8-3.2-3.1-4.6-2.4-2.6,0-3.8.8-6.3.6-1.9-.9-2.8-2.1-4a4.38,4.38,0,0,1,2.7-7.6.15.15,0,1,0,0-.3,4.86,4.86,0,0,0-3.6,8.1c1.2,1.3,3.1,2.2,2,4.3a14.28,14.28,0,0,0-1.5,2.7c-.6,1.9.8,3.2,2.1,4.5,5,5,1.3,11.8-2.1,16.5-3,4.1-7,9.6-5.1,15,.2.4.8.3.7-.2-1.3-6.4,2.7-11,6.1-15.9C1118.1,922.12,1120.2,917.82,1119,913.42Z" fill="#46627c"/><path d="M1122.5,918.72c-.6-4.3-3.2-8.8-2.2-13.2.5-1.9,1.8-3.4,1.4-5.4-.3-1.7-2.9-6.7.7-6.9.2,0,.2-.2,0-.3a2.39,2.39,0,0,0-2.5,2.1c-.5,2.1,1.1,3.9,1.1,5.9,0,1.5-1.1,2.7-1.5,4.1a8.92,8.92,0,0,0-.3,2.8,26,26,0,0,0,1.4,6.6,18,18,0,0,1,1.1,7.3,15.47,15.47,0,0,1-2.7,6.8c-2.1,3.4-4.8,6.7-5,10.9,0,.3.6.4.6.1C1115.9,931.82,1123.7,926.82,1122.5,918.72Z" fill="#46627c"/><path d="M1140.9,877.72c-.9,1.3-1.6,2.7-2.5,4a23,23,0,0,1-3.5,4.1,28.53,28.53,0,0,1-8.5,5.6c-.1,0,0,.2.1.2a26,26,0,0,0,8.9-5.3c2.4-2.2,5.2-5.3,6-8.5C1141.4,877.72,1141,877.52,1140.9,877.72Z" fill="#46627c"/><path d="M1138.4,875.32a40.21,40.21,0,0,0-3.4,3.8,37,37,0,0,1-4.2,3.7,33.77,33.77,0,0,1-9.6,5c-.3.1-.2.6.1.5a36.69,36.69,0,0,0,10.3-5.1,36.22,36.22,0,0,0,4.2-3.6,14.85,14.85,0,0,0,3.1-4C1139.1,875.22,1138.6,875.12,1138.4,875.32Z" fill="#46627c"/><path d="M1136.4,871.92c-1.5,1.2-2.7,2.8-4.2,4.1a36.8,36.8,0,0,1-5.1,3.7c-1.6,1-3.2,1.9-4.9,2.8-2.2,1.2-4.5,2.7-7.1,2.8-.1,0-.1.2,0,.2a16.11,16.11,0,0,0,5.9-1.8c2.1-1,4.2-2.1,6.2-3.3a46.65,46.65,0,0,0,5.1-3.6,16.83,16.83,0,0,0,4.4-4.8C1136.9,872,1136.6,871.82,1136.4,871.92Z" fill="#46627c"/><path d="M1136.5,868.82c-4,1.5-7.7,4-11.3,6.4-1.8,1.2-3.6,2.5-5.4,3.8s-3.3,2.8-5.5,3.2c-.1,0-.1.2,0,.2a8.28,8.28,0,0,0,4.3-1.8c1.9-1.4,3.9-2.7,5.8-4.1,3.9-2.6,8.2-4.7,12.1-7.3C1136.9,869.12,1136.8,868.72,1136.5,868.82Z" fill="#46627c"/><path d="M1161,895.22c-6.8-1.7-14.2-6.1-15.5-13.6a.26.26,0,0,0-.5.1,15.16,15.16,0,0,0,5.8,9.4c2.5,2,6.7,5,10.1,4.5C1161.2,895.62,1161.3,895.32,1161,895.22Z" fill="#46627c"/><path d="M1161.7,892c-.6.4-3.5-1.1-4.1-1.3a19,19,0,0,1-4-2.1,13.75,13.75,0,0,1-5.9-7.3c-.1-.3-.6-.2-.5.1a14.43,14.43,0,0,0,5.6,7.5,25.51,25.51,0,0,0,4.6,2.5c1.2.5,3.1,1.6,4.5,1.3a.22.22,0,0,0,.2-.2c0-.1,0-.2.1-.2C1162.1,892.12,1161.9,891.92,1161.7,892Z" fill="#46627c"/><path d="M1161.9,888.52h-.2c-.1,0-.2,0-.2.1a.22.22,0,0,0-.2-.2,11.11,11.11,0,0,1-1.6-.7c-.7-.3-1.5-.7-2.2-1a35.75,35.75,0,0,1-4.2-2.5,19.56,19.56,0,0,1-6.2-7.2c-.1-.3-.5,0-.4.2,2.7,6,8.7,10.2,14.9,12.2.2.1.4-.1.5-.3v-.2A.52.52,0,0,0,1161.9,888.52Z" fill="#46627c"/><path d="M1162,885c-2.3-1.3-4.7-2.3-7-3.7a36.74,36.74,0,0,1-6.5-5.3.21.21,0,1,0-.3.3c3.6,3.8,8.4,7.8,13.6,9.1C1162.1,885.52,1162.3,885.12,1162,885Z" fill="#46627c"/><path d="M1159.1,929c1.1-3.1,3.6-5.3,2.6-8.9-.5-1.8-2-3.2-2.5-5-.7-2.1.8-4,1.6-5.8a11.29,11.29,0,0,0-.5-9.5c-.1-.2-.3,0-.3.2a10.31,10.31,0,0,1,.8,6.7c-.4,1.9-1.5,3.5-2.2,5.3-1.4,3.6,1.6,5.4,2.3,8.6.8,3.8-2.7,6.1-3.1,9.6-.4,3.2,2,6.2,2.7,9.2a.36.36,0,0,0,.7-.1C1161.2,935.72,1157.7,932.72,1159.1,929Z" fill="#46627c"/><path d="M1164.9,914.82a13.89,13.89,0,0,0-1-2.6,5.63,5.63,0,0,1-.2-5.2c.1-.1-.1-.3-.2-.2a5.26,5.26,0,0,0-.6,5,20.82,20.82,0,0,1,1.2,3.2c.3,1.7-.4,3-1,4.5a.3.3,0,0,0,.5.3A5.17,5.17,0,0,0,1164.9,914.82Z" fill="#46627c"/><path d="M1166.4,937.52c-2.1-2.7-4.6-5.3-3.9-9.1,0-.1-.2-.2-.2-.1a8.68,8.68,0,0,0,1,6.5,30.13,30.13,0,0,0,2.2,2.8,7.87,7.87,0,0,1,1.9,5.5.26.26,0,0,0,.5.1C1168.8,941.32,1167.6,939.12,1166.4,937.52Z" fill="#46627c"/><path d="M1125.7,984.42c-3.3,2.8-7.8.9-9.7-2.6-2-3.7-1.4-8.1-1.4-12.1.1-8.1-2.4-16.3-5.9-23.5-.1-.1-.3,0-.2.1,1.4,4.9,3.4,9.6,4.4,14.6a41.5,41.5,0,0,1,.8,7.9c0,2.5-.3,5.1-.1,7.6.2,3.4,1.4,7.2,4.3,9.2,2.5,1.7,6.2,1.8,8.2-.7C1126.4,984.52,1126,984.12,1125.7,984.42Z" fill="#46627c"/><path d="M1131.8,977.52c-3.2-.4-6-1.1-8.2-3.6-2.6-3-2.3-6.4-2.8-10-.9-6.6-6.3-12.4-5.3-19.3,0-.3-.4-.4-.4-.1-.6,3.6.3,6.8,1.7,10.1,1.6,4,3.1,7.6,3.3,11.9.2,3.4.9,6.4,3.5,8.8,2.1,2,5.3,3.6,8.3,2.9A.43.43,0,0,0,1131.8,977.52Z" fill="#46627c"/><path d="M1228.2,1332.12c1.2,13.1-23.2,23.8-51.8,23.8s-51.8-10.7-51.8-23.8,23.2-23.4,51.8-23.8C1204.7,1307.82,1226.7,1316.52,1228.2,1332.12Z" fill="#ff9e03"/><ellipse cx="1176.3" cy="1330.12" rx="44.6" ry="20.5" fill="#b76f08"/><ellipse cx="1176.3" cy="1332.12" rx="44.6" ry="20.5" fill="#ffc001"/><path d="M1209.3,1318.32c-3.4,3.2-7,6.2-10.6,9.1a61.38,61.38,0,0,1-12.1,8.2c-6.7,3.3-14.2,4.4-21.7,5a168.59,168.59,0,0,1-29.3-.2c7,7.2,22.6,12.1,40.7,12.1,24.6,0,44.6-9.2,44.6-20.5C1220.9,1326.72,1216.5,1321.92,1209.3,1318.32Z" fill="#e5a403"/><path d="M1181.6,948.52s-5.8,13.8,4.9,22.2,20.6-2.4,22.1-6.6c0,0,8.7,1.1,9.5-6.4s-8.3-4.6-8.3-4.6.8-8.3-5.6-9.9S1183,942.12,1181.6,948.52Z" fill="#f9ae90"/><path d="M1181.3,956.42a8.14,8.14,0,0,0,3.1-1.8c.2,1.2,1.7,1.7,2.9,1.4,1.7-.4,3-1.8,4.1-3.1a4.78,4.78,0,0,0,4.3,2.2,17.13,17.13,0,0,0,4.9-1.4,2.29,2.29,0,0,0,2.7,1.6,6,6,0,0,0-.1,2.3,1.93,1.93,0,0,0,1.4,1.7,2.4,2.4,0,0,0,2.1-.6,7.49,7.49,0,0,0,1.3-1.8,18.57,18.57,0,0,1,3.3-4.1c-.8.2-1.3.3-1.3.3s.8-8.3-5.6-9.9-21.2-1-22.7,5.3a24,24,0,0,0-1.6,8.1A5,5,0,0,0,1181.3,956.42Z" fill="#440235"/><path d="M1177.3,952a3.15,3.15,0,0,0,1.3,1.7,3.66,3.66,0,0,0,2.6.8,5.31,5.31,0,0,0,1.7-.8,18.39,18.39,0,0,0,2.2-1.7c.2.5.6.7,1.2.9a3.26,3.26,0,0,0,1.7,0,11.23,11.23,0,0,0,4-2.5,3,3,0,0,0,1.7,1.8,8.08,8.08,0,0,0,7.4-.6c-.1.7,1.1,1.2,1.7,1.5a5.11,5.11,0,0,0,3,.3,14.19,14.19,0,0,0-1,2.9,3.75,3.75,0,0,0,.7,2.9,2.33,2.33,0,0,0,2.7.7,3.36,3.36,0,0,0,1.4-2.5c.4-1.3.7-2.6,1.1-3.9,1.5.4,3.6-.8,4.4-2.2a5.9,5.9,0,0,0,.1-4.7,3.71,3.71,0,0,1-.4-1.4,5,5,0,0,1,.2-1.2,6.13,6.13,0,0,0-4.6-6.7c-1.5-.3-3.3-.1-4.5-1.1a11.27,11.27,0,0,1-1.2-1.8,5.61,5.61,0,0,0-3.8-2.1,7.85,7.85,0,0,0-4.3.7,1.64,1.64,0,0,1-1,.2,1.91,1.91,0,0,1-.8-.3,17.35,17.35,0,0,0-4.9-1.5,5.31,5.31,0,0,0-3.3.3c-1.5.8-2,2.6-3.4,3.6s-3.2,1-3.8,2.4.6,3.2-.1,4.6a3.33,3.33,0,0,1-1.4,1.2,10.35,10.35,0,0,0-2.7,2.4C1174.1,947.52,1175.8,950.62,1177.3,952Z" fill="#2d3e51"/><path d="M1211.5,959.62a.37.37,0,0,1-.3-.1c-.1-.1-.1-.2-.2-.3a3.85,3.85,0,0,1,.2-2.6,2.74,2.74,0,0,1,1.9-1.6,2.25,2.25,0,0,1,2.3.9,3.71,3.71,0,0,1,.4,1.5,4.3,4.3,0,0,1,0,1.6,3.71,3.71,0,0,1-2.5,2.9c-.6.2-2.8.4-2.6-.5C1211,961.12,1212.8,960,1211.5,959.62Z" fill="#440235"/><path d="M1183,949.22c-1.1.1-2.9.5-3.5-.6s.2-2.7.9-3.7c.3-.4-.4-.9-.7-.5-.9,1.2-2.1,3.5-1.1,5s3.3,1.2,4.6.5A.38.38,0,0,0,1183,949.22Z" fill="#46627c"/><path d="M1192.9,943.62c-1.5,1.4-5.2,5.9-7.3,2.9-.3-.4-1-.1-.7.4.9,1.6,2.8,1.8,4.4,1.1s4.2-2.3,4.3-4.2C1193.6,943.52,1193.1,943.42,1192.9,943.62Z" fill="#46627c"/><path d="M1191.5,940.82c-.5.6-.9,1.2-1.4,1.7s.3,1.1.6.6a8.74,8.74,0,0,0,.8-1,10.91,10.91,0,0,0,.6-1.1C1192.2,940.82,1191.7,940.52,1191.5,940.82Z" fill="#46627c"/><path d="M1202.9,946.32a6.67,6.67,0,0,1-2.5,2.5,4.53,4.53,0,0,1-4.7-.7c-.5-.4-1.2.3-.7.7,2.7,2.4,8.1,1.8,8.6-2.4C1203.7,946.12,1203.1,946,1202.9,946.32Z" fill="#46627c"/><path d="M1208.4,947.62a3.82,3.82,0,0,1-3.1.7.26.26,0,1,0-.1.5,3.21,3.21,0,0,0,3.7-.7C1209.1,947.92,1208.8,947.42,1208.4,947.62Z" fill="#46627c"/><path d="M1192.8,939.12c-1.6-.2-3.8-.3-4.3-2.1-.2-.5-1-.3-.8.2.6,2.2,3,2.7,5.1,2.5C1193,939.72,1193.1,939.22,1192.8,939.12Z" fill="#46627c"/><path d="M1204,940.62a4.53,4.53,0,0,1-3-1c-.4-.3-.9.2-.5.5a3.49,3.49,0,0,0,3.7,1C1204.3,941,1204.2,940.62,1204,940.62Z" fill="#46627c"/><path d="M1210.4,940.22c-1-.4-1.9-.6-2.5-1.6a.47.47,0,0,0-.8.5c.6,1.1,2,2.2,3.3,1.8C1210.7,940.72,1210.7,940.32,1210.4,940.22Z" fill="#46627c"/><path d="M1193.6,970.72a15.08,15.08,0,0,0-2.7,4.6l-4.5,10.2a5.07,5.07,0,0,1-.9,1.6,4.72,4.72,0,0,1-2,1,133.61,133.61,0,0,1-18.7,4.4,21.81,21.81,0,0,0-4.4,1.1,5.9,5.9,0,0,0-3.3,3.1,6.47,6.47,0,0,0-.3,3.1,5.88,5.88,0,0,0,2.8,4.7c1.7.9,3.9.5,5.8.1a246.75,246.75,0,0,0,24.8-8,5.61,5.61,0,0,0,2.5-1.4,6.18,6.18,0,0,0,1.3-2.4,161,161,0,0,0,5.9-18.2c.3-1.3,1.4-5.7-.6-6.3-.5-.2-1.7.6-2.2.8A5.69,5.69,0,0,0,1193.6,970.72Z" fill="#f9ae90"/><circle cx="1178.7" cy="998.62" r="18.9" fill="#4da8bb"/><path d="M1174.6,981.62a16,16,0,0,1,1,2.3c.1.2.2.5,0,.7s-.5.3-.8.3a6.81,6.81,0,0,0-2.8.7,2.47,2.47,0,0,0-1.4,2.3c.1.9,1.1,1.1,1.9.7,0,1.4,2,1.8,3.2,1.2s2.1-1.9,3.4-2.3c2.5-.8,5.4,1.6,7.8.5.8-.4,1.4-1.1,2.2-1.5a4.56,4.56,0,0,1,4.1.1,18.9,18.9,0,0,0-18.7-6.4c-.1,0-.3.1-.4.1v.1A6.12,6.12,0,0,0,1174.6,981.62Z" fill="#2d3e51"/><path d="M1192.8,1002.72a6.12,6.12,0,0,1-1.2.5,5.08,5.08,0,0,1-1.7-.3,12.72,12.72,0,0,0-3.9-.6c-1.1,0-2.3.2-3.3-.4a11.37,11.37,0,0,1-1.6-1.5,7.5,7.5,0,0,0-3.5-2.2,4.22,4.22,0,0,0-3.8.3c-1.1.8-1.4,2.6-.4,3.4.6.5,1.5.6,2.2,1.1a6.61,6.61,0,0,1,1.3,2.5,5.25,5.25,0,0,0,5.3,3,3.81,3.81,0,0,1-2.1,3.3l.7.7a2.24,2.24,0,0,0-1.9,2.1,2.2,2.2,0,0,1-.1.8,1,1,0,0,1-.5.6,6.25,6.25,0,0,1-2,1.3,17.91,17.91,0,0,0,6.5-.3,18.87,18.87,0,0,0,14.7-19.6A11,11,0,0,1,1192.8,1002.72Z" fill="#2d3e51"/><path d="M1167.7,1012.52a2,2,0,0,0,.1-2.1,6.09,6.09,0,0,0-1.6-1.6c1-.1,1.4-1.5,1-2.4a7.35,7.35,0,0,0-2.2-2.1c-.8-.6-1.3-1.1-1.2-2.1.6-.4.4-1.4-.1-1.9s-1.1-.9-1.6-1.5c-.3-.4-.4-.8-.7-1.2a3.76,3.76,0,0,0-1.4-1.4,17.91,17.91,0,0,0,.3,6.5,18.9,18.9,0,0,0,6.5,10.5A3.11,3.11,0,0,0,1167.7,1012.52Z" fill="#2d3e51"/><path d="M1211.5,970.12c-1.3-2.8-6.7,0-9.3,4s1.4,22.6,1.4,22.6-13.1-1.9-21.9-1.4a7,7,0,0,0-.9-1.7,9.27,9.27,0,0,0-1.4-1.4,1,1,0,0,0-1.6,1.3,10.41,10.41,0,0,1,.6,1.6c.1.2.1.4.2.5a16.31,16.31,0,0,0-2.8.7c-.2-.1-.5-.3-.7-.4a5.78,5.78,0,0,1-1.8-2.3c-.4-1-2-.6-1.7.5a8,8,0,0,0,1.9,3.2,9.35,9.35,0,0,1-2.2-.7.69.69,0,0,0-.7,1.2c.7.5,1.4,1,2.1,1.4a2.2,2.2,0,0,1-.8-.1c-1.3-.1-1.5,1.9-.3,2.2a25,25,0,0,0,2.9.5c-.2.1-.4.1-.6.2-1.4.3-.8,2.4.6,2.1s3-.6,4.4-1c8.6,4.3,26.1,7.5,34.3,3.3C1224.6,1000.72,1212.8,972.82,1211.5,970.12Z" fill="#f9ae90"/><path d="M1162.1,995c-.4-.1-.8-.2-1.3-.3.5-.5,1-.9,1.5-1.4a1.09,1.09,0,0,0,0-1.5,1,1,0,0,0-1.5,0,22,22,0,0,0-2.3,2c-.7.7-1.6,1.5-1.3,2.5.1.4.4.5.8.6h.4c.1,0,.1.1.2.1.5.2,1,0,1.6,0a3.3,3.3,0,0,1,1.4,0,1.1,1.1,0,0,0,1.3-.7A1.25,1.25,0,0,0,1162.1,995Z" fill="#f9ae90"/><path d="M1162.8,998.72a3.87,3.87,0,0,0-5.2-.5.84.84,0,0,0,.4,1.4,27.61,27.61,0,0,0,4,.6A.9.9,0,0,0,1162.8,998.72Z" fill="#f9ae90"/><path d="M1161.3,1000.82a5,5,0,0,0-3.2-.6.72.72,0,0,0-.2,1.4c.9.3,1.7.7,2.6,1,.7.2,1.5.8,2.2.5.2-.1.3-.2.3-.4C1163.1,1001.92,1162,1001.22,1161.3,1000.82Z" fill="#f9ae90"/><path d="M1144.7,1111c-.1,0-.2.1-.3.1a.87.87,0,0,0-.6.8.76.76,0,0,0,.6.8c.1,0,.2.1.3.1a.94.94,0,0,0,1.2-.9A1,1,0,0,0,1144.7,1111Z" fill="#ffcf57"/><path d="M1145.3,1124.62a1.15,1.15,0,0,0,0,2.3A1.15,1.15,0,0,0,1145.3,1124.62Z" fill="#ffcf57"/><path d="M1145.3,1140.42a1.15,1.15,0,0,0,0,2.3A1.15,1.15,0,0,0,1145.3,1140.42Z" fill="#ffcf57"/><path d="M1149.5,1154.22a1.05,1.05,0,0,0,0,2.1C1150.9,1156.42,1150.9,1154.22,1149.5,1154.22Z" fill="#ffcf57"/><path d="M1152.2,1127.42a1,1,0,0,0,0,2C1153.5,1129.52,1153.5,1127.42,1152.2,1127.42Z" fill="#ffcf57"/><path d="M1149.5,1103.12a1.15,1.15,0,0,0,0,2.3A1.15,1.15,0,0,0,1149.5,1103.12Z" fill="#ffcf57"/><path d="M1173.7,1090a1.25,1.25,0,0,0,0,2.5A1.25,1.25,0,0,0,1173.7,1090Z" fill="#ffcf57"/><path d="M1174.5,1104.92a1.35,1.35,0,0,0,0,2.7A1.35,1.35,0,0,0,1174.5,1104.92Z" fill="#ffcf57"/><path d="M1182.9,1081.12c-2.6,0-2.6,4.1,0,4.1A2.05,2.05,0,0,0,1182.9,1081.12Z" fill="#ffcf57"/><path d="M1105.1,1012c-.2-2.3-.6-4.7-1-7a23.77,23.77,0,0,0-2-6.9.43.43,0,0,0-.8.2c.1,2.2.6,4.4.9,6.5.3,2.5.5,5,.7,7.5s.1,4.7,0,7.1c-.1,2.2-.5,4.5.1,6.6a.73.73,0,0,0,1.3.2c1-2,1-4.6,1-6.8A61.51,61.51,0,0,0,1105.1,1012Z" fill="#ffc001"/><path d="M1150.8,1015.42c-6.1-1.4-12,2.9-16.7,7.1a20.44,20.44,0,0,1,1.6-6.8,27.58,27.58,0,0,1,5.3-6.9.83.83,0,0,0-1-1.3,12.51,12.51,0,0,0-4.5,3.5,13.15,13.15,0,0,0-3.4-4.6,1.25,1.25,0,0,0-2.1.9,9.56,9.56,0,0,0,.8,4.7,7.24,7.24,0,0,0,1.1,1.9,4.74,4.74,0,0,0,1,1c0,.1,0,.1.1.2s.1.2.1.3a14.07,14.07,0,0,0-.9,9.2c-.3.3-.7.6-1,.9-5.7,5.5-12.9,12.5-21.6,10.1a.93.93,0,0,0-.5,1.8c7.8,2.6,15.4-1.8,21.1-6.9,2.5-2.2,4.8-4.5,7.3-6.6.1,0,.3.1.4.1h.6a4.79,4.79,0,0,0,2.1.9,8.09,8.09,0,0,0,5.1-.3,1.37,1.37,0,0,0,0-2.6,27.27,27.27,0,0,0-4.1-1,33,33,0,0,1,9.4-3.4A1.24,1.24,0,0,0,1150.8,1015.42Z" fill="#ffc001"/><path d="M1179.2,1247.52a1.58,1.58,0,0,0-.4,2.8c.6.4,1.3.6,1.6,1.3a2.64,2.64,0,0,1-.4,2.3c-.8,1.4-2.4,2.7-4.1,2.5-3.8-.5-1.1-6.6-.4-8.6a30.45,30.45,0,0,1,5.8-9.6,14.25,14.25,0,0,0,3.5-9,.72.72,0,0,0-1.4-.2c-1,5.4-5.9,8.3-8.7,12.7-1.4,1.2-2.3,2.9-3.5,4.3a6,6,0,0,1-5.5,2.5,5.74,5.74,0,0,0-6.5,7.1c.4,1.3,2.5,1.5,2.8,0,.4-2,.7-3.9,3.1-4,1.9-.1,3.5.1,5.2-.9a3,3,0,0,0,.7-.5,10.13,10.13,0,0,0-.3,6.2c1.9,5,8.2,4.2,11.2.9a7,7,0,0,0,1.8-6.7C1183.3,1248.82,1181.3,1246.82,1179.2,1247.52Z" fill="#ec5946"/><path d="M1174.6,1286.32c-1.6-1.8-1.3-4-1.2-6.2a28.79,28.79,0,0,0-.5-5.9,17.59,17.59,0,0,0-6-10.1c-.5-.4-1.5-.1-1.2.7.7,1.9,2,3.4,2.8,5.3a20.44,20.44,0,0,1,1.6,6.9c.3,4.1-1.2,8.5,2.4,11.5A1.53,1.53,0,0,0,1174.6,1286.32Z" fill="#ec5946"/><path d="M1124,863c.9.5-19-15.9-13.6-25.3s19.7-19.6,19.7-19.6l-3.9-4C1126.3,814.12,1079.9,840.82,1124,863Z" fill="#ffc001"/><path d="M1124,863c.3.1-1.3-1.3-3.6-3.6-1.8-.5-3.6-1.2-5.4-1.9A61,61,0,0,0,1124,863Z" fill="#440235"/><path d="M1131.3,818.12s-9.7,22.9,2.3,44.6h3.5s10.1-18.2,2.5-44.6Z" fill="#440235"/><path d="M1139.6,818.12h-8.3a33.13,33.13,0,0,0-1.1,3.3,47.06,47.06,0,0,0,2.6,19.3,43.44,43.44,0,0,0,7.6,13.4A67.74,67.74,0,0,0,1139.6,818.12Z" fill="#ffc001"/><path d="M1145,814.12c-3.2.8-5.3,4-5.3,4s22.6,21,20.4,26.4-11.3,18.2-11.3,18.2,2.7.6,4.3-1.2c4.8-5.4,13.1-16,13.3-20.3C1166.7,835.42,1145,814.12,1145,814.12Z" fill="#ffc001"/><path d="M1126.3,814.12a29.72,29.72,0,0,0-3.6,2.4,11,11,0,0,0,4.1,2.6,8.8,8.8,0,0,0,1.5.5l2-1.5Z" fill="#440235"/><path d="M1131.3,818.12s-.3.7-.8,2.1a24.77,24.77,0,0,0,9.4,0c.1,0,.2,0,.2-.1l-.6-2.1-8.2.1Z" fill="#440235"/><path d="M1145,814.12c-3.2.8-5.3,4-5.3,4s.7.6,1.8,1.7a24.41,24.41,0,0,0,6.4-2.8Z" fill="#440235"/><path d="M1148.8,862.72s2.7.6,4.3-1.2,4.1-4.9,6.4-8c-2.1,1-4.2,2-6.4,2.9C1150.8,859.92,1148.8,862.72,1148.8,862.72Z" fill="#440235"/><rect x="1134.7" y="781.02" width="1.8" height="35.2" fill="#ff8c03"/><rect x="1127.6" y="787.62" width="16.1" height="1.8" fill="#ff8c03"/><ellipse cx="1135.8" cy="811.62" rx="11.2" ry="7.6" fill="#ffc001"/><path d="M1144.5,806.82a34.38,34.38,0,0,1-12.1,6.4,15.06,15.06,0,0,1-3.6.6,13.36,13.36,0,0,1-3.9-.7c1,3.5,5.5,6.1,11,6.1,6.2,0,11.2-3.4,11.2-7.6A6.66,6.66,0,0,0,1144.5,806.82Z" fill="#ff8c03"/><path d="M1153.1,861.52h-32.5a1.5,1.5,0,0,0,0,3h32.5a1.5,1.5,0,0,0,0-3Z" fill="#ffc001"/><path d="M1189.8,922.62c-2-3.6-5.9-5.7-9.2-8.2a34.46,34.46,0,0,1-10.3-12.7,20.72,20.72,0,0,1-2.2-7.6,11.37,11.37,0,0,1,2-7.6,10.3,10.3,0,0,1,9.4-3.9,12.26,12.26,0,0,1,8.7,5.6c1.7,2.6,2.4,5.7,4,8.3-.2,1-.3,1.8-1.3,2.2a15.51,15.51,0,0,0-8.2-6.7,6.47,6.47,0,0,0-2-.4c-2.3.1-3.8,2.7-4,5-.4,5.3,2.1,9.9,6,13.5s7.5,7.4,8.5,12.7C1189.8,923.12,1191.4,922.62,1189.8,922.62Z" fill="#ffc001"/><path d="M1176.9,896.82c.2-2.3,1.6-4.9,4-5a7.11,7.11,0,0,1,2,.4,15.9,15.9,0,0,1,8.2,6.7h0a16,16,0,0,1,.8-3c-1.3-2.4-2.1-5.2-3.6-7.5a12.07,12.07,0,0,0-8.7-5.6,10.3,10.3,0,0,0-9.4,3.9,11.23,11.23,0,0,0-2,7.6,18.61,18.61,0,0,0,.8,4.1,36.46,36.46,0,0,0,3.5,1.4,35.93,35.93,0,0,0,4.7,1.2A14.89,14.89,0,0,1,1176.9,896.82Z" fill="#ffce55"/><path d="M1186.4,918.72a13.17,13.17,0,0,1,3.4,4c1.6,0,0,.4,1.6.4a22.85,22.85,0,0,0-1.2-3.7C1189,919.22,1187.7,919,1186.4,918.72Z" fill="#440235"/><path d="M1201.5,922.62c2-3.6,5.9-5.7,9.2-8.2a34.46,34.46,0,0,0,10.3-12.7,20.72,20.72,0,0,0,2.2-7.6,11.37,11.37,0,0,0-2-7.6,10.3,10.3,0,0,0-9.4-3.9,12.26,12.26,0,0,0-8.7,5.6c-1.7,2.6-2.4,5.7-4,8.3.2,1,.3,1.8,1.3,2.2a15.51,15.51,0,0,1,8.2-6.7,6.47,6.47,0,0,1,2-.4c2.3.1,3.8,2.7,4,5,.4,5.3-2.1,9.9-6,13.5s-7.5,7.4-8.5,12.7C1201.5,923.12,1199.9,922.62,1201.5,922.62Z" fill="#ffc001"/><path d="M1221.2,886.52a10.3,10.3,0,0,0-9.4-3.9,12.26,12.26,0,0,0-8.7,5.6c-1.5,2.3-2.2,5.1-3.5,7.5l.9,3a16.2,16.2,0,0,1,8.1-6.5,6.47,6.47,0,0,1,2-.4c2.3.1,3.8,2.7,4,5a14,14,0,0,1-.2,3.6c2.7-.4,5.3-1,7.9-1.6a18.61,18.61,0,0,0,1-4.8A12.09,12.09,0,0,0,1221.2,886.52Z" fill="#ffce55"/><path d="M1189.8,897.12a17.67,17.67,0,0,1,1.2,1.7c1-.4,1.1-1.2,1.3-2.2-1.5-2.4-2.2-5.2-3.6-7.6C1189,891.62,1189.4,894.42,1189.8,897.12Z" fill="#440235"/><path d="M1203.5,887.62a2.09,2.09,0,0,0-.4.6c-1.7,2.6-2.4,5.7-4,8.3.2,1,.3,1.8,1.3,2.2a14,14,0,0,1,2.7-3.3A34.33,34.33,0,0,1,1203.5,887.62Z" fill="#440235"/><path d="M1204.9,918.72a13.17,13.17,0,0,0-3.4,4c-1.6,0,0,.4-1.6.4a22.85,22.85,0,0,1,1.2-3.7C1202.4,919.22,1203.7,919,1204.9,918.72Z" fill="#440235"/><path d="M1192.9,893s-5.6,10,0,28.2v1.2h6.5s5-17.2-.9-29.3Z" fill="#ffc001"/><path d="M1199.6,895.72c-.3-.9-.7-1.7-1.1-2.6l-5.6-.1s-2.5,4.9-2.3,9.1c3.5.1,7,0,10.4-.2a19.09,19.09,0,0,0-.6-3.3C1200.4,898.72,1199.4,896,1199.6,895.72Z" fill="#ffce55"/><path d="M1192.5,919.92a6.47,6.47,0,0,0,.4,1.3v1.2h6.5a43.12,43.12,0,0,0,1.1-5.2A28,28,0,0,1,1192.5,919.92Z" fill="#440235"/><path d="M1210.8,921.22h-28.2a1.3,1.3,0,1,0,0,2.6h28.2a1.3,1.3,0,1,0,0-2.6Z" fill="#ffc001"/><rect x="1194.9" y="864.62" width="1.6" height="30.5" fill="#ff8c03"/><rect x="1188.7" y="870.32" width="14" height="1.6" fill="#ff8c03"/><ellipse cx="1195.9" cy="891.22" rx="9.7" ry="6.6" fill="#ffc001"/><path d="M1203.4,887a30.22,30.22,0,0,1-10.5,5.5,11.15,11.15,0,0,1-3.1.5,9.74,9.74,0,0,1-3.4-.6c.9,3,4.8,5.3,9.5,5.3,5.4,0,9.7-3,9.7-6.6A5.33,5.33,0,0,0,1203.4,887Z" fill="#ff8c03"/><path d="M766.9,1160.42c-.8-3.3-1.5-6.5-2.3-9.8C765.4,1153.82,766.2,1157.12,766.9,1160.42Z" fill="#ffc001"/><path d="M737.1,1051.42c-.5-1.7-1.1-3.5-1.6-5.2C736,1047.92,736.5,1049.62,737.1,1051.42Z" fill="#ffc001"/><path d="M730.7,1031.42a11.76,11.76,0,0,0-.7-2C730.3,1030.12,730.5,1030.82,730.7,1031.42Z" fill="#ffc001"/><path d="M764.6,1150.62c-.4-1.7-.8-3.5-1.3-5.2C763.8,1147.12,764.2,1148.82,764.6,1150.62Z" fill="#ffc001"/><path d="M723.5,1009.82c-.9-2.7-1.9-5.4-2.8-8.1C721.6,1004.42,722.6,1007.12,723.5,1009.82Z" fill="#ffc001"/><path d="M774.3,1194.52c-.3-1.7-.7-3.4-1-5.2C773.6,1191.12,774,1192.82,774.3,1194.52Z" fill="#ffc001"/><path d="M727.6,1022.12c-.6-1.8-1.2-3.7-1.8-5.5C726.4,1018.52,727,1020.32,727.6,1022.12Z" fill="#ffc001"/><path d="M790.7,1312.62c-.1-1.5-.2-3.1-.3-4.6C790.5,1309.52,790.6,1311,790.7,1312.62Z" fill="#ffc001"/><path d="M776.2,1204.12c-.1-.5-.2-1-.3-1.6C776,1203,776.1,1203.52,776.2,1204.12Z" fill="#ffc001"/><path d="M789.7,1300c-.5-5.9-1.1-11.8-1.7-17.7C788.6,1288.22,789.2,1294.12,789.7,1300Z" fill="#ffc001"/><path d="M787.5,1277.92c-.3-2.9-.7-5.8-1-8.7C786.9,1272.12,787.2,1275,787.5,1277.92Z" fill="#ffc001"/><path d="M716.5,989.62c-.9-2.7-1.9-5.3-2.8-8C714.6,984.22,715.5,986.92,716.5,989.62Z" fill="#ffc001"/><path d="M783.6,1247.92c-.5-3.1-.9-6.2-1.4-9.3C782.7,1241.72,783.2,1244.82,783.6,1247.92Z" fill="#ffc001"/><path d="M792.3,1359.32c0-2.8,0-5.6-.1-8.4C792.3,1353.72,792.3,1356.52,792.3,1359.32Z" fill="#ffc001"/><path d="M792.3,1350.92c-.1-8.5-.4-17.1-.8-25.7C791.9,1333.82,792.2,1342.42,792.3,1350.92Z" fill="#ffc001"/><path d="M692,923.92c-.6-1.6-1.2-3.2-1.9-4.7C690.8,920.82,691.4,922.32,692,923.92Z" fill="#ffc001"/><path d="M629.8,780.22c-.2-.5-.5-1-.7-1.5C629.3,779.22,629.6,779.72,629.8,780.22Z" fill="#ffc001"/><path d="M671.1,872.52c-.4-.9-.8-1.9-1.2-2.8C670.3,870.62,670.7,871.52,671.1,872.52Z" fill="#ffc001"/><path d="M665.3,858.92c-.7-1.7-1.5-3.4-2.2-5.2C663.8,855.42,664.6,857.22,665.3,858.92Z" fill="#ffc001"/><path d="M706.8,962.92c-.6-1.6-1.2-3.3-1.8-4.9C705.6,959.62,706.2,961.32,706.8,962.92Z" fill="#ffc001"/><path d="M629.1,705.82h0l-31.8,9.1s12.8,23.7,31.8,63.7c.2.5.5,1,.7,1.5,9.8,20.6,21.2,45.5,33.3,73.6.7,1.7,1.5,3.4,2.2,5.2,1.5,3.5,3,7.1,4.6,10.8.4.9.8,1.9,1.2,2.8,1.2,2.9,2.4,5.8,3.7,8.7.5,1.1.9,2.3,1.4,3.4,4.6,11.1,9.3,22.7,14,34.6.6,1.6,1.2,3.1,1.9,4.7,4.3,11.1,8.7,22.5,13,34.1.6,1.6,1.2,3.3,1.8,4.9,2.3,6.1,4.5,12.4,6.8,18.6.9,2.7,1.9,5.3,2.8,8,1.4,4,2.8,8,4.2,12.1.9,2.7,1.9,5.4,2.8,8.1.8,2.3,1.5,4.5,2.3,6.8.6,1.8,1.2,3.7,1.8,5.5.8,2.4,1.6,4.8,2.4,7.3a11.76,11.76,0,0,0,.7,2c1.6,4.9,3.2,9.8,4.7,14.7.6,1.7,1.1,3.5,1.6,5.2.4,1.4.9,2.8,1.3,4.2.9,2.8,1.7,5.6,2.6,8.5,1.3,4.2,2.6,8.5,3.8,12.8.8,2.9,1.7,5.7,2.5,8.6.4,1.4.8,2.9,1.2,4.3l3.6,12.9c.4,1.4.8,2.9,1.2,4.3,1.2,4.3,2.4,8.7,3.5,13s2.3,8.7,3.4,13.1l3,12.3c.4,1.7.8,3.5,1.3,5.2.8,3.3,1.5,6.5,2.3,9.8.9,4.1,1.9,8.1,2.8,12.2.3,1.5.6,2.9,1,4.4.9,4.1,1.8,8.3,2.6,12.5.4,1.7.7,3.4,1,5.2.5,2.7,1.1,5.3,1.6,8,.1.5.2,1,.3,1.6l1.5,8.1c.3,1.5.5,2.9.8,4.4,1.3,7.3,2.6,14.7,3.7,22,.5,3.1,1,6.2,1.4,9.3.8,5.7,1.6,11.3,2.3,17,.2,1.5.4,2.9.5,4.4.4,2.9.7,5.8,1,8.7.2,1.5.3,2.9.5,4.4.6,5.9,1.2,11.8,1.7,17.7.2,2.7.4,5.3.6,8,.1,1.5.2,3.1.3,4.6s.2,2.9.3,4.3c.2,2.8.3,5.6.5,8.3.4,8.6.7,17.2.8,25.7,0,2.8.1,5.6.1,8.4v4.2c-.1,9.7-.4,19.4-.9,28.9-.1,1.4-.2,2.7-.3,4.1-.3,4.1-.6,8.1-1,12.1-.1,1.3-.3,2.7-.4,4-.3,2.7-.6,5.3-.9,8s-.6,5.3-1,7.9-.7,5.2-1.1,7.8c-.6,3.9-1.3,7.8-2,11.6-1.6,9-3.6,17.8-5.8,26.5-1,3.7-2,7.4-3,11-1.4,4.9-2.9,9.7-4.6,14.4a279.8,279.8,0,0,1-28.6,59.9H815C833.4,1460.62,883.3,1065.62,629.1,705.82Z" fill="#440235"/><path d="M1664.9,705.82,1554,674.12s-388.9-280.1-813.9,0l-110.9,31.7c254.2,359.8,204.2,754.8,186.3,854H958.4s-68.4-472.2-151.1-734.6l97.6-23A159.53,159.53,0,0,0,956.5,780l38.8-25.6c47.7-31.6,105.2-48.6,164.2-48.6h0c65,0,127.9,20.6,178.1,58.4h0a161.3,161.3,0,0,0,69.2,29.6l85.4,14.7c-85.1,258.5-156.5,751.3-156.5,751.3h142.9C1460.7,1460.62,1410.7,1065.62,1664.9,705.82Z" fill="#ffc001"/><path d="M1214.5,553.52c-136.7-14.3-302.6,7.3-474.4,120.5l-110.9,31.7a1073,1073,0,0,1,103,180.6q39.75-23.85,79.1-48.4c-1.3-4.3-2.6-8.6-4-12.8l38.4-9.1q68.1-43.65,134.6-90C1059.9,670.72,1137.5,612.52,1214.5,553.52Z" fill="#ffd985"/><path d="M815.5,1559.82H958.4s-27.3-188.2-68.2-393c-22.4,15.2-45.2,29.9-68.1,44.4C842.8,1376.42,824.8,1508.22,815.5,1559.82Z" fill="#ffab03"/><path d="M872.7,1454.42c-.9,2.4-1.7,5-3.7,6.5s-4.5,1.7-6.9,2c-14.2,1.7-27.3,9.7-36.2,20.9-3.3,33-7.3,58.9-10.4,76H958.4s-8.9-61.4-24.2-152.2a68.57,68.57,0,0,0-17.9,3.6A72.51,72.51,0,0,0,872.7,1454.42Z" fill="#440235"/><path d="M1664.9,705.82,1554,674.12s-24.7-17.8-68.5-39.9c-39.3,50.8-85.9,95.8-134.5,139.1a163.68,163.68,0,0,0,55.8,20.6l85.4,14.7c-85.1,258.5-156.5,751.3-156.5,751.3h142.9C1460.7,1460.62,1410.7,1065.62,1664.9,705.82Z" fill="#ffab03"/><path d="M1417.7,1433.62a36.84,36.84,0,0,0-32.2,17.9c-8.6-7.2-17.4-14.5-28-18-.6-.2-1.3-.4-1.9-.6-12.7,76.7-19.9,126.9-19.9,126.9h142.9c-4.6-25.3-11.2-70-14.4-128.4a93.24,93.24,0,0,0-15.3,22A37.15,37.15,0,0,0,1417.7,1433.62Z" fill="#440235"/><path d="M947.1,1486,787.5,804.52c-8.8-4.3-18.3-4.3-26.3-3.1a15,15,0,0,0-11.4,20.7c50.5,119.7,155.4,622,180,737.6h28.6C958.4,1559.82,954.4,1531.92,947.1,1486Z" fill="#440235"/><path d="M988,633.82a50.55,50.55,0,0,0,24.1,44c8.3,5,17.9,7.4,27.5,8.8a105.8,105.8,0,0,0,28.1.5,104.72,104.72,0,0,0,24.5-6.7c9-3.6,17.9-8.1,24.7-15,17.7-17.8,17.9-46,17-71a98.51,98.51,0,0,1-54.6,50c-14.5,5.3-31.1,7-45,.3a36.08,36.08,0,0,1-17.7-18.6c-3-7.5,2.4-20-.4-25.1C1005.6,581.32,988.2,625.72,988,633.82Z" fill="#440235"/><path d="M1285.9,633.82a50.55,50.55,0,0,1-24.1,44c-8.3,5-17.9,7.4-27.5,8.8a105.8,105.8,0,0,1-28.1.5,104.72,104.72,0,0,1-24.5-6.7c-9-3.6-17.9-8.1-24.7-15-17.7-17.8-17.9-46-17-71a98.51,98.51,0,0,0,54.6,50c14.5,5.3,31.1,7,45,.3a36.08,36.08,0,0,0,17.7-18.6c3-7.5-2.4-20,.4-25.1C1268.3,581.32,1285.7,625.72,1285.9,633.82Z" fill="#440235"/><path d="M740.1,674.12l-110.9,31.7q15.45,21.9,29.4,43.9C772.8,703.32,878.9,640,983,572.92,908.5,592.82,827.4,625.12,740.1,674.12Z" fill="#440235"/><path d="M1518.7,778.92c-68.7-6.3-142.5-35-142.5-35-233.1-161.8-386.1-26.3-425.4,0-29.1,19.5-126.6,37.6-175.2,45.7a21.14,21.14,0,0,0-16,29.1c54.8,130,147.9,558.8,178.2,741.1h20.6s-68.4-472.2-151.1-734.6l97.6-23A159.53,159.53,0,0,0,956.5,780l38.8-25.6c47.7-31.6,105.2-48.6,164.2-48.6h0c65,0,127.9,20.6,178.1,58.4h0a161.3,161.3,0,0,0,69.2,29.6l85.4,14.7c-85.1,258.5-156.5,751.3-156.5,751.3h24.4c19.1-242.6,143.4-651.6,175.9-755.2A20,20,0,0,0,1518.7,778.92Z" fill="#ce7e15"/><path d="M1657.7,794.12c-.8,1.7-1.6,3.4-2.4,5.2C1656.1,797.52,1656.9,795.82,1657.7,794.12Z" fill="#ffc001"/><path d="M1506,1282.32c-.8,7.2-1.5,14.5-2,21.7C1504.6,1296.82,1505.3,1289.52,1506,1282.32Z" fill="#ffc001"/><path d="M1652.9,804.52c-.8,1.8-1.7,3.6-2.5,5.4C1651.2,808.12,1652,806.32,1652.9,804.52Z" fill="#ffc001"/><path d="M1631.9,851.52c-1.4,3.2-2.8,6.4-4.1,9.7C1629.1,857.92,1630.5,854.72,1631.9,851.52Z" fill="#ffc001"/><path d="M1580.4,981.62c-.9,2.7-1.9,5.3-2.8,8C1578.5,986.92,1579.5,984.22,1580.4,981.62Z" fill="#ffc001"/><path d="M1511.9,1238.62c-.7,4.4-1.3,8.8-2,13.2C1510.5,1247.32,1511.2,1242.92,1511.9,1238.62Z" fill="#ffc001"/><path d="M1640,833c-.9,2-1.8,4-2.7,6.1C1638.2,837,1639.1,835,1640,833Z" fill="#ffc001"/><path d="M1577.6,989.62c-1.4,4-2.8,8-4.2,12.1C1574.8,997.62,1576.2,993.62,1577.6,989.62Z" fill="#ffc001"/><path d="M1669.9,768.22c-.7,1.4-1.4,2.9-2.1,4.4C1668.6,771.12,1669.3,769.62,1669.9,768.22Z" fill="#ffc001"/><path d="M1665.7,777.12c-.7,1.5-1.5,3.1-2.2,4.7C1664.2,780.22,1665,778.62,1665.7,777.12Z" fill="#ffc001"/><path d="M1504,1304c-.2,2.9-.4,5.7-.6,8.6C1503.6,1309.72,1503.8,1306.82,1504,1304Z" fill="#ffc001"/><path d="M1589,958c-1,2.6-1.9,5.2-2.9,7.8C1587.1,963.22,1588.1,960.62,1589,958Z" fill="#ffc001"/><path d="M1609.3,905.72c-1,2.4-1.9,4.8-2.9,7.2C1607.4,910.52,1608.3,908.12,1609.3,905.72Z" fill="#ffc001"/><path d="M1604.9,916.62c-1,2.4-1.9,4.9-2.9,7.3C1603,921.42,1604,919,1604.9,916.62Z" fill="#ffc001"/><path d="M1599.2,931.32c-1,2.5-1.9,5-2.9,7.5C1597.2,936.32,1598.2,933.82,1599.2,931.32Z" fill="#ffc001"/><path d="M1602.1,923.92c-1,2.5-1.9,4.9-2.9,7.4C1600.1,928.82,1601.1,926.42,1602.1,923.92Z" fill="#ffc001"/><path d="M1515.6,1216.62c-.5,2.9-1,5.9-1.5,8.8C1514.5,1222.42,1515,1219.52,1515.6,1216.62Z" fill="#ffc001"/><path d="M1519.8,1194.52c-.9,4.4-1.7,8.8-2.6,13.2C1518,1203.42,1518.9,1198.92,1519.8,1194.52Z" fill="#ffc001"/><path d="M1687.2,733.32c-.4.9-.9,1.8-1.4,2.7C1686.3,735.12,1686.8,734.22,1687.2,733.32Z" fill="#ffc001"/><path d="M1626.4,864.42c-2.3,5.5-4.7,11.1-7,16.8C1621.7,875.52,1624,869.92,1626.4,864.42Z" fill="#ffc001"/><path d="M1617.9,884.62c-.9,2.3-1.9,4.6-2.9,6.9C1616,889.22,1616.9,886.92,1617.9,884.62Z" fill="#ffc001"/><path d="M1507.6,1269.22c-.4,2.9-.7,5.8-1,8.7C1506.9,1275,1507.2,1272.12,1507.6,1269.22Z" fill="#ffc001"/><path d="M1501.8,1350.92c0,2.8-.1,5.6-.1,8.4C1501.7,1356.52,1501.7,1353.72,1501.8,1350.92Z" fill="#ffc001"/><path d="M1531.6,1141.82c-.7,2.9-1.4,5.8-2.1,8.8C1530.1,1147.62,1530.9,1144.72,1531.6,1141.82Z" fill="#ffc001"/><path d="M1521.6,1185.72c-.6,2.9-1.2,5.9-1.8,8.8C1520.3,1191.62,1520.9,1188.72,1521.6,1185.72Z" fill="#ffc001"/><path d="M1559.6,1042.92l-2.7,8.4C1557.9,1048.52,1558.7,1045.72,1559.6,1042.92Z" fill="#ffc001"/><path d="M1555.7,1055.62c-.9,2.8-1.7,5.6-2.6,8.5C1553.9,1061.22,1554.8,1058.42,1555.7,1055.62Z" fill="#ffc001"/><path d="M1545.5,1089.72l-3.6,12.9Q1543.55,1096.17,1545.5,1089.72Z" fill="#ffc001"/><path d="M1570.6,1009.82c-1.4,4.1-2.8,8.2-4.1,12.3C1567.8,1018,1569.2,1013.92,1570.6,1009.82Z" fill="#ffc001"/><path d="M1529.4,1150.62c-1.4,5.8-2.8,11.7-4.1,17.6C1526.7,1162.32,1528,1156.42,1529.4,1150.62Z" fill="#ffc001"/><path d="M1565,1026.32c-.9,2.8-1.8,5.5-2.7,8.3C1563.2,1031.82,1564.1,1029,1565,1026.32Z" fill="#ffc001"/><path d="M1502.8,1321.12c-.6,10-.9,19.9-1.1,29.7C1501.9,1341.12,1502.2,1331.12,1502.8,1321.12Z" fill="#ffc001"/><path d="M1523.4,1176.92c-.6,2.9-1.3,5.9-1.9,8.8C1522.2,1182.82,1522.8,1179.92,1523.4,1176.92Z" fill="#ffc001"/><path d="M1573.4,1001.72c-.9,2.7-1.9,5.4-2.8,8.1C1571.5,1007.12,1572.4,1004.42,1573.4,1001.72Z" fill="#ffc001"/><path d="M1664.9,705.82h0c-254.2,359.8-204.2,754.8-186.3,854h72.6a282.3,282.3,0,0,1-28.6-59.9c-1.6-4.7-3.2-9.5-4.6-14.4-1.1-3.6-2.1-7.3-3-11-2.2-8.7-4.2-17.5-5.8-26.5-.7-3.9-1.4-7.7-2-11.6-.4-2.6-.8-5.2-1.1-7.8s-.7-5.3-1-7.9-.6-5.3-.9-8c-.1-1.3-.3-2.7-.4-4-.4-4-.7-8.1-1-12.1-.1-1.4-.2-2.7-.3-4.1-.6-9.5-.9-19.2-.9-28.9v-4.2c0-2.8,0-5.6.1-8.4.1-9.8.5-19.7,1.1-29.7.2-2.9.3-5.7.5-8.6s.4-5.7.6-8.6c.6-7.2,1.3-14.4,2-21.7.2-1.4.3-2.9.5-4.4.3-2.9.7-5.8,1-8.7.7-5.8,1.5-11.7,2.3-17.5.6-4.4,1.3-8.8,2-13.2s1.4-8.8,2.2-13.2c.5-2.9,1-5.9,1.5-8.8s1.1-5.9,1.6-8.8c.8-4.4,1.7-8.8,2.6-13.2.6-2.9,1.2-5.9,1.8-8.8s1.2-5.9,1.9-8.8,1.3-5.9,1.9-8.8c1.3-5.9,2.7-11.7,4.1-17.6.7-2.9,1.4-5.8,2.1-8.8,3.2-13.1,6.7-26.2,10.3-39.2l3.6-12.9c2.5-8.6,5-17.2,7.6-25.6.9-2.8,1.7-5.7,2.6-8.5.4-1.4.9-2.8,1.3-4.2l2.7-8.4,2.7-8.4c.9-2.8,1.8-5.5,2.7-8.3.5-1.4.9-2.8,1.4-4.1,1.4-4.1,2.8-8.2,4.1-12.3.9-2.7,1.9-5.4,2.8-8.1,1.4-4.1,2.8-8.1,4.2-12.1.9-2.7,1.9-5.3,2.8-8,1.9-5.3,3.8-10.6,5.7-15.8,1-2.6,1.9-5.2,2.9-7.8,2.4-6.5,4.8-12.8,7.2-19.1,1-2.5,1.9-5,2.9-7.5s1.9-5,2.9-7.4,1.9-4.9,2.9-7.3c.5-1.2,1-2.4,1.4-3.6,1-2.4,1.9-4.8,2.9-7.2,1.9-4.8,3.8-9.5,5.7-14.2,1-2.3,1.9-4.6,2.9-6.9.5-1.1.9-2.3,1.4-3.4,2.4-5.7,4.7-11.3,7-16.8.5-1.1.9-2.2,1.4-3.3,1.4-3.3,2.8-6.5,4.1-9.7,1.8-4.2,3.6-8.4,5.4-12.5.9-2,1.8-4.1,2.7-6.1,3.5-8,7-15.7,10.3-23,.8-1.8,1.7-3.6,2.5-5.4s1.6-3.6,2.4-5.3,1.6-3.5,2.4-5.2c2-4.2,3.9-8.4,5.8-12.3.7-1.6,1.5-3.1,2.2-4.7s1.4-3,2.2-4.5,1.4-2.9,2.1-4.4c6.2-12.9,11.6-23.7,15.9-32.2.5-.9.9-1.9,1.4-2.7,6-11.9,9.5-18.4,9.5-18.4Z" fill="#440235"/><path d="M1112.5,589.52c-.1,0-.1.2.2.7,0-.1-.1-.3-.1-.4A.37.37,0,0,1,1112.5,589.52Z" fill="#ff8103"/><path d="M1045.3,613.92c.1.2.8.4,2.1.2-.1,0-.3-.1-.4-.1C1046.4,614,1045.9,613.92,1045.3,613.92Z" fill="#ff8103"/><path d="M1140.5,565c-14.6-25.9-45.6-39.3-74.5-38-33.3,1.5-63.9,17-94.1,29.7q-93.6,39.45-187.3,79c-32,13.5-63.9,27.5-95.8,41.3-14.9,6.4-29.4,13.5-44.3,19.8.1,0-3,1.2-3.5,1.4-2.5,1-4.9,1.9-7.4,3-3.3,1.4-5.4,2.3-9.4,3.9-7.1,2.7-14.4,4.8-21.7,7-3.6,1.1-7.2,2-10.9,2.8-4.1.9-7.2,3.1-10.8,5.1s-3.8,8,0,10c2.7,1.4,5.6,3.3,8.5,4.1,3.7,1,8.4.6,12.3.7a142.84,142.84,0,0,0,22.6-2.1,235.26,235.26,0,0,0,41.1-11c28.1-9.9,55.4-21.9,83-33.2,56.4-23.1,112.5-46.9,168.7-70.6q42.3-17.85,84.7-35.6c13.3-5.6,26.5-11.3,40.3-15.4,3.1-.9,6.3-1.8,9.5-2.5,1.8-.4,3.7-.8,5.6-1.1l1.6-.3c-.7.1-.4,0,.7-.1h.2c3.2-.3,6.4-.6,9.7-.6,1.6,0,3.2,0,4.9.1a24.52,24.52,0,0,1,2.7.2c2.1.8,4.9.8,7,1.4,1.2.3,2.4.7,3.6,1.1l1.8.6a.1.1,0,0,0-.1-.1.1.1,0,0,0,.1.1h0c2.7,1,1,.9.2.2,1.2,1.1,5.4,2.5,6.5,3.1a34.47,34.47,0,0,1,3.2,2,14.31,14.31,0,0,1,1.5,1.1c1.8,1.6,3.6,3.2,5.3,5a23.21,23.21,0,0,0,2.1,2.5c.2.4.5.7.7,1.1.7,1.2,1.5,2.4,2.1,3.6a.37.37,0,0,1,.1.3c0,.8.9,2.5,1.1,3.3.1.5.3,1,.4,1.5q.15,0,.3.9c0-.1-.1-.1-.1-.2.1.2.1.5.2.7,0,.7.1,1.4.1,2,0,1.4,0,2.8-.1,4.2v.1c-.1.2-.1.4-.2.6-.4,1.5-.8,3.1-1.3,4.6a4.08,4.08,0,0,1-.2.7.1.1,0,0,1-.1.1c-.8,1.4-1.4,2.9-2.2,4.3-.7,1.2-1.4,2.4-2.2,3.6-.4.6-.8,1.1-1.2,1.7a109.68,109.68,0,0,1-12.9,12.6l-.2.2a4.23,4.23,0,0,0-.7.5c-1.2.9-2.4,1.7-3.7,2.5a80,80,0,0,1-9,5.1c-.1.1-.4.2-.7.4-.1,0-.1,0-.2.1-1.4.5-2.7,1-4.1,1.5-1.6.5-3.3,1-4.9,1.4-.4.1-1.4.3-2.4.5a26.27,26.27,0,0,0-3.3.3h-3.9c-.4,0-1.1-.2-1.6-.2-1.2-.2-2.4-.5-3.6-.8-1-.3-1.9-.6-2.8-.9a6.89,6.89,0,0,0-1-.4c-1.1-.6-2.3-1.2-3.4-1.9a14.63,14.63,0,0,0-1.3-.9,31.89,31.89,0,0,1-2.6-2.6l-.1-.1c-.4-.8-1-1.9-1.5-2.7a4.18,4.18,0,0,1-.4-1c-.3-.9-.4-1.9-.7-2.8v-3.1h0c.3-1,.7-2.2.9-3.2.3-.4.5-.9.8-1.3s.7-.8.9-1.1a124395540478.92,124395540478.92,0,0,0,.2-.2,8.51,8.51,0,0,0,1.7-.6h.1a.35.35,0,0,0,.2-.1h.1a2.49,2.49,0,0,1,.8.1c.2.1.4.1.6.2h.8a.6.6,0,0,0-.4.1,4.33,4.33,0,0,1,.5.1,1.69,1.69,0,0,1,.5.2,15.05,15.05,0,0,1,1.7,1c.1.1.1.2.2.3a25,25,0,0,1,.8,2.5c1.5,8.4,11.1,13.4,18.9,12.3s15.5-8.3,14.9-16.9c-1.2-16.9-12.1-29.4-27.8-35.1a40.56,40.56,0,0,0-42.6,9.7c-11.7,11.9-15.5,29.1-12.5,45.2,2.8,15.1,14.3,28.6,28,35.3,31.7,15.7,66.3,3.2,91-19.5C1144.4,627.92,1157,594.32,1140.5,565Z" fill="#ea9111"/><path d="M1058.7,563c.2,0,.4-.1.7-.1h0C1059.2,562.92,1059,563,1058.7,563Z" fill="#ff8103"/><path d="M1089.3,565.72Z" fill="#ff8103"/><path d="M1089.5,566Z" fill="#ff8103"/><path d="M1089.4,565.92Z" fill="#ff8103"/><path d="M1169.4,586.92c.1,0,.1.2-.2.7,0-.1.1-.3.1-.4A.77.77,0,0,0,1169.4,586.92Z" fill="#ff8103"/><path d="M1236.6,611.22c-.1.2-.8.4-2.1.2.1,0,.3-.1.4-.1C1235.5,611.32,1236.1,611.22,1236.6,611.22Z" fill="#ff8103"/><path d="M1160.8,646.62c24.7,22.7,59.2,35.2,91,19.5,13.7-6.7,25.2-20.2,28-35.3,3-16.1-.8-33.3-12.5-45.2a41,41,0,0,0-42.6-9.7c-15.7,5.7-26.6,18.2-27.8,35.1-.6,8.6,7,15.8,14.9,16.9,7.7,1,17.4-3.9,18.9-12.3a18.64,18.64,0,0,1,.8-2.5c.1-.1.2-.2.2-.3a15.05,15.05,0,0,0,1.7-1,1.69,1.69,0,0,1,.5-.2c.2,0,.3-.1.5-.1a.6.6,0,0,1-.4-.1h.8c.2-.1.4-.1.6-.2a2.81,2.81,0,0,1,.8-.1h.1a.35.35,0,0,0,.2.1h.1a17.72,17.72,0,0,0,1.7.6,82930360319.47,82930360319.47,0,0,1,.2.2,13.5,13.5,0,0,1,.9,1.1,9.13,9.13,0,0,1,.8,1.3c.2,1,.6,2.2.9,3.2h0v3.1c-.3.9-.4,1.9-.7,2.8a6.89,6.89,0,0,1-.4,1,18.21,18.21,0,0,0-1.5,2.7l-.1.1a31.89,31.89,0,0,1-2.6,2.6,14.63,14.63,0,0,0-1.3.9,37.18,37.18,0,0,1-3.4,1.9,5.13,5.13,0,0,1-1,.4c-.9.3-1.9.7-2.8.9-1.2.3-2.4.6-3.6.8-.5,0-1.2.2-1.6.2a25.39,25.39,0,0,1-3.9,0c-.6,0-3.3-.3-3.3-.3-.9-.2-2-.4-2.4-.5a39.43,39.43,0,0,1-4.9-1.4c-1.4-.4-2.7-1-4.1-1.5-.1,0-.1,0-.2-.1-.3-.2-.6-.3-.7-.4a80,80,0,0,1-9-5.1c-1.2-.8-2.5-1.6-3.7-2.5a3,3,0,0,1-.7-.5l-.2-.2a118.2,118.2,0,0,1-12.9-12.6c-.4-.6-.8-1.1-1.2-1.7-.8-1.2-1.5-2.4-2.2-3.6-.8-1.4-1.5-2.9-2.2-4.3a.1.1,0,0,0-.1-.1,4.08,4.08,0,0,1-.2-.7c-.5-1.5-.9-3.1-1.3-4.6-.1-.3-.1-.5-.2-.6v-.1a29.46,29.46,0,0,1-.1-4.2c0-.7.1-1.4.1-2a1.45,1.45,0,0,1,.2-.7c0,.1-.1.1-.1.2,0-.6.2-.9.3-.9a8.33,8.33,0,0,1,.4-1.5c.2-.7,1.1-2.4,1.1-3.3a.37.37,0,0,0,.1-.3,26,26,0,0,1,2.1-3.6c.2-.4.5-.7.7-1.1.7-.6,1.5-1.9,2.1-2.5a62.65,62.65,0,0,1,5.3-5,14.31,14.31,0,0,0,1.5-1.1,34.47,34.47,0,0,1,3.2-2c1.1-.6,5.3-2.1,6.5-3.1-.8.7-2.5.8.2-.2h0l.1-.1a.1.1,0,0,1-.1.1l1.8-.6c1.2-.4,2.4-.8,3.6-1.1,2.1-.6,4.9-.6,7-1.4.9-.1,1.8-.1,2.7-.2,1.6-.1,3.2-.1,4.9-.1,3.2,0,6.5.3,9.7.6h.2c1.1.1,1.4.2.7.1l1.6.3c1.9.3,3.7.7,5.6,1.1,3.2.7,6.3,1.5,9.5,2.5,13.8,4.1,27.1,9.8,40.3,15.4q42.3,17.85,84.7,35.6c56.2,23.6,112.3,47.5,168.7,70.6,27.5,11.3,54.9,23.2,83,33.2a235.26,235.26,0,0,0,41.1,11A132,132,0,0,0,1680,732c3.8,0,8.5.4,12.3-.7,2.9-.8,5.8-2.7,8.5-4.1,3.8-1.9,3.7-8,0-10s-6.8-4.2-10.8-5.1c-3.7-.8-7.3-1.7-10.9-2.8-7.3-2.2-14.5-4.3-21.7-7-4-1.5-6.2-2.4-9.4-3.9-2.4-1.1-4.9-2-7.4-3-.5-.2-3.5-1.5-3.5-1.4-14.9-6.4-29.5-13.4-44.3-19.8-31.9-13.8-63.7-27.8-95.8-41.3q-93.6-39.45-187.3-79c-30.2-12.7-60.8-28.3-94.1-29.7-28.9-1.3-59.9,12.1-74.5,38C1124.9,591.62,1137.6,625.22,1160.8,646.62Z" fill="#ea9111"/><path d="M1223.2,560.32c-.2,0-.4-.1-.7-.1h0A1.7,1.7,0,0,0,1223.2,560.32Z" fill="#ff8103"/><path d="M1192.7,563.12Z" fill="#ff8103"/><path d="M1192.4,563.32Z" fill="#ff8103"/><path d="M1192.5,563.22Z" fill="#ff8103"/><g opacity="0.52"><path d="M922.6,1340c4.3,24.7,8.4,48.2,12,69.9l3.4,9,326.9-694.2c-9.2-3.4-18.5-6.4-28-8.9Z" fill="#fefefe"/></g><path d="M1360.6,778.52l-242.2,537.2L1413.6,795l-6.8-1.2A162,162,0,0,1,1360.6,778.52Z" fill="#fefefe" opacity="0.52" style="isolation:isolate"/><path d="M836.1,712.42c-5.8,0-5.8,9,0,9S841.9,712.42,836.1,712.42Z" fill="#ffab03"/><path d="M902.3,678.42c-2.9,0-2.9,4.5,0,4.5S905.2,678.42,902.3,678.42Z" fill="#ffab03"/><path d="M870.2,720.32l-2,.1a5.5,5.5,0,0,0-4.7,3,3.18,3.18,0,0,0,0,4.1,5.37,5.37,0,0,0,4.7,3c.7,0,1.3.1,2,.1a5.23,5.23,0,0,0,5.2-5.2C875.3,722.92,873.1,720.12,870.2,720.32Z" fill="#ffab03"/><path d="M942.9,710.72c-2.6,0-2.6,4.1,0,4.1S945.5,710.72,942.9,710.72Z" fill="#ffab03"/><path d="M867.6,679.82a5.84,5.84,0,0,0-2.7-3.5,7,7,0,0,0-3.2-.9,5.52,5.52,0,0,0-3.9,1.6,4.8,4.8,0,0,0-1.4,2.5,4.12,4.12,0,0,0-.1,2.2,4.37,4.37,0,0,0,.7,2.1,4,4,0,0,0,1.4,1.5c.1.2.3.3.4.4l1.1.8a3.61,3.61,0,0,0,2,.6,5.09,5.09,0,0,0,3.4-.6l1.1-.8a5.51,5.51,0,0,0,1.4-2.3A11.07,11.07,0,0,0,867.6,679.82Z" fill="#ffab03"/><path d="M732.2,771.72a32.83,32.83,0,0,0-3.1-3.4,2.9,2.9,0,0,0-3.2-.6,3,3,0,0,0-1.8,2.7,25.63,25.63,0,0,0,1,5.4c.6,2.7,3.9,3.8,6.2,2.5a4,4,0,0,0,1.9-2.5A4.12,4.12,0,0,0,732.2,771.72Z" fill="#ffab03"/><path d="M948.6,660a4.75,4.75,0,0,0-3.6-1.5,2.2,2.2,0,0,0-.8.1h-.3a4.06,4.06,0,0,0-1.9.4c-.2.1-.5.2-.7.3a4.91,4.91,0,0,0-2.4,4.2,4.79,4.79,0,0,0,2.4,4.2,6.79,6.79,0,0,0,2,.7c.3,0,.7.1,1,.1a2.2,2.2,0,0,1,.8.1,5.08,5.08,0,0,0,3.6-1.5,5.33,5.33,0,0,0,1.5-3.6A6,6,0,0,0,948.6,660Z" fill="#ffab03"/><path d="M1343,652.32a3.92,3.92,0,0,0-3.7-1c-.7.1-1.4.3-2,.4-.3.1-.5.2-.8.3a2.84,2.84,0,0,0-1,.9,3.14,3.14,0,0,0-.7,2.1,3.37,3.37,0,0,0,.5,1.7,3.89,3.89,0,0,0,2,1.6c.7.1,1.4.3,2,.4a3.64,3.64,0,0,0,3.7-1,3.86,3.86,0,0,0,0-5.4Z" fill="#ffd985"/><path d="M1395.8,659.82a1.65,1.65,0,0,0,0,3.3A1.65,1.65,0,0,0,1395.8,659.82Z" fill="#ffd985"/><path d="M1342.4,687.62a1.6,1.6,0,0,0,0,3.2A1.6,1.6,0,0,0,1342.4,687.62Z" fill="#ffd985"/><path d="M1402.5,689.82a2.7,2.7,0,0,0-.7-.8c0-.1-.1-.2-.1-.3a1.73,1.73,0,0,0-3.3,0c0,.1-.1.2-.1.3a5.72,5.72,0,0,0-.7.8,2.81,2.81,0,0,0,2.4,4.2C1402.1,693.92,1403.7,691.62,1402.5,689.82Z" fill="#ffd985"/><path d="M1501.2,719.22a2.4,2.4,0,0,0-.7-1.2,3.18,3.18,0,0,0-1-1,5.55,5.55,0,0,0-3.3-1.2,5.68,5.68,0,0,0-4.7,2.7,5.6,5.6,0,0,0,.8,6.6,9.34,9.34,0,0,0,1.5,1.3,4.71,4.71,0,0,0,4.6,0,9.34,9.34,0,0,0,1.5-1.3,7.63,7.63,0,0,0,.8-1.1,6.94,6.94,0,0,0,.5-1.3A4.26,4.26,0,0,0,1501.2,719.22Z" fill="#ffd985"/><path d="M1457,749.12c-.1-.3-.1-.7-.2-1s-.2-.5-.3-.8a2.84,2.84,0,0,0-.9-1,3.14,3.14,0,0,0-2.1-.7,3.37,3.37,0,0,0-1.7.5,3.89,3.89,0,0,0-1.6,2c-.1.3-.1.7-.2,1a2.77,2.77,0,0,0-.1.9,2.57,2.57,0,0,0,.1,1.5c.1.3.3.7.4,1a3.65,3.65,0,0,0,3.1,1.8,3.53,3.53,0,0,0,3.1-1.8,6.64,6.64,0,0,0,.6-2A7.84,7.84,0,0,0,1457,749.12Z" fill="#ffd985"/><path d="M1562.5,746.22c-6.4,0-6.4,9.9,0,9.9S1568.8,746.22,1562.5,746.22Z" fill="#ffd985"/><path d="M870.2,1440.32c-4,0-4,6.2,0,6.2S874.2,1440.32,870.2,1440.32Z" fill="#ffd985"/><path d="M1400.1,1400c-6.4,0-6.4,9.9,0,9.9S1406.5,1400,1400.1,1400Z" fill="#ffd985"/><path d="M1415,1349.22c-5.7,0-5.7,8.9,0,8.9S1420.8,1349.22,1415,1349.22Z" fill="#ffd985"/><path d="M1440.7,1247c-5.2,0-5.3,8.2,0,8.2S1445.9,1247,1440.7,1247Z" fill="#ffd985"/><path d="M1684,1552.9H638.3c-19.5,0-35.3,15.2-35.3,33.9h0c0,18.7,15.8,33.9,35.3,33.9H1684c19.5,0,35.3-15.2,35.3-33.9h0C1719.3,1568,1703.5,1552.9,1684,1552.9Z" fill="#ce7e15"/><path d="M648.2,1540.1a100.72,100.72,0,0,0-22.2,11.8c-6.3,4.5-15.2,11.1-18.3,18.4-1.6,3.7-1.6,7.7,1.4,10.8,2.6,2.6,7.6,3.7,10.8,1.4,6.1-4.4,10.6-11,16.2-16.1a92.68,92.68,0,0,1,17.9-12.5C661.4,1550,656.3,1536.9,648.2,1540.1Z" fill="#91352f"/><path d="M658.6,1545.8a101.83,101.83,0,0,0-20.2,15c-5.5,5.4-13.3,13.2-15.4,20.9-1,3.9-.5,7.9,3,10.5,3,2.2,8.1,2.5,10.9-.2,5.3-5.3,8.8-12.5,13.7-18.3a90.36,90.36,0,0,1,15.9-15C673.1,1553.6,666.1,1541.4,658.6,1545.8Z" fill="#91352f"/><path d="M1684,1552.9H638.3c-19.5,0-35.3,15.2-35.3,33.9h0c0,1.2.1,2.3.2,3.4l1115.6-9.8C1715.6,1564.7,1701.3,1552.9,1684,1552.9Z" fill="#440235"/><path d="M586.5,1591.3c-3.2-5.3-6.3-11.2-5.5-17.4.5-3.5,2.2-6.7,3.9-9.9,2.3-4.1,4.5-8.3,6.8-12.4a16,16,0,0,1,3.2-4.5,17.3,17.3,0,0,1,4.4-2.5c6.3-2.8,12.7-5.5,19-8.3,5.5-2.4,11-4.8,16.9-5.6,3.1-.4,6.7-.2,8.9,2.1,2.8,3.1,1.3,8.2-1.6,11.2s-6.1,6.3-10.2,7.2c-11.4,2.6-18.2,12.3-18.5,18.7a8.34,8.34,0,0,0,1.2,5.4c1.2,1.6,9.1,6,10.9,6.9,11.9,5.8,23.1,14,21.8,27.2-1.1,11.4-13.2,34.3-27.4,28.8C607.3,1633.3,593.4,1602.9,586.5,1591.3Z" fill="#ec5946"/></g></g></g></svg>