<svg xmlns="http://www.w3.org/2000/svg" xmlns:xlink="http://www.w3.org/1999/xlink" viewBox="0 0 2272 1872.7"><defs><clipPath id="clip-path"><path d="M429.9,1530.89c85.72,22.82,208.4,22,208.4,22H753s16.32-54,30.92-107.15,9-155.23-7.88-250.45-24.93-137.41-34.65-178.36,37.95-72.87,79.08-80.69,120.55-14.88,188.28-6.41,210.71,34.65,224.19,37.59,144.2,30.37,172,43.34,63.37,29.81,75,55.66,23.45,89.89,23.15,171.77.52,154.78,3.69,192.29,28.39,95.81,44.92,109.11,29.65,13.3,29.65,13.3,96.49-2.5,112.69,4.3,254.76-101.75,254.76-101.75V1312l-89.14-156-335-305.3L1144.07,707,919.85,642.39,744,655.3,381.9,1054.86l-44.57,216.37Z" fill="none"/></clipPath><clipPath id="clip-path-2"><path d="M638.3,1552.9c34.63-.07,51.86,0,61.18,0,9,0,18,0,27,.06,8.06,0,9.24.08,10,0l.32,0c1.86-.3,37.16-16.54,50.74-133.1,8.75-75,2.25-137.93-11.5-224.5-28.53-179.72-43.84-181.35-31.52-206C806,866.07,1166,950.91,1339.76,991.86c57.16,13.47,109.36,28.88,140.14,74.57,23.75,35.25,23.79,105.94,22.9,245.87-.5,78.75-7.33,104.91,10.33,145.72,19.54,45.15,54.49,78.74,43.92,92.54-4.55,6-14.21,3.84-40.29,2.34-25.67-1.48-51.45.94-77.14,0-82.61-3-338.13,6.65-663.43,2.53C748.29,1555.08,699.69,1554.36,638.3,1552.9Z" fill="none"/></clipPath><clipPath id="clip-path-3"><path d="M926.11,1249.34c44.65-37.63-11.11-31.13,118.93-36.77s-82.3-6.31,99.14,4.13,232.17,87.1,232.17,87.1L1335.7,1551H958.4l-45.61-290.6Z" fill="none"/></clipPath></defs><g id="Camada_2" data-name="Camada 2"><g id="Camada_1-2" data-name="Camada 1"><g id="object"><g clip-path="url(#clip-path)"><path d="M658.9,1563.7c.2-2.3,4.5.4,3,2.2s-4.5,1.2-6.8.5c-65.1-21.7-132.3-44.6-182.7-89.3-7-6.2-13.9-16.4-7.8-23.4,2.8-3.2,7.3-4.3,11.6-5a211.42,211.42,0,0,1,91.6,4,452.6,452.6,0,0,1-18.8-71.2c-3.2-17.8,1.1-43.3,20-43.1,10.6.1,18.3,9.1,24.4,17.3,14.8,19.7,29.7,39.5,44.5,59.2-4.4-26.9-8.7-55.3,1.4-80.8s39.8-46.2,67-37.6c32.6,10.4,39.3,51.6,63.3,75.1-1.3-19.8-2.5-40.2,3.7-59.2s21.4-36.6,41.9-40.4c21.5-4,43.1,8.1,57.9,23.5s24.9,34.4,38.8,50.5c28.9,33.5,72.6,53,117.3,61.8s90.7,7.9,136.2,6.9q130-2.7,260.2-5.5c12.7-.3,15.1-1.2,23.6-10.2s12.8-20.7,18.3-31.6a172.06,172.06,0,0,1,59.5-66.5c7.1-4.6,14.8-8.9,23.3-9.8s18,2.2,22.2,9.3c4,6.9,2.3,15.4.4,23l-21,86.1c15.7-31.7,49.8-49.4,80.7-68.5,15.3-9.4,36.3-16.5,50.7-6,19.6,14.2,8,43.7-5,63.5q-29,44.25-58,88.5a342.83,342.83,0,0,1,179.1-33.7c13.5,1.1,31,8.2,28.2,20.8-1.1,5-5.4,8.7-9.5,11.9-66.4,51.5-155.3,67.3-240.6,75.5-126.6,12.2-254.1,11.6-381.4,11.1-91.9-.4-184-.8-275.3-10.9-45.5-5-91-12.5-136.8-12.2C738,1549.7,697,1539.4,658.9,1563.7Z" fill="#388b96"/><path d="M656.8,1573.9c.9,1.2-1.8,1.7-3,.9a237.71,237.71,0,0,1-73.2-74.5c-5.4-8.7-10.4-18.7-8.8-28.8a8,8,0,0,1,2.5-5.3,9.12,9.12,0,0,1,4.9-1.8c17.4-2.1,32.4,11.4,44.8,23.9,8.8,8.9,17.5,17.8,26.3,26.6-21.1-42.8-21.9-85.9-14.9-133,.8-5.1,2.7-11.3,7.7-12.4,5.2-1.1,9.5,4.1,12.1,8.7,9.6,17.2,15.5,36.1,21.4,54.8,6.7,21.5,13.5,43,20.2,64.5a301.87,301.87,0,0,1,11.5-86.6c2.4-8.4,8.8-18.7,17.1-15.8,4.8,1.7,7,7.1,8.5,11.9,8.2,25,16.4,50.1,24.6,75.1a6,6,0,0,1-7.1,2.9c11.6-9.1,31-17.7,44.6-23.2,6.6-2.6,13.6-4.9,20.7-4.1,9.3,1,17.2,7.1,24.6,12.9,12.9,10.2,25.8,20.5,38.8,30.7,3.4,2.7,6.9,5.4,11.2,6.1s9.3-1.6,10.1-5.8c16.9-6.8,29.4-14.1,47.5-15.4,27.5-2,55,2.4,82.3,6.3a2076.93,2076.93,0,0,0,423.6,16.4c6.4-20.7,21.8-35,29.8-55.1,13.3-33.6,30.2-68,60-88.4,2.5-1.7,5.3-3.4,8.3-2.8,2.8.5,4.9,2.8,6.3,5.3,5.3,9.1,4,20.4,2.3,30.8A479,479,0,0,1,1538,1486c20.9-41.8,56.8-72.4,99-92.6,2-.9,4.1-1.9,6.2-1.4a8.16,8.16,0,0,1,5,4.3c5,8.9,1.5,20-2.6,29.4a250.84,250.84,0,0,1-51.6,75.5c26-16.9,52.4-18,83.4-18.4,4,0,8.2.2,11.4,2.5,6.8,4.9,4.7,15.6,1,23.2-10.9,22.2-30.1,40.8-53.6,48.5-11.9,3.9-24.6,5.1-37.1,6.1q-254.25,21.75-509.8,22.9c-7.1,0-15.1-.4-19.7-5.7-2.6-3-3.7-7.2-6.8-9.7s-7.3-2.8-11.3-3C916.9,1561.2,791.1,1564.7,656.8,1573.9Z" fill="#4da8bb"/></g><g clip-path="url(#clip-path-2)"><path d="M1178.4,1620.2q38.1-.6,76.2-2.2c45.2-1.8,90.5-6.3,135.5-10.1,93.5-8,187.1-18.4,279.2-35.9,6.9-1.3,13.7-2.7,20.6-4-1.1-.2-2.2-.3-3.3-.5,5-3.2,4.4-5.3,7.4-10.3s3.3-12-1.1-15.9c-6.9-6.2-18.7-.3-22.9,7.7.2-4.1-9.6-2.2-13.8-3.3a10.12,10.12,0,0,0-10.6,4c3.4-6.5-3.5-23-8.2-28.4-4.5-5.1-12.3-7.1-19-5.1,5.9-3,1.1-12.6-5.9-16.2-7.6-3.9-17.1-.8-24.2,3.8,3.5-2.6-3.9-8.7-7.1-11.6s-8-3.5-12.4-2.8c-2.7.4-5.6,1.3-8.2.5-2.9-.9-4.8-3.5-6.6-5.9-3.3-4.4-7.4-8.6-12.8-10.4s-12.3-.4-15.2,4.2c3.4-17.1-15.9-47.1-33.9-43.7A35.76,35.76,0,0,0,1473,1408a39.65,39.65,0,0,0-33.5-.9c-16.9-16.8-55.6-13.6-67.8,6.6-3.3-12.7-6.2-32.3-19.6-29.7-6.9-5.6-22.6-16.9-31.5-18.6s-19.1.7-24.5,7.7a32.25,32.25,0,0,0-17.4-14.8c-4.2,1.7-18.4,5-23,5.2-5.3.3-8.9,6.8-6.2,11.1l-10.5.6c-4.5-3.3-24.7,4.8-29.5,7.6a14,14,0,0,0-6.3,8.2,62.18,62.18,0,0,0-16.9-1.8,68.23,68.23,0,0,0-17,.7,13.48,13.48,0,0,0-5.7-8.5c-4.6-3.1-24.2-12.4-29-9.5-3.5-.4-7-.9-10.5-1.3,3-4.1-.1-10.9-5.4-11.5-4.5-.5-18.5-4.7-22.6-6.6a33.15,33.15,0,0,0-18.4,13.7c-4.8-7.3-14.9-10.3-23.9-9.2s-25.5,11.5-32.8,16.6c-13.2-3.4-17.5,16-21.6,28.4-10.8-20.9-49.1-26.6-67.2-10.8a39.66,39.66,0,0,0-33.5-1.2,36.48,36.48,0,0,0-20.9,24.9c-17.7-4.4-39,24.2-36.8,41.5-2.6-4.8-9.4-6.6-14.9-5.2s-9.9,5.3-13.5,9.5c-1.9,2.3-4,4.8-7,5.5-2.7.6-5.5-.4-8.2-1-4.3-1-9.2-.7-12.5,2s-11.1,8.4-7.9,11.1c-6.8-5.1-16.1-8.8-23.9-5.3-7.2,3.2-12.7,12.5-7,15.8a19.08,19.08,0,0,0-19.3,3.9c-5.1,5-13.1,21.1-10.1,27.8a9.92,9.92,0,0,0-10.3-4.6c-4.2.8-14-1.7-14,2.4-3.6-8.3-15-14.9-22.3-9.2-4.7,3.7-4.9,10.7-2.2,15.8s1.9,7.2,6.7,10.7c-6.7.6-13.3,1.1-20,1.7-2.1.2-4.8.8-5,2.8-.2,1.3.9,2.4,1.9,3.4a141.58,141.58,0,0,0,15.4,12.4c-9.6,1.9-21,5.8-25.1,13.3a428.28,428.28,0,0,0,59.4,17.2c38.8,8.7,78.5,13.7,118.1,17.5,90.5,8.7,181.5,15.1,272.5,16.4,28.7.4,57.5.3,86.2-.1" fill="#ffac06"/><path d="M881.7,1451.3c14.4,7.2,31.8,4.5,47.8,1.6-4.1,9.1,1,20.3,9.7,25.8s20.1,5.8,30.2,3.5c2.9-.7,6.2-1.5,8.7,0,3,1.7,3.4,5.6,4.6,8.7,4.8,12.3,23.4,13,36.2,7.9,4.2-1.7,8.5-3.7,13-3.6,4.1.2,7.9,2.2,11.6,3.8,23.2,10.3,48.6-1.8,69-17.4-11.8,6.4-28.7,4.8-37.8-5.2a61,61,0,0,1-51.5,1c-8.8-4-17.1-14.9-10.4-21.7-11.7.4-24.4-1.6-32.7-9.5-6.5-6.2-8.4-17-4.1-24.2-11.8-1.4-22.8-8.3-28.5-18.2a33.46,33.46,0,0,1-4.3-18.8,32.79,32.79,0,0,0-10.9,6.3,39.66,39.66,0,0,0-33.5-1.2,36.48,36.48,0,0,0-20.9,24.9c-6.2-1.6-12.9,1-18.8,5.7C862.1,1433,869.7,1445.2,881.7,1451.3Z" fill="#ffea94"/><path d="M1010.1,1600.2c-17.7,9.6-43.1,2.9-53.1-13.9-9.9,1.3-20.3,2.4-29.5-1.2s-16.7-13.2-13.9-22.3c-9.3,3.5-19.1,7-29,5.7s-19.7-9.1-18.9-18.5c-7.7,10.3-25.6,10.9-36.3,3.5-8,4.9-20.5.4-23-8.4-2.4-8.4,5.2-17.8,14.3-18.2a15.42,15.42,0,0,1-13.8-9.7c-2.1-5.8,0-23,5.3-26.6-13.3,8.6-33.6,5.4-43.2-6.8a28,28,0,0,1-5.4-11.9,17.71,17.71,0,0,0-10.2,1c-7.2,3.2-12.7,12.5-7,15.8a19.08,19.08,0,0,0-19.3,3.9c-5.1,5-13.1,21.1-10.1,27.8a9.92,9.92,0,0,0-10.3-4.6c-4.2.8-14-1.7-14,2.4-3.6-8.3-15-14.9-22.3-9.2-4.7,3.7-4.9,10.7-2.2,15.8s1.9,7.2,6.7,10.7c-6.7.6-13.3,1.1-20,1.7-2.1.2-4.8.8-5,2.8-.2,1.3.9,2.4,1.9,3.4a141.58,141.58,0,0,0,15.4,12.4c-9.6,1.9-21,5.8-25.1,13.3a428.28,428.28,0,0,0,59.4,17.2c38.8,8.7,78.5,13.7,118.1,17.5,65.9,6.4,132.1,11.5,198.3,14.3C1012.1,1611.6,1009,1605.4,1010.1,1600.2Z" fill="#ffea94"/><path d="M1694,1557.2c3.1-5,3.3-12-1.1-15.9-6.9-6.2-18.7-.3-22.9,7.7.2-4.1-9.6-2.2-13.8-3.3a10.12,10.12,0,0,0-10.6,4c3.4-6.5-3.5-23-8.2-28.4-4.5-5.1-12.3-7.1-19-5.1,5.9-3,1.1-12.6-5.9-16.2-7.6-3.9-17.1-.8-24.2,3.8,3.5-2.6-3.9-8.7-7.1-11.6s-8-3.5-12.4-2.8c-2.7.4-5.6,1.3-8.2.5-2.9-.9-4.8-3.5-6.6-5.9-3.3-4.4-7.4-8.6-12.8-10.4s-12.3-.4-15.2,4.2c1.9-9.8-3.6-23.9-12-33.4-9.7,11.9-26.4,19.1-42.1,16.2,8.6,16-10.6,37.7-28.7,32.5-.3,8-.5,16.1-.8,24.1a130,130,0,0,1-69.4,5c-.1,6.5-6.9,11.8-13.5,11.7,11.5,2.7,21,12.6,22.3,23.8,6.4-9.2,21.6-3.9,30.7,3s21.5,15.1,31.1,8.8c3.6,8.6-10.4,13.4-20.2,13.7-41.6,1.2-80.9,15.3-119.2,31.9,28.7-2.1,57.3-4.8,85.9-7.2,93.5-8,187.1-18.4,279.2-35.9,6.9-1.3,13.7-2.7,20.6-4-1.1-.2-2.2-.3-3.3-.5C1691.6,1564.3,1691,1562.2,1694,1557.2Z" fill="#ffea94"/><path d="M1288.5,1442.8a4.52,4.52,0,0,0-5.5-3c-2.2.7-4,3-3.1,5.3h0a4.62,4.62,0,0,0-.9,1.5,6.75,6.75,0,0,0-.2,1.4v.5c0,1.6,1.2,2.6,2.7,3.1,2.6.9,5-.6,6.3-2.8A8.8,8.8,0,0,0,1288.5,1442.8Z" fill="#ffea94"/><path d="M1351.5,1451.3a5.18,5.18,0,0,0-6.8-1.7,4.7,4.7,0,0,0-1.8,6.5c.4.8.9,1.6,1.3,2.4a10.91,10.91,0,0,0,.6,1.1,6.61,6.61,0,0,0,2.2,2.2c3.1,2,7.1-.7,7.2-3.9C1354.3,1455.6,1352.6,1453.3,1351.5,1451.3Z" fill="#ffea94"/><path d="M1313,1484.8a4.48,4.48,0,0,0-6.1,0,38.33,38.33,0,0,0-2.8,2.9,21.69,21.69,0,0,0-1.9,3.3c-1.4,2.7,1.5,5.4,4.3,4.1a28.64,28.64,0,0,0,3.5-1.8,38.48,38.48,0,0,0,3-2.7A4.1,4.1,0,0,0,1313,1484.8Z" fill="#ffea94"/><path d="M1226.7,1488.9a5.07,5.07,0,0,0-3.3-1.3,5.33,5.33,0,0,0-2.4.6,4.36,4.36,0,0,0-1.7,1.6,4.53,4.53,0,0,0-1,3.5c0,.1-.1.3-.1.4a2.61,2.61,0,0,0,.7,2.5,3.21,3.21,0,0,0,2.7.7.9.9,0,0,0,.5-.1,5,5,0,0,0,3.7-1,4.36,4.36,0,0,0,1.7-1.6,4.28,4.28,0,0,0,.6-2.2A4.9,4.9,0,0,0,1226.7,1488.9Z" fill="#ffea94"/><path d="M1175.5,1493.1a4.56,4.56,0,0,0-1.7-2.2,16,16,0,0,0-2.3-1,2.58,2.58,0,0,0-2.8.3,2.14,2.14,0,0,0-.4,2.6,21.41,21.41,0,0,0,1.3,1.9c1,1.5,3.7,2.4,5.1.9A2.4,2.4,0,0,0,1175.5,1493.1Z" fill="#ffea94"/><path d="M1099.2,1536.7c-8,0-8,11.8,0,11.8S1107.2,1536.7,1099.2,1536.7Z" fill="#ffea94"/><path d="M958.3,1529c-1.9-.9-3.7-1.8-5.6-2.5a2.06,2.06,0,0,0-2.5,1.2,2,2,0,0,0,.9,2.5,47.39,47.39,0,0,0,5,2.6,2.35,2.35,0,0,0,3.1-.8A2.27,2.27,0,0,0,958.3,1529Z" fill="#ffea94"/><path d="M870.7,1490a6.08,6.08,0,0,0-1.4-1,11.73,11.73,0,0,0-1.1-.5,4.87,4.87,0,0,0-4.4,0,4.17,4.17,0,0,0-2.2,3.6,4.09,4.09,0,0,0,2.2,3.6,4.87,4.87,0,0,0,4.4,0c.4-.2.7-.3,1.1-.5a17,17,0,0,0,1.4-1,2.72,2.72,0,0,0,.9-2.1A2.54,2.54,0,0,0,870.7,1490Z" fill="#ffea94"/><path d="M1061.2,1586.4a2,2,0,1,0,0,4A2,2,0,1,0,1061.2,1586.4Z" fill="#ffea94"/><path d="M1165.1,1555.1a2,2,0,1,0,0,3.9A1.95,1.95,0,1,0,1165.1,1555.1Z" fill="#ffea94"/><path d="M1247.2,1553.7a5.24,5.24,0,0,0-3.6-1.4,5.75,5.75,0,0,0-3.6,1.4,4.86,4.86,0,0,0-1.5,3.4v2.4a4.27,4.27,0,0,0,1.5,3.3,5.71,5.71,0,0,0,3.5,1.4,5.48,5.48,0,0,0,3.5-1.4,5.3,5.3,0,0,0,1.5-3.3v-2.4A4.1,4.1,0,0,0,1247.2,1553.7Z" fill="#ffea94"/><path d="M1294.3,1569.6a1.9,1.9,0,1,0,0,3.8A1.9,1.9,0,1,0,1294.3,1569.6Z" fill="#ffea94"/><path d="M1119.4,1426.4c-7.5,0-7.5,11.1,0,11.1S1126.9,1426.4,1119.4,1426.4Z" fill="#ffea94"/><path d="M1221.7,1426.3a4.67,4.67,0,0,0-3.4-1.3,5.33,5.33,0,0,0-3.4,1.3,4.48,4.48,0,0,0-1.4,3.2c.1.8.1,1.6.2,2.4a4.57,4.57,0,0,0,1.3,3.1,4.82,4.82,0,0,0,3.2,1.3,4.63,4.63,0,0,0,3.2-1.3,4.57,4.57,0,0,0,1.3-3.1c.1-.8.1-1.6.2-2.4A3.55,3.55,0,0,0,1221.7,1426.3Z" fill="#ffea94"/><path d="M1324.7,1540.3a2.35,2.35,0,1,0,0,4.7A2.35,2.35,0,1,0,1324.7,1540.3Z" fill="#ffea94"/><path d="M736.2,1523.8c-.6-.3-1.1-.6-1.7-.9a3.63,3.63,0,0,0-4.2.5,3.18,3.18,0,0,0-.5,4l.9,1.6a4.15,4.15,0,0,0,6.3.8A3.73,3.73,0,0,0,736.2,1523.8Z" fill="#ffda03"/><path d="M772.9,1525.3a1.8,1.8,0,1,0,0,3.6A1.8,1.8,0,1,0,772.9,1525.3Z" fill="#ffda03"/><path d="M776.1,1544.9a2.36,2.36,0,0,0-2-.5,5.26,5.26,0,0,0-1.8.4,1.69,1.69,0,0,0,0,2.9,5.26,5.26,0,0,0,1.8.4,2.08,2.08,0,0,0,2-.5,2,2,0,0,0,.6-1.4A2.55,2.55,0,0,0,776.1,1544.9Z" fill="#ffda03"/><path d="M729.7,1547.4a8.47,8.47,0,0,0-6.8.3,2.07,2.07,0,0,0,0,3.6c2,1.2,4.6,1,6.8.3A2.19,2.19,0,0,0,729.7,1547.4Z" fill="#ffda03"/><path d="M803.3,1579.3a2.25,2.25,0,1,0,0,4.5A2.25,2.25,0,1,0,803.3,1579.3Z" fill="#ffda03"/><path d="M1463.7,1557.6a4.9,4.9,0,0,0-4.5-1.1,9.36,9.36,0,0,0-1.6.4,4.15,4.15,0,0,0-3.1,3.9,4.27,4.27,0,0,0,3.1,3.9,9.36,9.36,0,0,1,1.6.4,4.83,4.83,0,0,0,4.5-1.1,4.68,4.68,0,0,0,1.4-3.1A4.37,4.37,0,0,0,1463.7,1557.6Z" fill="#ffda03"/><path d="M1488.8,1533.8a2.3,2.3,0,0,0-2.4-.3,5.31,5.31,0,0,0-1.7.8,2.48,2.48,0,0,0-1.2,2.8,3.88,3.88,0,0,0,.6,1.1,2.28,2.28,0,0,0,1.2.6,2.65,2.65,0,0,0,2.9-1.1,6,6,0,0,0,.8-1.6A1.69,1.69,0,0,0,1488.8,1533.8Z" fill="#ffda03"/><path d="M1522.8,1533.3a1.75,1.75,0,1,0,0,3.5A1.75,1.75,0,1,0,1522.8,1533.3Z" fill="#ffda03"/><path d="M1551.5,1549.3h-3.4a1.88,1.88,0,0,0-1.9,1.8,1.82,1.82,0,0,0,1.9,1.8h3.4a1.88,1.88,0,0,0,1.9-1.8A2,2,0,0,0,1551.5,1549.3Z" fill="#ffda03"/><path d="M1610.4,1533.2a1.9,1.9,0,1,0,0,3.8A1.9,1.9,0,1,0,1610.4,1533.2Z" fill="#ffda03"/><path d="M1630.7,1536.3c-1.1.1-2.2.1-3.4.2a1.8,1.8,0,1,0,0,3.6c1.1.1,2.2.1,3.4.2a2,2,0,0,0,2.1-2A2.25,2.25,0,0,0,1630.7,1536.3Z" fill="#ffda03"/></g><g clip-path="url(#clip-path-3)"><path d="M913.7,1361.6c-5.1-13.7,8.8-30.4,23.2-27.9-1.4-13.9,23.3-30.6,34.1-21.7,5.6-7.4,18.9-9,28.1-8,3.7.4,7.4,1.5,10.9.4,3-.9,5.2-3.2,7.8-5a22.88,22.88,0,0,1,24.4-.6c11.5-7.4,32.1-1.2,40.4,9.8,6.2-11.6,28.7-12.9,35.7-1.8-3-8.7,12.4-18.6,21.6-18.3s17,7.4,21.2,15.6c8.7-7.4,29.1-3.8,36.8,4.7,1.6,1.8,3,3.9,5.3,4.7,5.8,2.2,10.1-5.2,14.9-9.2a16,16,0,0,1,18-1.4,15.85,15.85,0,0,1,7.1,16.6c9-11.5,43.8-14.2,46.3.2,20.5-12.5,53.5-5.5,62.7,16.8,9.4-13.4,30.6-14.1,44-4.8s20.3,25.8,23.2,41.9,2.6,32.7,5.5,48.8c2.4,13.5,6.5,30.9,1.5,43.8s-12.3,25-13.9,38.7c-1.9,15.9,2.5,36-11,44.6H937.8Z" fill="#ffda03"/><path d="M1407.8,1372.9c-11.7-.4-23-5.4-32.5-12.3-5.4,5.4-12.1,9.8-19.7,10.9s-15.9-1.6-20.2-7.9c-5.2,4.7-11,9.7-18,10.1s-21.1-5.9-18.2-12.3c-5.5,4.6-12.3,8.2-19.4,7.9s-14.3-5.7-14.7-12.9c-4.2,3.4-8.7,7-14,7.6s-11.5-3.5-11.1-8.8c-2.6-.6-5,1.5-7.3,2.9a17.75,17.75,0,0,1-16.3,1.2c-5.2-2.3-9.5-8.8-10.7-14.3a33.86,33.86,0,0,1-13.4,1.6c-4.1-.3-8.3-1.5-11.4-4.1s-5-7.1-3.7-11.1c-7.3,10.2-24.1,10-34.5,3a14.71,14.71,0,0,1-21.3,13.8c.3,9.6-11.9,18.4-21.5,19.3-2.4,2.5-5.9,3.5-9.3,3.8-4.5.4-9.5-.5-12.6-3.8s-3-9.6,1-11.8a12.08,12.08,0,0,1-13.2-3.1c-3.2-3.6-7.9-9.5-5.6-13.8a11.93,11.93,0,0,1-22.7-3.3c-1.9,4.6-4.2,9.5-8.5,11.9s-11.5.8-12.1-4.2c-1.1,4.9-2.3,9.9-5.5,13.8s-9,6-13.3,3.4c-1.6-1-3.4-2.6-5.1-1.8a3.86,3.86,0,0,0-1.9,2.4c-1.8,3.8-3.4,7.9-6.6,10.6s-11.6-.1-14-3.5a18.65,18.65,0,0,1-15.2,9.1,18.85,18.85,0,0,1-15.8-7.9,24.56,24.56,0,0,1-24.9-21.9,18.67,18.67,0,0,0-.7,14.3l24,187.9h463.7c13.4-8.6,9.1-28.7,11-44.6,1.6-13.7,8.9-25.9,13.9-38.7s.9-30.2-1.5-43.8c-2.8-16.1-2.6-32.7-5.5-48.8a12.86,12.86,0,0,0-.4-1.9A48.13,48.13,0,0,1,1407.8,1372.9Z" fill="#ffb806"/><path d="M1426.4,1466.3c4.9-12.8.9-30.2-1.5-43.8-2.8-16.1-2.6-32.7-5.5-48.8a12.86,12.86,0,0,0-.4-1.9,46,46,0,0,1-11.1,1.1,51.91,51.91,0,0,1-11.8-1.9c-18.9,14.1-42.4,29.1-51.6,27.6.9,11.5-13,19.6-24.4,17.5-2.3-.4-4.8-1.1-7-.4-1.9.6-3.4,2.2-4.9,3.6-7.8,6.7-19.1,7-29.3,6.9.9,5.3-5.1,10.4-10.2,8.7a13.53,13.53,0,0,1-15.6,5.5,20.83,20.83,0,0,1-24.2,7.9c-3.4.5-7,1.9-10.4,2.3a17.78,17.78,0,0,0,9.3,8.8c3.7,1.5,7.9,1.7,11.9,1.8,9.5.4,19.6.5,27.5-4.6a23.29,23.29,0,0,1,3.4-2,15.36,15.36,0,0,1,4.8-.4,20.83,20.83,0,0,0,17.4-10.7c5.2,6.1,16.8,4.4,19.9-3,1.2,5.4,8,7.4,13.5,7s11.2-2.3,16.4-.5c-4.5,3.1-1.7,10.1-2.1,15.6-.6,7.4-9.4,12.8-16.2,10-.1,8.3-9,15.4-17.1,13.5a11.52,11.52,0,0,1-17.8,13.2c-.4,5.5-6.5,9.1-12,8.8s-10.4-3.4-15-6.4c-4,.4-7.8,1.7-11.8,2.1-.3,3.5-.9,7.4-3.7,9.5s-6.5,1.5-10,1.6c-5.5.2-10.8,2.3-16.2,3.4-5.1,1-10.9,1-15.1-2.1a2.29,2.29,0,0,1-.2,2.5,4.6,4.6,0,0,1-3.4,1.2,18.31,18.31,0,0,1-13.2-4.8c-4.1,6.3-15.2,5.9-18.7-.8-4.8,4.4-15.5,8.6-19.7,3.6,1.9,9,11.6,14.1,20.6,15.6s18.5.4,27.3,3c3.1.9,6.2,2.2,9.4,2.7,8.5,1.1,16.4-4.1,23.4-9.1-1.6,5,6,8.1,10.9,6.2s9.1-6,14.3-5.9c3.1.1,6,1.7,9,2.6,9.8,3.2,21.6-1.2,26.8-10.1,5.2,8.5,17.6,11.4,26,6.1,2.6-1.6,4.8-3.9,7.7-4.8,3.1-1,6.4-.3,9.6.2,18.3,3,51.3-5.4,77.2-17.6.1-.7.1-1.3.2-1.9C1414.1,1491.3,1421.4,1479.1,1426.4,1466.3Z" fill="#ffda03"/><path d="M980,1513.1c10-1.9,19.9-3.9,29.9-5.8,4.1-.8,8.4-1.7,11.5-4.4,1.8-1.6,3.1-3.6,5.2-4.8,2.4-1.3,5.2-1.3,7.9-1.8a17.93,17.93,0,0,0,14-14.4c10.5-.4,19-8,26.7-15.2,1.5-1.4,2.9-2.8,4.4-4.1,7.7-7.3,16.1-17.7,11.7-27.3-1.5,9.5-14.8,14.5-22.2,8.4-1.5,4.3-3.1,8.9-6.6,11.9s-9.5,3.5-12.3-.2c-6.8,13.5-24.6,20.1-38.6,14.5-2.3,7-16.5,9.5-23,5.9-4.9,2.7-10.4,5-15.9,3.8s-10-7.3-7.7-12.4c-2.3-.5-4.7-.2-6.8-1-3.5-1.4-5.3-5.6-5-9.3s1.3-5.3,3.1-8.6c3.4,6.7,13,9.2,19.2,5.1,4.3,2.3,8.7,4.6,13.6,5s10.2-1.7,12.3-6.1c5.8.6,12,1.2,17.4-1.1s9.6-8.5,7.5-14a15.07,15.07,0,0,1-17.4,1.4,9.16,9.16,0,0,0-3.1-1.6,8.38,8.38,0,0,0-3.8.8,17.19,17.19,0,0,1-18.7-5.8,13.51,13.51,0,0,1-14.7-.6,13.67,13.67,0,0,1-5.2-13.8c-5.6,4-14.3,2.5-18.2-3.2-1-1.5-1.9-3.3-3.6-4a8.68,8.68,0,0,0-3.6-.2,29.7,29.7,0,0,1-18.6-4.7l13.8,107.7a79.3,79.3,0,0,0,17.4,4.4C960.5,1518.7,971.1,1517.9,980,1513.1Z" fill="#ffda03"/><path d="M1038.5,1371.3c-3.1,0-3.1,4.8,0,4.8S1041.6,1371.3,1038.5,1371.3Z" fill="#ffda03"/><path d="M998.1,1397.8c-2.7,0-2.7,4.2,0,4.2S1000.8,1397.8,998.1,1397.8Z" fill="#ffda03"/><path d="M997,1406h-1.2a6.75,6.75,0,0,0-1.4.2,1.46,1.46,0,0,0,0,2.8,6.75,6.75,0,0,0,1.4.2H997a1.47,1.47,0,0,0,1.5-1.5A1.66,1.66,0,0,0,997,1406Z" fill="#ffda03"/><path d="M1047.5,1409.1c-.3-.1-.6-.1-.9-.2a2,2,0,0,0-2.5,1.9,2,2,0,0,0,2.5,1.9c.3-.1.6-.1.9-.2a1.75,1.75,0,0,0,1.3-1.8A1.69,1.69,0,0,0,1047.5,1409.1Z" fill="#ffda03"/><path d="M1064.8,1416c-.2-.3-.3-.6-.5-.9a4.7,4.7,0,0,0-2.7-2.1,4.34,4.34,0,0,0-3.5.5,4.41,4.41,0,0,0-2.1,2.7,4.84,4.84,0,0,0,.5,3.5c.2.3.3.6.5.9s.5.6.7.9a4.67,4.67,0,0,0,3.9,1.2,3.71,3.71,0,0,0,1.5-.4,2.58,2.58,0,0,0,.9-.9,3.68,3.68,0,0,0,1.1-1.9A4.67,4.67,0,0,0,1064.8,1416Z" fill="#ffda03"/><path d="M1057.4,1429c-.3-.4-.7-.8-1-1.2a3.62,3.62,0,0,0-5.2,0,4.09,4.09,0,0,0-1.1,2.6,3.47,3.47,0,0,0,1.1,2.6c.4.3.8.7,1.2,1a4.09,4.09,0,0,0,2.6,1.1,3.81,3.81,0,0,0,2.6-1.1A3.7,3.7,0,0,0,1057.4,1429Z" fill="#ffda03"/><path d="M1045,1525.7c-3.9,0-3.9,6.1,0,6.1S1049,1525.7,1045,1525.7Z" fill="#ffda03"/><path d="M999.2,1530.3c-3.6,0-3.6,5.6,0,5.6S1002.8,1530.3,999.2,1530.3Z" fill="#ffda03"/><path d="M1054.8,1505.9a4.82,4.82,0,0,0-3.2-1.3,4.65,4.65,0,0,0-2.3.6,4.89,4.89,0,0,0-1.6,1.6,6.92,6.92,0,0,0-1,1.9,4.39,4.39,0,0,0,7.2,4.3,4.89,4.89,0,0,0,1.6-1.6,4.65,4.65,0,0,0,.6-2.3A4.38,4.38,0,0,0,1054.8,1505.9Z" fill="#ffda03"/><path d="M1091.1,1520.7c-.3-.7-.6-1.5-.9-2.2a5.29,5.29,0,0,0-1.6-2.7c-.4-.3-.8-.6-1.3-1a5.75,5.75,0,0,0-3.1-.8,4.71,4.71,0,0,0-2.4.5,5.75,5.75,0,0,0-3.3,3.3,3.87,3.87,0,0,0-.5,2.4,6.5,6.5,0,0,0,.8,3.1c.4.7.9,1.4,1.3,2.1a6.13,6.13,0,0,0,3.6,2.7c.5.1,1.1.1,1.6.2a4.56,4.56,0,0,0,2.3-.5,2.58,2.58,0,0,0,1.3-.8,4.13,4.13,0,0,0,1.5-1.7A5.42,5.42,0,0,0,1091.1,1520.7Z" fill="#ffda03"/><path d="M1107.3,1526.1c-7.7,0-7.7,11.9,0,11.9S1115,1526.1,1107.3,1526.1Z" fill="#ffda03"/><path d="M1258.7,1412.6a3.36,3.36,0,0,0-1-1.6,3.91,3.91,0,0,0-1.6-1,3.41,3.41,0,0,0-2,0h-.1c-.3.1-.6.3-.9.4a3.46,3.46,0,0,0-1.1,1,3.78,3.78,0,0,0-.8,2.3v.4a3.44,3.44,0,0,0,3.4,3.4h.4a3.78,3.78,0,0,0,2.3-.8,3.52,3.52,0,0,0,1.4-2v-.1A3.4,3.4,0,0,0,1258.7,1412.6Z" fill="#ffda03"/><path d="M1303.8,1389.5c-3.6,0-3.6,5.6,0,5.6S1307.4,1389.5,1303.8,1389.5Z" fill="#ffda03"/><path d="M1224.1,1377c-4.2,0-4.2,6.5,0,6.5S1228.3,1377,1224.1,1377Z" fill="#ffda03"/><path d="M1229.6,1485.3a4.39,4.39,0,0,0-1.2-1.8,3.14,3.14,0,0,0-2.1-.7,3.37,3.37,0,0,0-1.7.5,3.44,3.44,0,0,0-1.6,2.1,4.14,4.14,0,0,0,0,2.9,3.76,3.76,0,0,0,3.4,2.6,3.63,3.63,0,0,0,3.4-2.6A6,6,0,0,0,1229.6,1485.3Z" fill="#ffda03"/><path d="M1252.5,1485.6c-4.9,0-4.9,7.7,0,7.7S1257.4,1485.6,1252.5,1485.6Z" fill="#ffda03"/><path d="M1300.5,1469.6c-7.3,0-7.3,11.4,0,11.4S1307.9,1469.6,1300.5,1469.6Z" fill="#ffda03"/><path d="M991.4,1405.4a2.19,2.19,0,0,0-2-1.1,5.46,5.46,0,0,0-1.8-.1,3.34,3.34,0,0,0-2.5,1.5c-.2.4-.3.8-.5,1.2a2.58,2.58,0,0,0,.3,2.1,2.41,2.41,0,0,0,1.6,1.2c.3.1.6.1.9.2a3.18,3.18,0,0,0,3-1.3,11.91,11.91,0,0,0,.9-1.5A2,2,0,0,0,991.4,1405.4Z" fill="#ffda03"/><path d="M1038.9,1398.3c0-.2-.1-.3-.1-.5a3.78,3.78,0,0,0-2.6-2.6c-.2,0-.3-.1-.5-.1a4.81,4.81,0,0,0-4.7,1.3l-1.2,1.5a4.63,4.63,0,0,0-1.3,3.2,4.82,4.82,0,0,0,1.3,3.2,4.38,4.38,0,0,0,3.2,1.3l1.2-.2a4.15,4.15,0,0,0,2-1.2l1.5-1.2a7.64,7.64,0,0,0,1.1-1.6A6.55,6.55,0,0,0,1038.9,1398.3Z" fill="#ffda03"/><path d="M1071.3,1382.9a4.52,4.52,0,0,0-5.7-3.8c-1.8.5-3.6,1-5.3,1.6a4.05,4.05,0,0,0-2.9,4.5c.2,1.8,2,3.8,4,3.5l5.5-.6C1069.6,1387.8,1071.7,1385.9,1071.3,1382.9Z" fill="#ffda03"/><path d="M958.8,1393.5c-2.6,0-2.6,4.1,0,4.1S961.4,1393.5,958.8,1393.5Z" fill="#ffda03"/><path d="M1119.3,1373.2c-6.2,0-6.3,9.7,0,9.7S1125.5,1373.2,1119.3,1373.2Z" fill="#ffda03"/><path d="M1264.1,1382.8l-1.1-1.1a4.25,4.25,0,0,0-2.9-1.2,4,4,0,0,0-2.9,1.2,4.45,4.45,0,0,0-1.2,2.9,4,4,0,0,0,1.2,2.9l1.1,1.1a4.25,4.25,0,0,0,2.9,1.2,4,4,0,0,0,2.9-1.2,4.45,4.45,0,0,0,1.2-2.9A4,4,0,0,0,1264.1,1382.8Z" fill="#ffda03"/><path d="M1283.1,1387.1c-2.4,0-2.4,3.8,0,3.8S1285.5,1387.1,1283.1,1387.1Z" fill="#ffda03"/><path d="M1163.4,1489.7a9.14,9.14,0,0,0-.7-1.4,2.25,2.25,0,0,0-3.9,0,6.11,6.11,0,0,0-.7,1.4,2.68,2.68,0,0,0,.7,2.7,2.66,2.66,0,0,0,3.8,0A2.41,2.41,0,0,0,1163.4,1489.7Z" fill="#ffda03"/><path d="M1141.6,1517.4a2.2,2.2,0,0,0-3.1,0c-.3.4-.7.8-1,1.2a2.12,2.12,0,0,0,3,3c.4-.3.8-.7,1.2-1A2.56,2.56,0,0,0,1141.6,1517.4Z" fill="#ffda03"/><path d="M984.7,1536.7c-.5-.5-.9-1-1.4-1.5a9.06,9.06,0,0,0-1.9-1.3c-1.6-.9-3.5,1.3-2,2.6a7.94,7.94,0,0,0,1.8,1.4,15.39,15.39,0,0,0,1.9.8,1.29,1.29,0,0,0,1.6-2Z" fill="#ffda03"/><path d="M1112.9,1503.9a2.55,2.55,0,0,0-1.1-2,2.35,2.35,0,0,0-2.3,0,2,2,0,0,0-1.2,1.5v.4c.1-.1.1-.1,0,.1s-.1.2-.2.3l-.3.6a2.2,2.2,0,0,0,3.8,2.2l.3-.6c.1-.1.1-.2.2-.3a.1.1,0,0,1,.1-.1l.2-.2A4.14,4.14,0,0,0,1112.9,1503.9Z" fill="#ffda03"/><path d="M1137.8,1487.9c-6.2,0-6.3,9.7,0,9.7S1144.1,1487.9,1137.8,1487.9Z" fill="#ffda03"/><path d="M1240.5,1432c-2.2,0-2.3,3.5,0,3.5S1242.7,1432,1240.5,1432Z" fill="#ffda03"/><path d="M1283.1,1472.9c-3,0-3,4.7,0,4.7S1286.1,1472.9,1283.1,1472.9Z" fill="#ffda03"/></g><path d="M1178.4,1394.1l-1.9-46.3a6,6,0,0,0-10-4.2,71.09,71.09,0,0,0-21.3,35.6c-4.4,18.4,3.9,77.7,26.7,41.8a41.35,41.35,0,0,0,5.9-13C1178.8,1403.6,1178.6,1398.8,1178.4,1394.1Z" fill="#ffeecb"/><path d="M1167.4,1357.6c-8.8,10.3-13.9,23.5-15.3,37-1.1,10.7-.5,22.8,2.9,33.1a19.67,19.67,0,0,0,2.1,4.5c2.2.6,4.8,0,7.6-2.4,0-3.1-1.3-6.7-2-8.6A84.58,84.58,0,0,1,1167.4,1357.6Z" fill="#c1a778"/><path d="M1203,1435.2l42.4-18.7a6,6,0,0,0,.2-10.9,70.58,70.58,0,0,0-40.9-6.8c-18.8,2.6-70.9,32-29.2,40.1,4.7.9,9.5,1.5,14.2.7C1194.4,1439,1198.7,1437,1203,1435.2Z" fill="#ffeecb"/><path d="M1232.9,1411.5c-12.8-4.5-27-4.3-40-.7-10.4,2.9-21.4,7.9-29.7,14.8a17,17,0,0,0-3.4,3.6c.2,2.3,1.8,4.5,5,6.3,2.9-1.1,5.8-3.7,7.3-5A83.83,83.83,0,0,1,1232.9,1411.5Z" fill="#c1a778"/><path d="M1169.3,1474.2l29.1,36.1a6,6,0,0,0,10.5-2.6,70.34,70.34,0,0,0-4.1-41.3c-7.4-17.5-49.4-60.1-46.3-17.7a40.68,40.68,0,0,0,3,13.9A50.22,50.22,0,0,0,1169.3,1474.2Z" fill="#ffeecb"/><path d="M1199.9,1497c1-13.5-2.8-27.2-9.7-38.8-5.5-9.3-13.2-18.6-22-24.9a19.73,19.73,0,0,0-4.4-2.4c-2.2.8-3.8,2.9-4.7,6.5,1.8,2.5,5.1,4.6,6.7,5.8A84,84,0,0,1,1199.9,1497Z" fill="#c1a778"/><path d="M1120.4,1446.2l-32.4,33.2a6,6,0,0,0,3.9,10.2,70.7,70.7,0,0,0,40.5-9c16.4-9.4,53.8-56.2,12.1-48.1a42.33,42.33,0,0,0-13.5,4.6C1127,1439.4,1123.7,1442.8,1120.4,1446.2Z" fill="#ffeecb"/><path d="M1101.5,1479.3c13.5-.6,26.6-6.1,37.4-14.3,8.6-6.5,16.9-15.3,22.1-24.8a19.25,19.25,0,0,0,1.8-4.7c-1.1-2.1-3.3-3.5-7-3.9-2.2,2.1-4,5.6-4.9,7.4A84.57,84.57,0,0,1,1101.5,1479.3Z" fill="#c1a778"/><path d="M1131.8,1401.5l-43.5-16a6,6,0,0,0-7.7,7.7,70.79,70.79,0,0,0,24.8,33.3c15.3,11.1,73.3,26.1,48.9-8.7a41.72,41.72,0,0,0-9.7-10.4C1140.7,1404.7,1136.2,1403.1,1131.8,1401.5Z" fill="#ffeecb"/><path d="M1093.9,1397.8c6.1,12.1,16.4,21.8,28.3,28.3,9.5,5.1,20.8,9.1,31.7,10a21.92,21.92,0,0,0,5-.2c1.4-1.8,1.8-4.4.7-8-2.8-1.2-6.7-1.3-8.7-1.5A84.4,84.4,0,0,1,1093.9,1397.8Z" fill="#c1a778"/><path d="M836.1,703.6c-5.8,0-5.8,9,0,9S841.9,703.6,836.1,703.6Z" fill="#ffab03"/><path d="M902.3,669.6c-2.9,0-2.9,4.5,0,4.5S905.2,669.6,902.3,669.6Z" fill="#ffab03"/><path d="M870.2,711.5l-2,.1a5.5,5.5,0,0,0-4.7,3,3.18,3.18,0,0,0,0,4.1,5.37,5.37,0,0,0,4.7,3c.7,0,1.3.1,2,.1a5.23,5.23,0,0,0,5.2-5.2C875.3,714.1,873.1,711.3,870.2,711.5Z" fill="#ffab03"/><path d="M942.9,701.9c-2.6,0-2.6,4.1,0,4.1S945.5,701.9,942.9,701.9Z" fill="#ffab03"/><path d="M867.6,671a5.84,5.84,0,0,0-2.7-3.5,7,7,0,0,0-3.2-.9,5.52,5.52,0,0,0-3.9,1.6,4.8,4.8,0,0,0-1.4,2.5,4.12,4.12,0,0,0-.1,2.2,4.37,4.37,0,0,0,.7,2.1,4,4,0,0,0,1.4,1.5c.1.2.3.3.4.4l1.1.8a3.61,3.61,0,0,0,2,.6,5.09,5.09,0,0,0,3.4-.6l1.1-.8a5.51,5.51,0,0,0,1.4-2.3A11.07,11.07,0,0,0,867.6,671Z" fill="#ffab03"/><path d="M732.2,762.9a32.83,32.83,0,0,0-3.1-3.4,2.9,2.9,0,0,0-3.2-.6,3,3,0,0,0-1.8,2.7,25.63,25.63,0,0,0,1,5.4c.6,2.7,3.9,3.8,6.2,2.5a4,4,0,0,0,1.9-2.5A4.12,4.12,0,0,0,732.2,762.9Z" fill="#ffab03"/><path d="M948.6,651.2a4.75,4.75,0,0,0-3.6-1.5,2.2,2.2,0,0,0-.8.1h-.3a4.06,4.06,0,0,0-1.9.4c-.2.1-.5.2-.7.3a4.91,4.91,0,0,0-2.4,4.2,4.79,4.79,0,0,0,2.4,4.2,6.79,6.79,0,0,0,2,.7c.3,0,.7.1,1,.1a2.2,2.2,0,0,1,.8.1,5.08,5.08,0,0,0,3.6-1.5,5.33,5.33,0,0,0,1.5-3.6A6,6,0,0,0,948.6,651.2Z" fill="#ffab03"/><path d="M1343,643.5a3.92,3.92,0,0,0-3.7-1c-.7.1-1.4.3-2,.4-.3.1-.5.2-.8.3a2.84,2.84,0,0,0-1,.9,3.14,3.14,0,0,0-.7,2.1,3.37,3.37,0,0,0,.5,1.7,3.89,3.89,0,0,0,2,1.6c.7.1,1.4.3,2,.4a3.64,3.64,0,0,0,3.7-1,3.86,3.86,0,0,0,0-5.4Z" fill="#ffd985"/><path d="M1395.8,651a1.65,1.65,0,0,0,0,3.3A1.65,1.65,0,0,0,1395.8,651Z" fill="#ffd985"/><path d="M1342.4,678.8a1.6,1.6,0,0,0,0,3.2A1.6,1.6,0,0,0,1342.4,678.8Z" fill="#ffd985"/><path d="M1402.5,681a2.7,2.7,0,0,0-.7-.8c0-.1-.1-.2-.1-.3a1.73,1.73,0,0,0-3.3,0c0,.1-.1.2-.1.3a5.72,5.72,0,0,0-.7.8,2.81,2.81,0,0,0,2.4,4.2C1402.1,685.1,1403.7,682.8,1402.5,681Z" fill="#ffd985"/><path d="M1501.2,710.4a2.4,2.4,0,0,0-.7-1.2,3.18,3.18,0,0,0-1-1,5.55,5.55,0,0,0-3.3-1.2,5.68,5.68,0,0,0-4.7,2.7,5.6,5.6,0,0,0,.8,6.6,9.34,9.34,0,0,0,1.5,1.3,4.71,4.71,0,0,0,4.6,0,9.34,9.34,0,0,0,1.5-1.3,7.63,7.63,0,0,0,.8-1.1,6.94,6.94,0,0,0,.5-1.3A4.26,4.26,0,0,0,1501.2,710.4Z" fill="#ffd985"/><path d="M1457,740.3c-.1-.3-.1-.7-.2-1s-.2-.5-.3-.8a2.84,2.84,0,0,0-.9-1,3.14,3.14,0,0,0-2.1-.7,3.37,3.37,0,0,0-1.7.5,3.89,3.89,0,0,0-1.6,2c-.1.3-.1.7-.2,1a2.77,2.77,0,0,0-.1.9,2.57,2.57,0,0,0,.1,1.5c.1.3.3.7.4,1a3.65,3.65,0,0,0,3.1,1.8,3.53,3.53,0,0,0,3.1-1.8,6.64,6.64,0,0,0,.6-2A7.84,7.84,0,0,0,1457,740.3Z" fill="#ffd985"/><path d="M1562.5,737.4c-6.4,0-6.4,9.9,0,9.9S1568.8,737.4,1562.5,737.4Z" fill="#ffd985"/><path d="M868.1,1481c-3.5,0-3.5,5.4,0,5.4S871.6,1481,868.1,1481Z" fill="#ffd985"/><path d="M870.2,1431.5c-4,0-4,6.2,0,6.2S874.2,1431.5,870.2,1431.5Z" fill="#ffd985"/><path d="M866,1382.9c-6,0-6.1,9.4,0,9.4S872,1382.9,866,1382.9Z" fill="#ffd985"/><path d="M848.3,1465.6c-.1-.5-.2-1-.3-1.4a10.62,10.62,0,0,0-2.1-3.1,4.83,4.83,0,0,0-6.8,0,5.22,5.22,0,0,0-1.4,3.4,4.94,4.94,0,0,0,1.4,3.4,8.51,8.51,0,0,0,3.1,2.1l1.4.3a3.92,3.92,0,0,0,3.7-1A3.86,3.86,0,0,0,848.3,1465.6Z" fill="#ffd985"/><path d="M866,1524c-5.9,0-5.9,9.2,0,9.2S871.9,1524,866,1524Z" fill="#ffd985"/><path d="M1402.1,1509.4a3,3,0,0,0-4.6.6c-.3.4-.5.9-.8,1.3a13,13,0,0,0-.8,1.7,2.08,2.08,0,0,0,2.5,2.5,5.31,5.31,0,0,0,1.7-.8c.4-.3.9-.5,1.3-.8A2.73,2.73,0,0,0,1402.1,1509.4Z" fill="#ffd985"/><path d="M1421.5,1456.3c-5,0-5,7.8,0,7.8S1426.5,1456.3,1421.5,1456.3Z" fill="#ffd985"/><path d="M1441.3,1487.4l-2.1-2.1a4.11,4.11,0,0,0-5.6,0,3.55,3.55,0,0,0-1.1,2.8,4.3,4.3,0,0,0,1.1,2.8l2.1,2.1a4.11,4.11,0,0,0,5.6,0,4.11,4.11,0,0,0,0-5.6Z" fill="#ffd985"/><path d="M1442.8,1524.9c-4.7,0-4.7,7.3,0,7.3S1447.5,1524.9,1442.8,1524.9Z" fill="#ffd985"/><path d="M1400.1,1391.2c-6.4,0-6.4,9.9,0,9.9S1406.5,1391.2,1400.1,1391.2Z" fill="#ffd985"/><path d="M1415,1340.4c-5.7,0-5.7,8.9,0,8.9S1420.8,1340.4,1415,1340.4Z" fill="#ffd985"/><path d="M1440.7,1238.2c-5.2,0-5.3,8.2,0,8.2S1445.9,1238.2,1440.7,1238.2Z" fill="#ffd985"/><path d="M1143.7,480.2c10,10.2,6.2,28.5-4.5,37.9s-25.8,11.8-40.1,11.9c-12.5.1-26-1.6-35.3-10.1-6.4,12.3-25.7,28.3-38.6,23.4-13.1,12.1-35.2,13-49.2,1.8,3.5,9.8-4,19.8-13.9,22.9s-20.6.6-30.7-1.8c3.4,6.4-1.1,14.8-7.6,18.1s-14.2,2.7-21.4,1.6a75.77,75.77,0,0,1,11,48c10.3,4.8,9.4,26.5-1,30.9,10.4,12,5.1,33.7-9.7,39.5,7.8,2.8,13.8,15.8,11,23.6s-8,14.9-8.1,23.2c0,5.4,2.2,10.6,2.8,16a26.38,26.38,0,0,1-8.3,21.7c-7.4-12.3-11.5-38.2-8.1-52.2-11.9-.5-19.6-16.7-12.4-26.2-6.2-6.1-6.1-19,1.8-22.4a31,31,0,0,1-4.5-22.4c-5,4.9-14.3-1.9-16-8.7s2.2-13.9,7.2-18.8c-10.4-.5-17.8-13.6-13-22.8-6.6,11.4-22.5,10.5-35.5,8.4-2.1,7.1-5.8,14.3-12.3,17.9s-16.1,2.3-19.4-4.4c1.3,7.5-4.5,14.9-11.5,18s-14.9,3-22.6,2.8c-3.2-.1-6.6-.2-9.2-2s-3.9-6-1.7-8.2c2.7,9.3,1.7,16.9-5.3,23.5a26.94,26.94,0,0,1-27,5.6c5.1,14.3-6.7,30.1-20.9,24.5,9.7,11,3.7,31.3-10.4,35.2,7.6-2.4,11.5,8.9,12.6,16.8s-5.9,15.9-13.8,15.8c7.7,5.1,10.8,16,7,24.3s-14.1,13.1-22.9,10.6c4.8,5.6,9.9,11.7,10.4,19s-6.3,15.4-13.3,13.1l9.6.3c7.2.3,12,7.6,16,13.5s.2,16.5-6.9,15.6c3.9-2.4,9.3.5,11.2,4.6s1.4,8.9.8,13.4c11-1.8,22.7,5.5,25.9,16.1-6.8-6.2-19.9-1.4-21,7.7,7.1,4.4,14.9,14.9,16.2,23.2l-15.9,1.2c4.5,8.3,9,16.7,13.5,25l-7.4,1.2a34.56,34.56,0,0,0,4.9,30.2c7.8.3,16.9,6.2,17.7,14a16.82,16.82,0,0,1-12.5,17.3c2.6,6,5.1,12,7.7,18-6.1-4-13.4,5.4-11.5,12.5s8.1,12.1,11.6,18.5a26.22,26.22,0,0,1-.6,25.6c-3.2,5.4-4.4,7-10.5,5.6a174.24,174.24,0,0,1,2.2,73.3c-2.4,12.8-6.8,14.2-7.4,27.2-.2,3.5-.3,7.1-.5,10.6-.7,14.7-1.3,29.3-2,44-.3,6.2-8,22.8-8.1,28.9-11.1.1-17.1-13.6-16.6-24.7s4.5-22.6.8-33.1c-7.1.1-13.5-10.4-15.7-17.2a17.3,17.3,0,0,1,6.5-18.9c-10.7-6.9-5.9-23.2,0-34.5-2.4-3.7-1-14.5,1.8-18-4.5-1.3-8.9-2.7-13.4-4a29.14,29.14,0,0,1,6.9-19.5c4-4.7,4.1-14.9,8.8-19-3.2-1.3-6.5-2.5-9.7-3.8-3-5,1.5-12.6,7.3-12.4-11.8-2.5-20.1-19.2-26.5-29.4l7.2-11.1c-4.2-1.5-8.8-3.2-11.1-7.1s-.4-10.2,4.1-10.3c-6.8,2.1-13.8-10.2-14.5-17.2s2.8-13.8,6.2-20c4.6,7.3-19.8,7.8-19.5,16.4.1,1.9,1,3.8.7,5.7-.5,2.9-3.7,4.4-6.5,5.3-6,2.1-12.7,4.2-18.6,1.7s-8.3-12.1-2.7-15.1c-.2,4.2-6.4,3.9-8,0s.6-8.2,3.3-11.4,6.1-6.2,7-10.3-2.4-9.3-6.4-8.2c2.6.5,5.9-7.1,6.3-4.4-7.8-1-16.3-2.4-21.7-8.2s-4.6-17.4,3.1-19.5c-1.7-2.3-3.3-4.7-5-7-5.7,2.4-10.1-5.1-12.3-10.9s1.3-13.1,7.1-15.1c-7.3-7.5-6.8-28.9,2.1-34.5-12.7-7.8-16.2-27.4-7-39.1-7,.9-20.9,1.9-25-3.8s.5-16.2,7.4-14.5c-10.4-7.6-15.1-22.2-11.2-34.5-6.9,2.4-8.2-9.4-6-16.3s9-11.1,15.4-14.7c-7.3-.5-7.6-14-.3-14.7-1.5-5.9-3-11.7-4.5-17.6-6.4,8.8-19.1,22.6-29.9,23.6-3,.3-7.1-.8-7.1-3.8,0-1.6,1.3-2.9,2.5-4l23.5-21.7c-7.8,2.8-22.4-15-22.4-23.3s9.7-14.9,17.4-12c-6.3,4.9-21.1-14.1-20.7-22.1s12-12.5,17.7-7c-7.2,3.9-14.6-11-12.2-18.9a81.47,81.47,0,0,0,20.9-1.4c-6.7,3.3-21.4-14.1-25.7-20.2a16.19,16.19,0,0,1,2-20.4c-3.5-.1-7.2-5.7-10.7-5.8-2.2-11.9,10.8-23.7,22.4-20.3-4.9-2.9-10.2-6.3-11.5-11.8s5.1-12.1,9.7-8.8c-7.6-1.5-17.5-8.2-25.1-9.7-5-1-11.3-3.4-11.3-8.5,0-2.3,1.3-4.4,2.7-6.2a39.59,39.59,0,0,1,21.6-13.7c-1.8-4.8,1.5-21.7,6.5-23s11.2-2.9,12.3-7.9c.5-1.9,0-3.9-.1-5.8-.6-14.4,16.6-21.8,30.6-25.2a176.66,176.66,0,0,1-18.6-14.7c-1.2-1.1-2.5-2.5-2.4-4.1.2-2.5,3.3-3.4,5.8-3.7,7.8-1,15.6-1.9,23.4-2.9-5.8-4.2-4.9-6.8-8.3-13s-3.4-15,1.9-19.7c8.3-7.4,22.1.3,26.6,10.5-.1-5.1,11.4-2.3,16.4-3.5a11.54,11.54,0,0,1,12.7,6.1c-4.7-7.6,4.4-29,10.4-35.6a21.28,21.28,0,0,1,24.5-4.8c-9.8-2.7-3.5-16.1,5.6-20.7s20.2-.4,28.4,5.7c-4-3.3,4.9-10.6,8.8-14.1s9.6-4,14.7-3c3.2.7,6.5,1.9,9.7,1,3.5-1,5.8-4.2,8-7.1,4.1-5.3,9.1-10.4,15.5-12.4s14.4-.1,17.7,5.8c-3.3-21.3,20.6-57.7,41.7-52.9a43.82,43.82,0,0,1,63.1-31.4c20.6-20.2,66-14.7,79.5,10.8,4.4-15.6,8.6-39.8,24.3-36.1,8.4-6.6,27.3-20.1,37.9-21.8s22.5,1.6,28.5,10.5a39.15,39.15,0,0,1,21.1-17.7c4.9,2.3,21.5,6.9,26.8,7.3,6.2.5,10.2,8.8,6.8,14l12.4,1.2c5.4-3.9,28.9,6.9,34.5,10.6a17.09,17.09,0,0,1,7.2,17.4,10.2,10.2,0,0,1,6.7-6.7c10.1-3,36.2-3.4,42.8,4.8A22,22,0,0,0,1167,222c9.7-2.9,21.1,3,24.4,12.6,6.4-2.3,10.8,14.8,6.8,20.3s-12.1,6.1-18.7,4.5c7.6,5.5,15.6,11.5,18.8,20.3s-1,20.9-10.3,22.3c6.3,7.5,12.7,15.4,15.3,24.9s-.1,21.1-8.6,25.9c-3.8,2.2-9.2,3.7-9.8,8-.3,2,.6,4,1.6,5.9,4.5,8.4,10.2,16.4,12.6,25.7s.4,20.6-7.7,25.7c-6.8,4.3-17.9,5.2-18.9,13.2-1,8.2,11.3,15.3,7.3,22.6-7.2,3.2-14.3,6.4-21.5,9.6a12.39,12.39,0,0,1-1.7,14.6C1152.9,481.3,1148.2,482.9,1143.7,480.2Z" fill="#ffda03"/><path d="M605,456.9c29.2,10,62.2-.4,86.8-18.9,3.9,15.6,19.5,27.5,35.6,27s31-13.2,34-29c-.4,13.4,14.8,23.6,27.9,20.9s22.6-15.1,25.4-28.1c7.1,8.5,20.5,11.1,30.3,5.8s15-17.8,11.9-28.4c15.1,10.1,37.2,8.2,50.2-4.5,3.1-3,5.9-6.7,10-8.1,3.9-1.4,8.2-.4,12.4-.3,18.7.3,34-21.6,27.2-39-14,22.9-54.2,21.2-66.2-2.9-19.1,18.4-50.9,21.9-73.5,8.1-12.8,25.9-53.3,32-73,10.9-14.2,10.1-29.5,20.5-46.9,21.6s-36.8-11.7-36.2-29.1c-11.2,12.7-31.3,16.5-46.4,8.8a40.39,40.39,0,0,1-8.1-5.6c-3.6,8.2-6.1,17.8-3.7,22.9a5.94,5.94,0,0,1,.4.8,5.94,5.94,0,0,1-.4-.8,11.65,11.65,0,0,0-12.3-5.3c-4.9,1.2-16.5-1.6-16.4,3.5-4.5-10.1-18.3-17.8-26.6-10.5h0C550.8,406.9,581.1,448.7,605,456.9Z" fill="#ffac06"/><path d="M1134.7,282.1a33.65,33.65,0,0,1-46.6,35.4,6.17,6.17,0,0,1,1.2,5.4c-.9,2.9-3.6,4.9-6.2,6.5a62,62,0,0,1-43.2,7.4,41.11,41.11,0,0,1,7.3,5.3c23,18.3,61.4,11.6,76.8-13.5,17.2,6,35.5,12.1,53.3,7.9a39.55,39.55,0,0,0,23.4-16.8c-3.2-6.6-8-12.4-12.7-18.1,9.3-1.4,13.5-13.5,10.3-22.3-2.6-7.2-8.4-12.5-14.5-17.2C1173.4,277.6,1153.1,286.5,1134.7,282.1Z" fill="#ffac06"/><path d="M581.9,888.3c-3.8-4.2-1.3-11.2,2.7-15.3s9.4-7,12.2-12a8.55,8.55,0,0,1-.8-16.8c-12.8.6-23.9-19.4-17.9-30.6a15.55,15.55,0,0,1-8.1-28.9c-9.3-3.5-10.1-16.7-6.2-25.8.9-2.2,2.1-4.4,1.9-6.8s-1.6-4.6-2.6-6.9c-4.8-10.8,2.8-25,14.4-27.1-6.8-.5-12.1-8.2-10.1-14.8,1.3-4.4,5.1-7.5,8.8-10.3,11.5-8.8,24.5-18.6,26.5-32.9-5.7,4-13.8,2.5-19.4-1.6s-9.2-10.3-12.6-16.4c-10.8,4-24.2-3.4-26.6-14.6-5.7,8.6-18.6,11.3-27.3,5.7-1.9-1.2-3.7-2.8-5.9-3.2-3.3-.6-6.3,1.6-9.3,3.3a20.31,20.31,0,0,0,3.6,6.5,9.62,9.62,0,0,1,7.8,2.3c-2.8,1.5-5.5.2-7.8-2.3-4.9.6-9.7,4.3-10,9.3-.3,5.9,7.7,17.8,14.4,21.6a11.35,11.35,0,0,1,6.3.5c-1.6,1.3-3.9.9-6.3-.5-5.9,1.1-11.2,6.4-11.2,12.5,0,8.3,14.6,26.1,22.4,23.3l-23.5,21.7c-1.2,1.1-2.5,2.4-2.5,4,0,3,4.1,4.1,7.1,3.8,10.8-1,23.6-14.8,29.9-23.6,1.5,5.9,3,11.7,4.5,17.6-7.3.7-7,14.3.3,14.7-6.3,3.6-13.1,7.8-15.4,14.7s-.9,18.7,6,16.3a32,32,0,0,0,11.2,34.5c-6.8-1.7-11.5,8.8-7.4,14.5s18,4.7,25,3.8c-9.3,11.7-5.8,31.3,7,39.1-8.9,5.5-9.5,27-2.1,34.5a12.05,12.05,0,0,0-7.1,15.1c.1.1.1.3.2.4C559.9,904.8,568.9,893.8,581.9,888.3Z" fill="#fff3c0"/><path d="M1171.2,397.2c-15.9,12.3-38.7,17.9-56.6,8.7.6,13.5-13.2,23.3-26.4,26.1s-27.2,1.5-39.9,6c-6.2,2.2-12,5.9-18.5,6.8s-14.4-2-16-8.4c-8.3,14.7-27.8,21.9-43.7,16.1,3.9,7-5.5,13.9-13.1,16.5-25.5,8.8-50.9,17.6-76.4,26.4-15.8,5.5-34,10.8-48.5,2.4,18.4,19,50.8,22.2,72.6,7.2,13.7,13.8,36.8,7.4,54.9.2,13.2-5.3,27.5-11.5,34-24.2,12.2,11.7,36.7,2.7,38.3-14.2a24,24,0,0,0,22.8-.5c1.4-2.5,3.5-4.5,6.1-4.9a20.61,20.61,0,0,1-6.1,4.9c-2.1,3.9-2.3,9.1.9,11.6,5.3,4.1,13.8,1.5,17.2-4.3a31.4,31.4,0,0,0,34.9,5.1c5.1,9.5,17.4,12.1,28.1,12.5q6.6.15,13.2-.3a20.51,20.51,0,0,0-5.4-10.9c4.5,2.7,9.2,1.1,12.9-2.6a12.38,12.38,0,0,0,1.7-14.6c7.2-3.2,14.3-6.4,21.5-9.6,4-7.3-8.3-14.4-7.3-22.6,1-8,12.1-8.8,18.9-13.2,8.1-5.1,10-16.5,7.7-25.7-1.5-6-4.4-11.4-7.5-16.7A95.58,95.58,0,0,1,1171.2,397.2Z" fill="#ffea94"/><path d="M523.2,560.4c6.1,7.1,19.2,5.9,24-2.1,12.5,7.8,31.7-1.6,33.3-16.2,25.6,5,52.1-8.9,68.8-28.9,8.4-10.1,15.1-24,9.7-35.9,1.7,12.8-12.1,25.1-24.7,21.9-1.6,11.2-15.3,18.7-25.5,14-2.2-1-4.7-2.5-6.9-1.6-1.5.6-2.4,2.1-3.2,3.4-9,13.3-27.4,7.3-39.7-3-11.2,12.7-35.7,8.1-41.5-7.9-9.9,3.1-20.9,1-29.7-4.6a39.94,39.94,0,0,0-13.4,10.7c-1.4,1.8-2.8,3.9-2.7,6.2.1,5.1,6.3,7.5,11.3,8.5,6.6,1.3,14.9,6.5,22,8.9a4.06,4.06,0,0,1,3.1.9,18.12,18.12,0,0,1-3.1-.9c-3.9.4-7.6,5.4-6.5,9.7,1.3,5.5,6.6,9,11.5,11.8-11.6-3.3-24.6,8.5-22.4,20.3,3.5.1,7.2,5.7,10.7,5.8a17.59,17.59,0,0,0-3.2,4.5c6.5-.1,13-1.1,18.6-4.4C520.9,577.4,525.9,568.4,523.2,560.4Z" fill="#ffea94"/><path d="M923.9,747.6a8.49,8.49,0,0,0-5.9-2.4,9.8,9.8,0,0,0-5.1,1.1,8.45,8.45,0,0,0-1.8,1.5,10.92,10.92,0,0,0-1.3,1.7,6.23,6.23,0,0,0-1.5,4,6.47,6.47,0,0,0,.4,2,7.41,7.41,0,0,0-1.3-1.2,4.71,4.71,0,0,0-1.5-.6,24.52,24.52,0,0,1-.2-2.7c.1-8.2,5.3-15.4,8.1-23.2a12.32,12.32,0,0,0,.7-4.4c-19.5-18.7-27.7-49.6-17.4-74.9-12.9-9.4-17.1-28.8-9.3-42.7a16,16,0,0,1-13-27.8c-6.8-1-14.1-2.1-19.4-6.6-4.1-3.4-9.3-7-9.3-10.7a11.76,11.76,0,0,1-8.3.3c-13.4-4.5-26.8-8.9-40.2-13.4,1.3,9.3,8.5,19,17.7,20.9a17.5,17.5,0,0,1-10.9,18.2c-7.2,2.6-16-2.4-20.1-8.8a15.19,15.19,0,0,1-29,4.8c3.8,7.8.6,18.3-6.9,22.6s-25.3,4.7-30.2-2.4c.5,7.9-7,14.6-14.9,15.5s-15.6-2.4-22.4-6.4c-6.5,13.2-19.8,22.1-34.1,25.6s-29.3,2.1-43.5-1.4c-2-.5-4.4-.9-5.7.7a4.79,4.79,0,0,0-.9,2.6c-.6,7.2,5.5,13.8,12.5,15.2s7.6.4,13.1-4.2c18.7,11.4,44.7,9.2,61.2-5.2.6,7.9,1,16.6-3.9,22.9s-20.3,13.6-22.3,5.9a19.71,19.71,0,0,1-24.9,25.4c8,13.6-4,33.9-19.8,33.5a19.13,19.13,0,0,1-26.9,23.2c1.6,7.4,1.7,21-2.3,24.5,6,.2,12,1.7,16.1,5.9,5.1,5.3,4.9,15.7-1.8,18.8a15.59,15.59,0,0,0,17.2,8.9c6.8-1.5,12.3,2.8,12-4.2,8.2,12.6,2.2,32.1-11.8,37.9,2.1,5.2,4.3,11,2.9,16.4s-10.2,7.2-14.7,3.9c6.2,3.7,4,14.2-2.3,17.8s-14.1,2.6-21.2,1.4a15,15,0,0,0,7.6,11.5l-6.3,6.9c6,11.5,21.3,15.5,28.3,4.6.6,10.1,13.5,15.9,22.9,12.1s14.7-14,16-24a15.47,15.47,0,0,1,1,18.7c5.6,1.9,11.1,5.5,13.2,11s.7,22.4-5.1,23.9c10.2,3.1,13.1,19.2,4.6,25.7,7.2,3,10.9,14.5,6.6,21.1,4.2,8.2,8.5,16.4,12.7,24.6,2.1,4,4.2,8.2,4.4,12.8s-2,9.5-6.3,11c11.6,5.1,16.5,21.4,9.3,31.8a290.08,290.08,0,0,1-7,71.3,56.67,56.67,0,0,0-1.6,9c-.1,2.1.1,4.2.2,6.3,1,19.8-3.7,39.3-8.5,58.5a9,9,0,0,0,4.5,1.3c3.7,10.5-.3,22-.8,33.1s5.4,24.9,16.6,24.7c.1-6.2,7.8-22.8,8.1-28.9.7-14.7,1.3-29.3,2-44,.2-3.5.3-7.1.5-10.6.6-13,5.1-14.4,7.4-27.2a174.24,174.24,0,0,0-2.2-73.3c6.1,1.5,7.2-.2,10.5-5.6a26.48,26.48,0,0,0,.6-25.6c-3.5-6.5-9.7-11.5-11.6-18.5s5.4-16.5,11.5-12.5c-2.6-6-5.1-12-7.7-18,7.6-1.7,13.2-9.5,12.5-17.3s-9.9-13.7-17.7-14a34.56,34.56,0,0,1-4.9-30.2l7.4-1.2c-4.5-8.3-9-16.7-13.5-25l15.9-1.2c-1.3-8.3-9.1-18.8-16.2-23.2,1.1-9.1,14.3-13.9,21-7.7-3.2-10.6-14.9-18-25.9-16.1.6-4.5,1.1-9.3-.8-13.4a9.73,9.73,0,0,0-7.2-5.4,6.07,6.07,0,0,1-4,.8,5.63,5.63,0,0,1,4-.8c4.3-2.5,6-10.1,2.9-14.8-4-6-8.9-13.3-16-13.5-1.8-.1-3.5-.1-5.3-.2a7.92,7.92,0,0,1-4.3-.2c1.4.1,2.9.1,4.3.2,5.2-1.3,9.4-7.5,9-13.3-.5-7.3-5.5-13.4-10.4-19,8.8,2.5,19.1-2.3,22.9-10.6s.7-19.2-7-24.3c7.9.1,15-7.9,13.8-15.8s-5.1-19.2-12.6-16.8c14.1-3.9,20.1-24.3,10.4-35.2a14.63,14.63,0,0,0,12.5-.5c-.8,15.4-1,30.9-.5,46.3.7,23.6,2.5,47,6.8,70.2.9,4.9,9.1,3.8,8.7-1.2-1.8-23.3-4.1-46.6-5.3-69.9-.9-18.4-1.3-36.8-1.5-55.2a20.65,20.65,0,0,0,.1-14.3,26.94,26.94,0,0,0,27-5.6c4.9-4.6,6.9-9.7,6.7-15.5-2.4-1.9-3.5-5.8-1.4-8a34.54,34.54,0,0,1,1.4,8c.1.1.2.1.3.2,2.6,1.8,6,2,9.2,2,7.6.2,15.6.3,22.6-2.8s12.8-10.4,11.5-18c3.3,6.7,12.9,8,19.4,4.4s10.1-10.8,12.3-17.9c13,2.1,28.9,3,35.5-8.4-4.9,9.2,2.6,22.3,13,22.8-5,4.9-8.9,12-7.2,18.8s11,13.6,16,8.7a30.49,30.49,0,0,0,4.5,22.4c-7.9,3.4-8,16.3-1.8,22.4-7.2,9.5.5,25.7,12.4,26.2-2.7,11.2-.7,29.8,4,43.2,0,.1,0,.2.1.2a11.22,11.22,0,0,0,.5,1.3,47.72,47.72,0,0,0,3.6,7.5,23.28,23.28,0,0,0,2.6-2.8,8.67,8.67,0,0,0,6.8-1.3,13,13,0,0,0,2.3-1.8,11.38,11.38,0,0,0,1.8-2.5,8.92,8.92,0,0,0,1.2-4.5c-.1-.4-.1-.8-.2-1.1s.1-.7.1-1.1c-.1-1.4-.4-2.8-.6-4.1L913,767a6.36,6.36,0,0,0-2.2-2.4,4.53,4.53,0,0,0-1.9-1.1,6.94,6.94,0,0,0-1.3-.5c-.1-.3-.1-.6-.2-.9.2-.2.5-.3.7-.6a3.36,3.36,0,0,0,1-1.6,5.53,5.53,0,0,0,.3-3.1c.1.1.2.3.3.4s.3.5.5.7a7,7,0,0,0,2.5,2.3,10,10,0,0,0,5.1,1.1,8.67,8.67,0,0,0,5.9-2.4,8.49,8.49,0,0,0,2.4-5.9A7.16,7.16,0,0,0,923.9,747.6Z" fill="#ffea94"/><path d="M1155.5,480.2c-10,10.2-6.2,28.5,4.5,37.9s25.8,11.8,40.1,11.9c12.5.1,26-1.6,35.3-10.1,6.4,12.3,25.7,28.3,38.6,23.4,13.1,12.1,35.2,13,49.2,1.8-3.5,9.8,4,19.8,13.9,22.9s20.6.6,30.7-1.8c-3.4,6.4,1.1,14.8,7.6,18.1s14.2,2.7,21.4,1.6a75.77,75.77,0,0,0-11,48c-10.3,4.8-9.4,26.5,1,30.9-10.4,12-5.1,33.7,9.7,39.5-7.8,2.8-13.8,15.8-11,23.6s8,14.9,8.1,23.2c0,5.4-2.2,10.6-2.8,16a26.38,26.38,0,0,0,8.3,21.7c7.4-12.3,11.5-38.2,8.1-52.2,11.9-.5,19.6-16.7,12.4-26.2,6.2-6.1,6.1-19-1.8-22.4a31,31,0,0,0,4.5-22.4c5,4.9,14.3-1.9,16-8.7s-2.2-13.9-7.2-18.8c10.4-.5,17.8-13.6,13-22.8,6.6,11.4,22.5,10.5,35.5,8.4,2.1,7.1,5.8,14.3,12.3,17.9s16.1,2.3,19.4-4.4c-1.3,7.5,4.5,14.9,11.5,18s14.9,3,22.6,2.8c3.2-.1,6.6-.2,9.2-2s3.9-6,1.7-8.2c-2.7,9.3-1.7,16.9,5.3,23.5a26.94,26.94,0,0,0,27,5.6c-5.1,14.3,6.7,30.1,20.9,24.5-9.7,11-3.7,31.3,10.4,35.2-7.6-2.4-11.5,8.9-12.6,16.8s5.9,15.9,13.8,15.8c-7.7,5.1-10.8,16-7,24.3s14.1,13.1,22.9,10.6c-4.8,5.6-9.9,11.7-10.4,19s6.3,15.4,13.3,13.1l-9.6.3c-7.2.3-12,7.6-16,13.5s-.2,16.5,6.9,15.6c-3.9-2.4-9.3.5-11.2,4.6s-1.4,8.9-.8,13.4c-11-1.8-22.7,5.5-25.9,16.1,6.8-6.2,19.9-1.4,21,7.7-7.1,4.4-14.9,14.9-16.2,23.2l15.9,1.2c-4.5,8.3-9,16.7-13.5,25l7.4,1.2a34.56,34.56,0,0,1-4.9,30.2c-7.8.3-16.9,6.2-17.7,14a16.82,16.82,0,0,0,12.5,17.3c-2.6,6-5.1,12-7.7,18,6.1-4,13.4,5.4,11.5,12.5s-8.1,12.1-11.6,18.5a26.22,26.22,0,0,0,.6,25.6c3.2,5.4,4.4,7,10.5,5.6a174.24,174.24,0,0,0-2.2,73.3c2.4,12.8,6.8,14.2,7.4,27.2.2,3.5.3,7.1.5,10.6.7,14.7,1.3,29.3,2,44,.3,6.2,8,22.8,8.1,28.9,11.1.1,17.1-13.6,16.6-24.7s-4.5-22.6-.8-33.1c7.1.1,13.5-10.4,15.7-17.2a17.3,17.3,0,0,0-6.5-18.9c10.7-6.9,5.9-23.2,0-34.5,2.4-3.7,1-14.5-1.8-18,4.5-1.3,8.9-2.7,13.4-4a29.14,29.14,0,0,0-6.9-19.5c-4-4.7-4.1-14.9-8.8-19,3.2-1.3,6.5-2.5,9.7-3.8,3-5-1.5-12.6-7.3-12.4,11.8-2.5,20.1-19.2,26.5-29.4l-7.2-11.1c4.2-1.5,8.8-3.2,11.1-7.1s.4-10.2-4.1-10.3c6.8,2.1,13.8-10.2,14.5-17.2s-2.8-13.8-6.2-20c-4.6,7.3,19.8,7.8,19.5,16.4-.1,1.9-1,3.8-.7,5.7.5,2.9,3.7,4.4,6.5,5.3,6,2.1,12.7,4.2,18.6,1.7s8.3-12.1,2.7-15.1c.2,4.2,6.4,3.9,8,0s-.6-8.2-3.3-11.4-6.1-6.2-7-10.3,2.4-9.3,6.4-8.2c-2.6.5-5.9-7.1-6.3-4.4,7.8-1,16.3-2.4,21.7-8.2s4.6-17.4-3.1-19.5c1.7-2.3,3.3-4.7,5-7,5.7,2.4,10.1-5.1,12.3-10.9s-1.3-13.1-7.1-15.1c7.3-7.5,6.8-28.9-2.1-34.5,12.7-7.8,16.2-27.4,7-39.1,7,.9,20.9,1.9,25-3.8s-.5-16.2-7.4-14.5c10.4-7.6,15.1-22.2,11.2-34.5,6.9,2.4,8.2-9.4,6-16.3s-9-11.1-15.4-14.7c7.3-.5,7.6-14,.3-14.7,1.5-5.9,3-11.7,4.5-17.6,6.4,8.8,19.1,22.6,29.9,23.6,3,.3,7.1-.8,7.1-3.8,0-1.6-1.3-2.9-2.5-4l-23.5-21.7c7.8,2.8,22.4-15,22.4-23.3s-9.7-14.9-17.4-12c6.3,4.9,21.1-14.1,20.7-22.1s-12-12.5-17.7-7c7.2,3.9,14.6-11,12.2-18.9a81.47,81.47,0,0,1-20.9-1.4c6.7,3.3,21.4-14.1,25.7-20.2a16.19,16.19,0,0,0-2-20.4c3.5-.1,7.2-5.7,10.7-5.8,2.2-11.9-10.8-23.7-22.4-20.3,4.9-2.9,10.2-6.3,11.5-11.8s-5.1-12.1-9.7-8.8c7.6-1.5,17.5-8.2,25.1-9.7,5-1,11.3-3.4,11.3-8.5,0-2.3-1.3-4.4-2.7-6.2a39.59,39.59,0,0,0-21.6-13.7c1.8-4.8-1.5-21.7-6.5-23s-11.2-2.9-12.3-7.9c-.5-1.9,0-3.9.1-5.8.6-14.4-16.6-21.8-30.6-25.2a176.66,176.66,0,0,0,18.6-14.7c1.2-1.1,2.5-2.5,2.4-4.1-.2-2.5-3.3-3.4-5.8-3.7-7.8-1-15.6-1.9-23.4-2.9,5.8-4.2,4.9-6.8,8.3-13s3.4-15-1.9-19.7c-8.3-7.4-22.1.3-26.6,10.5.1-5.1-11.4-2.3-16.4-3.5a11.54,11.54,0,0,0-12.7,6.1c4.7-7.6-4.4-29-10.4-35.6a21.44,21.44,0,0,0-24.5-4.8c9.8-2.7,3.5-16.1-5.6-20.7s-20.2-.4-28.4,5.7c4-3.3-4.9-10.6-8.8-14.1s-9.6-4-14.7-3c-3.2.7-6.5,1.9-9.7,1-3.5-1-5.8-4.2-8-7.1-4.1-5.3-9.1-10.4-15.5-12.4s-14.4-.1-17.7,5.8c3.3-21.3-20.6-57.7-41.7-52.9a43.82,43.82,0,0,0-63.1-31.4c-20.6-20.2-66-14.7-79.5,10.8-4.4-15.6-8.6-39.8-24.3-36.1-8.4-6.6-27.3-20.1-37.9-21.8s-22.5,1.6-28.5,10.5a39.15,39.15,0,0,0-21.1-17.7c-4.9,2.3-21.5,6.9-26.8,7.3-6.2.5-10.2,8.8-6.8,14l-12.4,1.2c-5.4-3.9-28.9,6.9-34.5,10.6a17.09,17.09,0,0,0-7.2,17.4,10.2,10.2,0,0,0-6.7-6.7c-10.1-3-36.2-3.4-42.8,4.8a22,22,0,0,1,12.3,7.3c-9.7-2.9-21.1,3-24.4,12.6-6.4-2.3-10.8,14.8-6.8,20.3s12.1,6.1,18.7,4.5c-7.6,5.5-15.6,11.5-18.8,20.3s1,20.9,10.3,22.3c-6.3,7.5-12.7,15.4-15.3,24.9s.1,21.1,8.6,25.9c3.8,2.2,9.2,3.7,9.8,8,.3,2-.6,4-1.6,5.9-4.5,8.4-10.2,16.4-12.6,25.7s-.4,20.6,7.7,25.7c6.8,4.3,17.9,5.2,18.9,13.2,1,8.2-11.3,15.3-7.3,22.6,7.2,3.2,14.3,6.4,21.5,9.6a12.39,12.39,0,0,0,1.7,14.6C1146.4,481.3,1151,482.9,1155.5,480.2Z" fill="#ffda03"/><path d="M1694.3,456.9c-29.2,10-62.2-.4-86.8-18.9-3.9,15.6-19.5,27.5-35.6,27s-31-13.2-34-29c.4,13.4-14.8,23.6-27.9,20.9s-22.6-15.1-25.4-28.1c-7.1,8.5-20.5,11.1-30.3,5.8s-15-17.8-11.9-28.4c-15.1,10.1-37.2,8.2-50.2-4.5-3.1-3-5.9-6.7-10-8.1-3.9-1.4-8.2-.4-12.4-.3-18.7.3-34-21.6-27.2-39,14,22.9,54.2,21.2,66.2-2.9,19.1,18.4,50.9,21.9,73.5,8.1,12.8,25.9,53.3,32,73,10.9,14.2,10.1,29.5,20.5,46.9,21.6s36.8-11.7,36.2-29.1c11.2,12.7,31.3,16.5,46.4,8.8a40.39,40.39,0,0,0,8.1-5.6c3.6,8.2,6.1,17.8,3.7,22.9a5.94,5.94,0,0,0-.4.8,5.94,5.94,0,0,0,.4-.8,11.65,11.65,0,0,1,12.3-5.3c4.9,1.2,16.5-1.6,16.4,3.5,4.5-10.1,18.3-17.8,26.6-10.5h0C1748.5,406.9,1718.1,448.7,1694.3,456.9Z" fill="#ffac06"/><path d="M1717.4,888.3c3.8-4.2,1.3-11.2-2.7-15.3s-9.4-7-12.2-12a8.55,8.55,0,0,0,.8-16.8c12.8.6,23.9-19.4,17.9-30.6a15.55,15.55,0,0,0,8.1-28.9c9.3-3.5,10.1-16.7,6.2-25.8-.9-2.2-2.1-4.4-1.9-6.8s1.6-4.6,2.6-6.9c4.8-10.8-2.8-25-14.4-27.1,6.8-.5,12.1-8.2,10.1-14.8-1.3-4.4-5.1-7.5-8.8-10.3-11.5-8.8-24.5-18.6-26.5-32.9,5.7,4,13.8,2.5,19.4-1.6s9.2-10.3,12.6-16.4c10.8,4,24.2-3.4,26.6-14.6,5.7,8.6,18.6,11.3,27.3,5.7,1.9-1.2,3.7-2.8,5.9-3.2,3.3-.6,6.3,1.6,9.3,3.3a20.31,20.31,0,0,1-3.6,6.5,9.62,9.62,0,0,0-7.8,2.3c2.8,1.5,5.5.2,7.8-2.3,4.9.6,9.7,4.3,10,9.3.3,5.9-7.7,17.8-14.4,21.6a11.35,11.35,0,0,0-6.3.5c1.6,1.3,3.9.9,6.3-.5,5.9,1.1,11.2,6.4,11.2,12.5,0,8.3-14.6,26.1-22.4,23.3l23.5,21.7c1.2,1.1,2.5,2.4,2.5,4,0,3-4.1,4.1-7.1,3.8-10.8-1-23.6-14.8-29.9-23.6-1.5,5.9-3,11.7-4.5,17.6,7.3.7,7,14.3-.3,14.7,6.3,3.6,13.1,7.8,15.4,14.7s.9,18.7-6,16.3a32,32,0,0,1-11.2,34.5c6.8-1.7,11.5,8.8,7.4,14.5s-18,4.7-25,3.8c9.3,11.7,5.8,31.3-7,39.1,8.9,5.5,9.5,27,2.1,34.5a12.05,12.05,0,0,1,7.1,15.1c-.1.1-.1.3-.2.4C1739.4,904.8,1730.4,893.8,1717.4,888.3Z" fill="#fff3c0"/><path d="M1128,397.2c15.9,12.3,38.7,17.9,56.6,8.7-.6,13.5,13.2,23.3,26.4,26.1s27.2,1.5,39.9,6c6.2,2.2,12,5.9,18.5,6.8s14.4-2,16-8.4c8.3,14.7,27.8,21.9,43.7,16.1-3.9,7,5.5,13.9,13.1,16.5,25.5,8.8,50.9,17.6,76.4,26.4,15.8,5.5,34,10.8,48.5,2.4-18.4,19-50.8,22.2-72.6,7.2-13.7,13.8-36.8,7.4-54.9.2-13.2-5.3-27.5-11.5-34-24.2-12.2,11.7-36.7,2.7-38.3-14.2a24,24,0,0,1-22.8-.5c-1.4-2.5-3.5-4.5-6.1-4.9a20.61,20.61,0,0,0,6.1,4.9c2.1,3.9,2.3,9.1-.9,11.6-5.3,4.1-13.8,1.5-17.2-4.3a31.4,31.4,0,0,1-34.9,5.1c-5.1,9.5-17.4,12.1-28.1,12.5q-6.6.15-13.2-.3a20.51,20.51,0,0,1,5.4-10.9c-4.5,2.7-9.2,1.1-12.9-2.6a12.38,12.38,0,0,1-1.7-14.6c-7.2-3.2-14.3-6.4-21.5-9.6-4-7.3,8.3-14.4,7.3-22.6-1-8-12.1-8.8-18.9-13.2-8.1-5.1-10-16.5-7.7-25.7,1.5-6,4.4-11.4,7.5-16.7A97.82,97.82,0,0,0,1128,397.2Z" fill="#ffea94"/><path d="M1776,560.4c-6.1,7.1-19.2,5.9-24-2.1-12.5,7.8-31.7-1.6-33.3-16.2-25.6,5-52.1-8.9-68.8-28.9-8.4-10.1-15.1-24-9.7-35.9-1.7,12.8,12.1,25.1,24.7,21.9,1.6,11.2,15.3,18.7,25.5,14,2.2-1,4.7-2.5,6.9-1.6,1.5.6,2.4,2.1,3.2,3.4,9,13.3,27.4,7.3,39.7-3,11.2,12.7,35.7,8.1,41.5-7.9,9.9,3.1,20.9,1,29.7-4.6a39.94,39.94,0,0,1,13.4,10.7c1.4,1.8,2.8,3.9,2.7,6.2-.1,5.1-6.3,7.5-11.3,8.5-6.6,1.3-14.9,6.5-22,8.9a4.06,4.06,0,0,0-3.1.9,18.12,18.12,0,0,0,3.1-.9c3.9.4,7.6,5.4,6.5,9.7-1.3,5.5-6.6,9-11.5,11.8,11.6-3.3,24.6,8.5,22.4,20.3-3.5.1-7.2,5.7-10.7,5.8a17.59,17.59,0,0,1,3.2,4.5c-6.5-.1-13-1.1-18.6-4.4C1778.4,577.4,1773.4,568.4,1776,560.4Z" fill="#ffea94"/><path d="M1719.3,887.4c-7.1,1.2-14.9,2.3-21.2-1.4s-8.5-14.2-2.3-17.8c-4.6,3.3-13.3,1.6-14.7-3.9s.7-11.2,2.9-16.4c-13.9-5.8-20-25.2-11.8-37.9-.3,7,5.2,2.6,12,4.2a15.59,15.59,0,0,0,17.2-8.9c-6.7-3.1-6.9-13.5-1.8-18.8,4.1-4.2,10.1-5.8,16.1-5.9-4-3.5-3.9-17.1-2.3-24.5a19.13,19.13,0,0,1-26.9-23.2c-15.8.4-27.8-19.9-19.8-33.5a20.21,20.21,0,0,1-20.5-4.9,19.9,19.9,0,0,1-4.4-20.5c-2,7.7-17.4.3-22.3-5.9s-4.5-15-3.9-22.9c16.5,14.4,42.5,16.6,61.2,5.2,5.6,4.6,6.1,5.6,13.1,4.2s13.2-8,12.5-15.2a4.79,4.79,0,0,0-.9-2.6c-1.3-1.5-3.7-1.1-5.7-.7-14.2,3.5-29.3,4.9-43.5,1.4s-27.6-12.4-34.1-25.6c-6.8,4-14.6,7.4-22.4,6.4s-15.4-7.6-14.9-15.5c-4.9,7.1-22.8,6.8-30.2,2.4s-10.6-14.8-6.9-22.6a15.19,15.19,0,0,1-29-4.8c-4.1,6.4-12.9,11.4-20.1,8.8s-11.9-10.6-10.9-18.2c9.2-1.9,16.4-11.5,17.7-20.9-13.4,4.5-26.8,8.9-40.2,13.4a11.76,11.76,0,0,1-8.3-.3c0,3.7-5.3,7.3-9.3,10.7-5.3,4.4-12.5,5.6-19.4,6.6a16,16,0,0,1-13,27.8c7.9,13.9,3.6,33.4-9.3,42.7,10.4,25.3,2.2,56.2-17.4,74.9a12.32,12.32,0,0,0,.7,4.4c2.8,7.7,8,14.9,8.1,23.2a37.6,37.6,0,0,1-1.5,9.3,10.55,10.55,0,0,1-1.9.5c-.6.2-1.1.5-1.7.7a5.78,5.78,0,0,0-2,1.8,4.17,4.17,0,0,0-.9,1.6,5.46,5.46,0,0,0-.6,2.8c.1.6.2,1.3.3,1.9l.7,1.7a5.78,5.78,0,0,0,1.8,2,5.64,5.64,0,0,0,2.4,1.3c.3.1.7.2,1,.3a28.48,28.48,0,0,0,2.2,6.4,13.2,13.2,0,0,0,.5,7.4l-.3.8a5.54,5.54,0,0,0-.2,1.8c-.1,0-.1.1-.2.1a5.53,5.53,0,0,0-2.4,2.6c0,.1-.1.1-.1.2a4.07,4.07,0,0,0,0,4c0,.1.1.1.1.2a5.5,5.5,0,0,0,2.4,2.6,5.86,5.86,0,0,0,5.6,0,5.36,5.36,0,0,0,2.6-3.8,5.7,5.7,0,0,0,2.6-1.9l1-.3v.1a4.93,4.93,0,0,0,4,2,6.25,6.25,0,0,0,6.3-4.4,7.67,7.67,0,0,0-.1-4.5c-.7-2-2.2-3.7-4.4-3.8v-.4c.1-.3.1-.6.2-.9a3.51,3.51,0,0,1,.5-.8c2.3-3.8,1-9.5-3-11.6a11.72,11.72,0,0,0-2.4-.9c2.6-11.6,3.3-24.5,1.2-33.1,11.9-.5,19.6-16.7,12.4-26.2,6.2-6.1,6.1-19-1.8-22.4a31,31,0,0,0,4.5-22.4c5,4.9,14.3-1.9,16-8.7s-2.2-13.9-7.2-18.8c10.4-.5,17.8-13.6,13-22.8,6.6,11.4,22.5,10.5,35.5,8.4,2.1,7.1,5.8,14.3,12.3,17.9s16.1,2.3,19.4-4.4c-1.3,7.5,4.5,14.9,11.5,18s14.9,3,22.6,2.8c3.2-.1,6.6-.2,9.2-2,.1-.1.2-.1.3-.2a34.54,34.54,0,0,1,1.4-8c2.2,2.2,1,6.1-1.4,8a18.78,18.78,0,0,0,.6,5.8,3.48,3.48,0,0,0-3.3,4.2c1.9,7.2,1.9,16.6.7,24-1.4,8.5-3.3,16.5-2,25.1,1.1,7.2,3.7,14,6,20.9a58.74,58.74,0,0,1,3.1,19.9c-.1,8.1,11.5,11.4,15.4,4.2,8.7-16.1-2.3-32-6.1-47.8-1.9-7.9-1.7-16.1-2.8-24.1a71.07,71.07,0,0,0-3-12.9,19.78,19.78,0,0,0-1.2-3.1,26.76,26.76,0,0,0,26.3,5c-5.1,14.3,6.7,30.1,20.9,24.5-9.7,11-3.7,31.3,10.4,35.2-7.6-2.4-11.5,8.9-12.6,16.8s5.9,15.9,13.8,15.8c-7.7,5.1-10.8,16-7,24.3s14.1,13.1,22.9,10.6c-4.8,5.6-9.9,11.7-10.4,19-.4,5.8,3.8,12,9,13.3,1.4-.1,2.9-.1,4.3-.2a7.92,7.92,0,0,1-4.3.2c-1.8.1-3.5.1-5.3.2-7.2.3-12,7.6-16,13.5-3.1,4.7-1.4,12.3,2.9,14.8a5.63,5.63,0,0,1,4,.8,5.94,5.94,0,0,1-4-.8,10.1,10.1,0,0,0-7.2,5.4c-1.9,4.1-1.4,8.9-.8,13.4-11-1.8-22.7,5.5-25.9,16.1,6.8-6.2,19.9-1.4,21,7.7-7.1,4.4-14.9,14.9-16.2,23.2l15.9,1.2-13.5,25,7.4,1.2a34.56,34.56,0,0,1-4.9,30.2c-7.8.3-16.9,6.2-17.7,14a16.82,16.82,0,0,0,12.5,17.3c-2.6,6-5.1,12-7.7,18,6.1-4,13.4,5.4,11.5,12.5s-8.1,12.1-11.6,18.5a26.22,26.22,0,0,0,.6,25.6c3.2,5.4,4.4,7,10.5,5.6a174.24,174.24,0,0,0-2.2,73.3c2.4,12.8,6.8,14.2,7.4,27.2.2,3.5.3,7.1.5,10.6.7,14.7,1.3,29.3,2,44,.3,6.2,8,22.8,8.1,28.9,11.1.1,17.1-13.6,16.6-24.7s-4.5-22.6-.8-33.1a9.33,9.33,0,0,0,4.5-1.3c-4.8-19.2-9.5-38.8-8.5-58.5.1-2.1.3-4.2.2-6.3a54.73,54.73,0,0,0-1.6-9,284.87,284.87,0,0,1-7-71.3c-7.2-10.4-2.3-26.7,9.3-31.8-4.3-1.5-6.5-6.5-6.3-11s2.4-8.7,4.4-12.8c4.2-8.2,8.5-16.4,12.7-24.6-4.2-6.6-.6-18,6.6-21.1-8.5-6.5-5.6-22.5,4.6-25.7-5.7-1.5-7.2-18.4-5.1-23.9s7.6-9.1,13.2-11a15.47,15.47,0,0,1,1-18.7c1.4,10,6.7,20.2,16,24s22.3-2.1,22.9-12.1c7,10.9,22.4,6.9,28.3-4.6l-6.3-6.9C1715.9,896.6,1718.9,892.2,1719.3,887.4Z" fill="#ffea94"/><path d="M1170.1,307.4a3.33,3.33,0,0,0-3.3-3.3h-.1c-.4-.6-.8-1.3-1.2-1.9-.7-1.2-2.8-.4-2.3,1,.3.7.6,1.5.9,2.2-.1.1-.2.3-.3.4-1,1.7-.2,3.5,1.2,4.6.2.1.4.3.6.4,1.8,1.4,4.4-.5,4.4-2.6Z" fill="#ffea94"/><path d="M1239.6,378.4a9.08,9.08,0,0,0-.3-2.3V376l-.9-2.2c-.5-.6-.9-1.2-1.4-1.8s-1.2-.9-1.8-1.4c-.1,0-.1-.1-.2-.1a7.19,7.19,0,0,0-3.4-1.1,5.85,5.85,0,0,0-1.3-.2h-.9a9.51,9.51,0,0,0-6.5,2.7,7,7,0,0,0-1.9,2.9,7.19,7.19,0,0,0-.8,3.5,9.33,9.33,0,0,0,2.7,6.5,9.78,9.78,0,0,0,6.5,2.7h1a6.94,6.94,0,0,0,3.5-.8,7.1,7.1,0,0,0,2.2-1.3,4.1,4.1,0,0,0,1.6-1.6,5.1,5.1,0,0,0,1.2-2,7.26,7.26,0,0,0,.5-1.2A4.79,4.79,0,0,0,1239.6,378.4Z" fill="#ffea94"/><path d="M1311.1,393.8a9.09,9.09,0,0,0-8.6-2.3l-1.2.3c-.7.3-1.3.6-2,.9a6.36,6.36,0,0,0-2.4,2.2,4,4,0,0,0-1.1,1.9,6.15,6.15,0,0,0-.7,3.3c.1.7.2,1.5.3,2.2.3.7.6,1.3.9,2a8.68,8.68,0,0,0,5.1,3.9l1.2.3a8.85,8.85,0,0,0,8.6-2.3,9,9,0,0,0,2.6-6.2A9.52,9.52,0,0,0,1311.1,393.8Z" fill="#ffea94"/><path d="M1336.2,437.3c-4.4,0-4.4,6.8,0,6.8S1340.6,437.3,1336.2,437.3Z" fill="#ffea94"/><path d="M1427.8,463.9v-.2a2.47,2.47,0,0,0-.4-.9,3.67,3.67,0,0,0-1-1.7,3.76,3.76,0,0,0-1.4-1.4,6.59,6.59,0,0,0-2.6-1.4l-2.1-.3-2.1.3c-.6.3-1.2.5-1.9.8-.5.4-1,.8-1.6,1.2a5.15,5.15,0,0,0-1.6,2.5,3.51,3.51,0,0,0-.5,2,3.75,3.75,0,0,0,0,2.1,4.55,4.55,0,0,0,.5,2,5.15,5.15,0,0,0,1.6,2.5c.5.4,1,.8,1.6,1.2s1.2.5,1.9.8l2.1.3,2.1-.3a5.1,5.1,0,0,0,2.6-1.4,3.76,3.76,0,0,0,1.4-1.4,6.59,6.59,0,0,0,1.4-2.6v-.2a3.08,3.08,0,0,0,.1-1A5.74,5.74,0,0,0,1427.8,463.9Z" fill="#ffea94"/><path d="M1517.4,458.3c-.3-.3-.6-.7-.9-1a7,7,0,0,0-3-1.9,6.37,6.37,0,0,0-3.6-.8,7.32,7.32,0,0,0-3.6.8,6.72,6.72,0,0,0-3,1.9c-.5.6-1,1.3-1.5,1.9a9.12,9.12,0,0,0-1.3,4.8c.1.8.2,1.7.3,2.5a9.83,9.83,0,0,0,2.4,4.2c.3.3.7.6,1,.9,2,1.9,4.4,3.3,7.2,3.2a6.94,6.94,0,0,0,3.5-.8,8,8,0,0,0,3-1.9,13.3,13.3,0,0,0,1.4-1.9,9.4,9.4,0,0,0,1.3-4.6C1520.7,462.6,1519.2,460.3,1517.4,458.3Z" fill="#ffea94"/><path d="M1589.4,525.5a8.25,8.25,0,0,0-6.2,2.5,4.23,4.23,0,0,0,.5-.7,9.77,9.77,0,0,0,1.3-4.7l-.3-2.5a8.6,8.6,0,0,0-2.4-4.1c-.4-.5-.9-1-1.3-1.6a7.89,7.89,0,0,0-3.1-2,6.71,6.71,0,0,0-3.7-.8,8,8,0,0,0-3.7.8,6.93,6.93,0,0,0-3.1,2c-.5.6-1,1.3-1.5,1.9a9.12,9.12,0,0,0-1.3,4.8c.1.8.2,1.7.3,2.5a11,11,0,0,0,2.4,4.2c.5.4,1,.9,1.6,1.3a6.72,6.72,0,0,0,3,1.9,8.5,8.5,0,0,0,7.2,0,8,8,0,0,0,3-1.9c-3.3,5.2-1,14.1,7.2,14.1C1600.9,543.4,1600.9,525.5,1589.4,525.5Z" fill="#ffea94"/><path d="M1522.3,540.8a11.32,11.32,0,0,0-2.6-4.5c-.3-.3-.6-.5-.9-.8a7.21,7.21,0,0,0-3.3-2.1,8.6,8.6,0,0,0-3.9-.9,6.63,6.63,0,0,0-3.9.9,7.77,7.77,0,0,0-3.3,2.1c-.5.7-1.1,1.4-1.6,2a10.3,10.3,0,0,0-1.4,5.1,25.12,25.12,0,0,0,.4,2.7,10.25,10.25,0,0,0,2.6,4.5,6.47,6.47,0,0,0,.8.9,7.21,7.21,0,0,0,3.3,2.1,8.6,8.6,0,0,0,3.9.9,6.63,6.63,0,0,0,3.9-.9,7.21,7.21,0,0,0,3.3-2.1c.5-.7,1.1-1.4,1.6-2.1a10.38,10.38,0,0,0,1.4-5.2C1522.5,542.6,1522.4,541.7,1522.3,540.8Z" fill="#ffea94"/><path d="M1619,574.2c-12.5,0-12.5,19.4,0,19.4S1631.5,574.2,1619,574.2Z" fill="#ffea94"/><path d="M614.1,593.9a5.15,5.15,0,0,0-.9-2,4.06,4.06,0,0,0-1.4-1.5,6.89,6.89,0,0,0-.8-.3,3.08,3.08,0,0,0-1.9-.3,3,3,0,0,0-1.7.8,3.29,3.29,0,0,0-.7,1.3,2.82,2.82,0,0,0,.3,2.2c.1.2.2.5.3.7a3.62,3.62,0,0,0,1.5,1.5,4.57,4.57,0,0,0,2,.9,2.73,2.73,0,0,0,2.6-.7A2.8,2.8,0,0,0,614.1,593.9Z" fill="#ffea94"/><path d="M676,591.9c-.5-2.3-4.2-2.3-4.7,0a35.73,35.73,0,0,0-.4,4.7,2.69,2.69,0,0,0,2.7,2.7,2.75,2.75,0,0,0,2.7-2.7A24.23,24.23,0,0,0,676,591.9Z" fill="#ffea94"/><path d="M729.2,525a6.57,6.57,0,0,0-8.8-2.3c-.7.4-1.4.7-2.1,1.1a9,9,0,0,0-2.7,2.4,7.93,7.93,0,0,0-1.5,2.5,5.91,5.91,0,0,0,.3,3.7,5.56,5.56,0,0,0,5.2,3.5h1.1a10.71,10.71,0,0,0,3.9-1c.8-.4,1.5-.7,2.3-1.1a6.54,6.54,0,0,0,3-3.9A6.94,6.94,0,0,0,729.2,525Z" fill="#ffea94"/><path d="M637.1,561.5a6.52,6.52,0,0,0-4.6-3.6c-2.7-.6-5.6-.1-7.4,2.1a7,7,0,0,0-1.9,4.5,6.81,6.81,0,0,0,1.9,4.5,7.32,7.32,0,0,0,7.4,2.1,6.57,6.57,0,0,0,4.6-3.6A4.81,4.81,0,0,0,637.1,561.5Z" fill="#ffea94"/><path d="M743.8,553.3c-5,.2-9.3,4.1-9.2,9.2,0,3.3,0,6.7.1,10,0,4.8,4.2,9.4,9.2,9.2a9.37,9.37,0,0,0,9.2-9.2c0-3.3,0-6.7.1-10C753,557.7,748.7,553.1,743.8,553.3Z" fill="#ffea94"/><path d="M781.8,497c-12.1,0-12.2,18.9,0,18.9S794,497,781.8,497Z" fill="#ffea94"/><path d="M880.2,550.9a8.61,8.61,0,0,0-1.8-4.4,8.05,8.05,0,0,0-6.4-3.2,8.64,8.64,0,0,0-8,6.5,18.3,18.3,0,0,0-.3,4.7,8.67,8.67,0,0,0,2.4,5.9,8.3,8.3,0,0,0,14.2-5.9C880.3,553.3,880.3,552.1,880.2,550.9Z" fill="#ffea94"/><path d="M936.1,526.4c-12.9,0-13,20.1,0,20.1S949.1,526.4,936.1,526.4Z" fill="#ffea94"/><path d="M1004.6,511.1a35.39,35.39,0,0,0-3.4-1.6,20.74,20.74,0,0,0-3.3-1,6.09,6.09,0,0,0-7.4,7.4,20.74,20.74,0,0,0,1,3.3c.5,1.1,1.1,2.2,1.6,3.3a8.4,8.4,0,0,0,7.2,4.2,8.54,8.54,0,0,0,8.4-8.4A8,8,0,0,0,1004.6,511.1Z" fill="#ffea94"/><path d="M908.3,454l-.9-2.1a6.36,6.36,0,0,0-2.2-2.4,5.42,5.42,0,0,0-2.9-1.5,13.36,13.36,0,0,1-1.8-.7,10.15,10.15,0,0,0-4.9,0,8.6,8.6,0,0,0-4.1,2.4c-.5.6-1,1.3-1.5,1.9a9.47,9.47,0,0,0-1.3,4.7,10.52,10.52,0,0,0,2.7,6.6,9.48,9.48,0,0,0,4.1,2.4,10.15,10.15,0,0,0,4.9,0,13.36,13.36,0,0,0,1.8-.7l2.1-.9a6.36,6.36,0,0,0,2.4-2.2,4.53,4.53,0,0,0,1.1-1.9,6.15,6.15,0,0,0,.7-3.3A17.85,17.85,0,0,0,908.3,454Z" fill="#ffea94"/><path d="M1016.3,411.5c-8.7,0-8.7,13.5,0,13.5S1024.9,411.5,1016.3,411.5Z" fill="#ffea94"/><path d="M1095.8,387.8a8.43,8.43,0,0,0-11.7-3.1c-1.3.7-2.6,1.5-3.9,2.2a8.88,8.88,0,0,0-3.9,5,8.67,8.67,0,0,0,.8,6.5,8.79,8.79,0,0,0,5,3.9l2.2.3a8.77,8.77,0,0,0,4.2-1.1c1.4-.6,2.7-1.2,4.1-1.8,1.8-.8,3.4-3.3,4-5.1A8.49,8.49,0,0,0,1095.8,387.8Z" fill="#ffea94"/><path d="M1202.5,391.5a7.46,7.46,0,0,0-7.8,0,7.28,7.28,0,0,0-2.3,11.8,6.85,6.85,0,0,0,2.3,1.6,7.46,7.46,0,0,0,7.8,0,7.81,7.81,0,0,0,0-13.4Z" fill="#ffea94"/><path d="M1202.6,248c-12.8,0-12.8,19.8,0,19.8S1215.4,248,1202.6,248Z" fill="#ffea94"/><path d="M1340.9,525.2c-6.8,0-6.8,10.5,0,10.5S1347.7,525.2,1340.9,525.2Z" fill="#ffea94"/><path d="M1407,547.8c-8.7,0-8.7,13.5,0,13.5S1415.7,547.8,1407,547.8Z" fill="#ffea94"/><path d="M1469.8,539.7a5.69,5.69,0,0,0-3.2-2.5,10.55,10.55,0,0,0-1.9-.5,6,6,0,0,0-7.5,5.7,6.56,6.56,0,0,0,1.7,4.2,6,6,0,0,0,5.8,1.5,10.55,10.55,0,0,1,1.9-.5,5.43,5.43,0,0,0,2.8-1.9,5.55,5.55,0,0,0,1.2-3.3A7,7,0,0,0,1469.8,539.7Z" fill="#ffea94"/><path d="M1663.5,581.1c-12.1,0-12.2,18.9,0,18.9S1675.7,581.1,1663.5,581.1Z" fill="#ffea94"/><path d="M1711.6,463.1c-4.1,0-4.1,6.4,0,6.4S1715.7,463.1,1711.6,463.1Z" fill="#ffea94"/><path d="M1565.2,345.6c-1.6-2-3.4-2.6-5.9-3-2.7-.3-5.3-.7-8-1-3.2-.4-6,2.8-6.4,5.7-.5,3.4,1.6,6,4.7,7.2,2.6,1,5.2,2,7.8,2.9,4.3,1.6,8.8-2.2,9.3-6.2A7.28,7.28,0,0,0,1565.2,345.6Z" fill="#ffea94"/><path d="M1456,329.2a9.35,9.35,0,0,0-6.9-2.8l-6,.3a9.35,9.35,0,0,0,.1,18.7l6,.3a10.4,10.4,0,0,0,6.9-2.8,9.35,9.35,0,0,0,2.8-6.9A10.46,10.46,0,0,0,1456,329.2Z" fill="#ffea94"/><path d="M562.8,596.3a13.73,13.73,0,0,0-.5-2.8l-.6-1.5a7.15,7.15,0,0,0-2.9-3.3l-3.6-2.7a7.06,7.06,0,0,0-5.5-.7,7.16,7.16,0,0,0-4.3,3.3,7.28,7.28,0,0,0,2.6,9.8c1.2.8,2.4,1.6,3.6,2.3a9.74,9.74,0,0,0,7.3.7C561,600.9,563.1,598.5,562.8,596.3Z" fill="#ffea94"/><path d="M622.5,712.6c-4-3.1-9-1.7-11.7,2.2-1.1,1.6-2.3,3.2-3.4,4.8a10.59,10.59,0,0,0-1.5,8.8,6,6,0,0,0,5.8,4.4,10.4,10.4,0,0,0,8-3.8l3.7-4.6a9,9,0,0,0,2.3-5.6A8.12,8.12,0,0,0,622.5,712.6Z" fill="#ffea94"/><path d="M599.2,849.5l-.3-1.2a10,10,0,0,0-1.2-4.7c-.5-.8-1.1-1.6-1.6-2.4-2.2-3.3-6.9-5.1-10.5-2.8-3.3,2.1-5.1,6.9-2.8,10.5,1.3,1.9,2.5,4.2,4.5,5.4a32.07,32.07,0,0,1,3.1,1.9c1.9,1.4,4.9.9,6.6-.5A5.93,5.93,0,0,0,599.2,849.5Z" fill="#ffea94"/><path d="M641.6,954.6c-8.6,0-8.6,13.3,0,13.3S650.1,954.6,641.6,954.6Z" fill="#ffea94"/><path d="M669.4,397.1a8.51,8.51,0,0,0-5.4-2.3c-1.9.1-4.2.7-5.4,2.3l-2.1,2.6a22,22,0,0,0-1.4,1.8,10.2,10.2,0,0,0-.9,2.1c-.6,2.3-.1,5.3,1.7,6.9a7.38,7.38,0,0,0,6.8,1.8,9.8,9.8,0,0,0,4-2.2c.9-.7,1.8-1.5,2.7-2.2a8,8,0,0,0,2.3-5.4A8.29,8.29,0,0,0,669.4,397.1Z" fill="#ffea94"/><path d="M786.8,416.3a8.45,8.45,0,0,0-3.3-4.4c-.1-.1-.2-.1-.4-.2l-.1-.1-1.5-.6a4.27,4.27,0,0,0-2.5-.1,2.93,2.93,0,0,0-1.6.4,2,2,0,0,0-.8.4l-.1.1a7.49,7.49,0,0,0-1.8,1.3,14.31,14.31,0,0,0-1.1,1.5c-.2.6-.5,1.2-.7,1.7a5.71,5.71,0,0,0-.1,2.9,3.45,3.45,0,0,0,.5,1.8,4.17,4.17,0,0,0,.9,1.6,6.06,6.06,0,0,0,2,1.9c.6.2,1.2.5,1.7.7l1.9.3a6.71,6.71,0,0,0,2.8-.6,4.17,4.17,0,0,0,1.6-.9,4,4,0,0,0,1.3-1.3,5.46,5.46,0,0,0,1.3-2.5c.1-.6.2-1.3.3-1.9C787,417.6,786.9,416.9,786.8,416.3Z" fill="#ffea94"/><path d="M867.8,304.7a7.86,7.86,0,0,0-3.4-4,11.11,11.11,0,0,0-1.6-.7,8.53,8.53,0,0,0-3.1-.6c-.1,0-.2,0-.2-.1a5.43,5.43,0,0,0-3.1.2,4.52,4.52,0,0,0-2.3,2c-.1.3-.3.6-.4.9a8.06,8.06,0,0,0-1.4,3.3,9.35,9.35,0,0,0,0,4.4,10.46,10.46,0,0,0,2.1,3.7,8.36,8.36,0,0,0,14.1-4.8A9.08,9.08,0,0,0,867.8,304.7Z" fill="#ffea94"/><path d="M888.6,275.3a4.08,4.08,0,0,0-1.3-2.7,8.17,8.17,0,0,0-2-1.2,4.57,4.57,0,0,0-3.6.5c-.8.5-1.6.9-2.4,1.4a5.09,5.09,0,0,0-2.6,4.6,5.39,5.39,0,0,0,10,2.8c.5-.8.9-1.6,1.4-2.4A5,5,0,0,0,888.6,275.3Z" fill="#ffea94"/><path d="M1001.5,278.7a8.14,8.14,0,0,0-5.3-2.2,7.67,7.67,0,0,0-5.3,2.2A7.79,7.79,0,0,0,989,286a9.87,9.87,0,0,0,1,2.7,8.51,8.51,0,0,0,4.4,3.5,5.82,5.82,0,0,0,1.9.3,7.28,7.28,0,0,0,6.2-3.7,8.8,8.8,0,0,0,1-2.7C1004,283.4,1003.5,280.5,1001.5,278.7Z" fill="#ffea94"/><path d="M891.6,769.5a4.17,4.17,0,0,0-4-3,4.54,4.54,0,0,0-4,3,5,5,0,0,0,.6,4.3c.4.6,1,1.2,1.5,1.8a2.78,2.78,0,0,0,3.8,0c.5-.6,1.1-1.2,1.5-1.8A5.39,5.39,0,0,0,891.6,769.5Z" fill="#ffea94"/><path d="M919.2,805.6a10.38,10.38,0,0,0-2.5-4.3c-.7-.5-1.3-1-2-1.5a4.67,4.67,0,0,0-1-.5l.1-.1.6-.3a4.6,4.6,0,0,0,2.2-2.9v-.2a4.88,4.88,0,0,0,0-2.4,16.35,16.35,0,0,0-.2-2.2,7.24,7.24,0,0,0-10.5-4.3,7.5,7.5,0,0,0-3.2,4,2.51,2.51,0,0,0-1.9.1,2.89,2.89,0,0,0-1.7,3.5c.1.4.3.7.4,1.1.1.2.1.4.2.6s.1.3.1.4v.6a4.22,4.22,0,0,0,.3,1.2,4.89,4.89,0,0,0,1.4,1.8,4.17,4.17,0,0,0,1.6.9l-.1.1a7.89,7.89,0,0,0-2,3.1,6.71,6.71,0,0,0-.8,3.7c.1.9.2,1.7.3,2.6a10.38,10.38,0,0,0,2.5,4.3c.7.5,1.3,1,2,1.5a9.22,9.22,0,0,0,4.9,1.3,6.71,6.71,0,0,0,3.7-.8,8.75,8.75,0,0,0,5.1-5.1,6.71,6.71,0,0,0,.8-3.7C919.4,807.3,919.3,806.5,919.2,805.6Z" fill="#ffea94"/><path d="M924.5,821.5a10.59,10.59,0,0,1-1.2-1,13.44,13.44,0,0,0-1.4-1.1,4.62,4.62,0,0,0-3-.7,3.08,3.08,0,0,0-2.3.2,3.91,3.91,0,0,0-1.7,1.4,3.84,3.84,0,0,0-1.1-1.1,4.55,4.55,0,0,0-3.6-.6c-.4.1-.8.3-1.2.4a3.42,3.42,0,0,0-2.5,3.3,3.32,3.32,0,0,0,1.4,2.7,2.51,2.51,0,0,0-.7.4,7.29,7.29,0,0,0-4.7-2.5v-.7a7.44,7.44,0,0,0-5.5-7c-.2-.1-.4-.1-.6-.2a6.92,6.92,0,0,0-3.5,0,6.66,6.66,0,0,0-4.6,4.6,6.92,6.92,0,0,0,0,3.5c.1.2.1.4.2.6a7.87,7.87,0,0,0,2,3.4,6.42,6.42,0,0,0,1.3,1,6.6,6.6,0,0,0-.1,1.4,10.86,10.86,0,0,0,.4,2.5h0a6.47,6.47,0,0,0,.4,1.3,8.6,8.6,0,0,0,3.1,3.7,12.27,12.27,0,0,0,2.6,1.2,8.59,8.59,0,0,0,5.5-.4c.1,0,.1,0,.1-.1,1.3,3.1,4.6,5.6,8,5.4a9.35,9.35,0,0,0,6.5-3.1,6.53,6.53,0,0,0,1.6-1.3,5.94,5.94,0,0,0,1.8-2.9,6.81,6.81,0,0,0,.8-3.4.9.9,0,0,0-.1-.5,6.68,6.68,0,0,0,3.6-4.1A6.12,6.12,0,0,0,924.5,821.5Z" fill="#ffea94"/><path d="M919.2,869.2a8.69,8.69,0,0,0-6.1-6.2c-3-.8-5.2,1.9-4.7,4.7-.1-.6,0,0,0,.3a10.1,10.1,0,0,0,.3,1.7,4.33,4.33,0,0,0,.1.5,11,11,0,0,0,.2,1.8l.3.9c.1.4.2,1,.1.3a28.86,28.86,0,0,0,.4,2.9,4.23,4.23,0,0,0,2.9,2.9,4.28,4.28,0,0,0,4-1.1C918.9,876.1,920,872,919.2,869.2Z" fill="#ffea94"/><path d="M919.4,889.3a7.26,7.26,0,0,0-7,0,17,17,0,0,0-1.4,1,5.3,5.3,0,0,0-2.1,2.1,5.66,5.66,0,0,0,0,5.8,5.3,5.3,0,0,0,2.1,2.1,17,17,0,0,1,1.4,1,7.26,7.26,0,0,0,7,0,7,7,0,0,0,0-12Z" fill="#ffea94"/><path d="M921.7,852.6a8.19,8.19,0,0,0-7.8-6,11.58,11.58,0,0,0-3.2.3c-.9.3-1.8.8-2.7,1.2a7.52,7.52,0,0,0-2.8,2.8,8.78,8.78,0,0,0-1.1,3.9,7.65,7.65,0,0,0,1.1,3.9,7.52,7.52,0,0,0,2.8,2.8c.9.4,1.8.9,2.7,1.2a11.58,11.58,0,0,0,3.2.3,6.43,6.43,0,0,0,3.1-.7,7.58,7.58,0,0,0,4.3-4.3,6.7,6.7,0,0,0,.7-3.1C921.9,854.1,921.8,853.4,921.7,852.6Z" fill="#ffea94"/><path d="M887.2,747.3c-.3-2-2.1-3.8-3.7-4.8a8.15,8.15,0,0,0-11.5,3.9,7.8,7.8,0,0,0-.3,5.2,4.48,4.48,0,0,0,.1,1.1,7.49,7.49,0,0,0,.4,1.6c0-.1-.1-.2-.1-.3a.9.9,0,0,1,.1.5l.7,1.6a5.19,5.19,0,0,0,1.7,1.9,7.17,7.17,0,0,0,4,1.4c3.1.4,6-1.6,7.5-4.1a8.62,8.62,0,0,0,1.1-2.8A13,13,0,0,0,887.2,747.3Z" fill="#ffea94"/><path d="M1394.2,804.9c-4.2,0-4.2,6.5,0,6.5S1398.4,804.9,1394.2,804.9Z" fill="#ffea94"/><path d="M1414.2,832.4a8.18,8.18,0,0,0-2.1-3.6,10.63,10.63,0,0,0-.9-1.1,10,10,0,0,1-1.1-1,8.43,8.43,0,0,0-5.8-2.4h-.5a4.18,4.18,0,0,0-1-.4h0c-.2-.1-.5-.3-.7-.4a3.25,3.25,0,0,0-3.3,0,3.19,3.19,0,0,0-1.6,2.8v.3a3.87,3.87,0,0,0-.3,2.6,7.25,7.25,0,0,0-.7,3.3c.1.7.2,1.4.3,2.2a8.18,8.18,0,0,0,2.1,3.6,10,10,0,0,0,1,1.1,4.81,4.81,0,0,0,1.1.9,5.63,5.63,0,0,0,2.6,1.7,6.7,6.7,0,0,0,3.1.7,6.43,6.43,0,0,0,3.1-.7,5.63,5.63,0,0,0,2.6-1.7,8.2,8.2,0,0,0,2.4-5.7C1414.4,833.8,1414.3,833.1,1414.2,832.4Z" fill="#ffea94"/><path d="M1416.3,848.6a8.19,8.19,0,0,0-7.8-6,10.84,10.84,0,0,0-5.8,1.4,7.71,7.71,0,0,0,0,13.4,10.63,10.63,0,0,0,5.8,1.4,6.43,6.43,0,0,0,3.1-.7,7.58,7.58,0,0,0,4.3-4.3,6.7,6.7,0,0,0,.7-3.1A15.17,15.17,0,0,1,1416.3,848.6Z" fill="#ffea94"/><path d="M1414.3,801.6l-.2-.2a8.09,8.09,0,0,0-11.2,0l-.2.2a8.16,8.16,0,0,0-2,8.1v.5c0,4.1,3.6,8,7.8,7.8a7.94,7.94,0,0,0,7.8-7.8v-.6A8.21,8.21,0,0,0,1414.3,801.6Z" fill="#ffea94"/><path d="M1384.1,743.4c-7.7,0-7.7,11.9,0,11.9S1391.8,743.4,1384.1,743.4Z" fill="#ffea94"/><path d="M1345.2,620.5c-1.1-3.8-3.7-6.9-7.5-7.7a8.86,8.86,0,0,0,1.5-2.9c1.8-5.7-.1-9.9-3.3-13.5a19.73,19.73,0,0,0-.7-2.6c-2-6.7-5.2-12.9-8.3-19.1l.3-.3c3.4-3.4-.1-9.1-4.3-8.2a55.61,55.61,0,0,1-3.8-12.8c-1-6.7-12.4-5.2-11.8,1.6l.3,2.4h-.5a3.27,3.27,0,0,0-2.6,1.1c-.1.1-.2.3-.3.4-.6-4-2-6.7-4.5-10.2s-7.7-3.1-9.1,1.2c-1.2,3.6-1.7,6.7-.9,10-.4.2-.7.4-1.1.6-2.4,1.6-4.3,4-6.4,6-2.4,2.4-2.6,6.8,0,9.1s6.7,2.6,9.1,0c1.2-1.3,2.5-2.5,3.7-3.8.5.9,1,1.8,1.6,2.7a140.74,140.74,0,0,0,14.2,19.9l-.6.1a5.33,5.33,0,0,0-2.5.2,7.43,7.43,0,0,0-3.8,2.7c-.2.1-.3.3-.5.4-6.4,6.7-19,21.3-10,30.1a17.81,17.81,0,0,0,13.8,4.9,4.63,4.63,0,0,0-1.1,3.2,5.33,5.33,0,0,0,1.5,3.6l2,2a5.33,5.33,0,0,0,3.6,1.5,5.85,5.85,0,0,0,1.3-.2c-.2,1.1-.3,2.1-.4,3.2a14.42,14.42,0,0,0-12.2,6.2c-2.7,4.2-2.5,10.3,2.2,13a8.34,8.34,0,0,0,8.1-.1l.9-.6c.1,9.8.9,19.6,1.7,29.4,1.5,17.6,2.9,35.2,8.2,52.1,1,3.1,6.4,3.8,7,0,2.7-17.7,1.5-35.2.4-53-.5-7.6-1.1-15.4-1.4-23.1l.3-.6a17.75,17.75,0,0,0-.1-13.4c.1-2.5.4-5,.7-7.4,2.4.3,4.7.1,6.5-1.8a7.43,7.43,0,0,0,2-4.9,9.85,9.85,0,0,0-.2-1.7c.2-.1.3-.3.5-.4C1343.4,635.5,1347.1,627,1345.2,620.5Zm-39.9-54a3.92,3.92,0,0,0,1.8.4,4.81,4.81,0,0,0,2.4-.7c1.1,3.8,2.5,7.5,4,11.3a32.06,32.06,0,0,0-1.7,6.6,55.71,55.71,0,0,1-5.6-13.6C1305.9,569.1,1305.6,567.8,1305.3,566.5Zm11,66.9V630c.3-.2.6-.3.9-.5C1316.9,630.7,1316.6,632.1,1316.3,633.4Z" fill="#ffea94"/><path d="M1560.4,811.1a7.37,7.37,0,0,0-7.2,7.2v6.1c0,3.8,3.3,7.4,7.2,7.2a7.37,7.37,0,0,0,7.2-7.2v-6.1C1567.6,814.5,1564.3,810.9,1560.4,811.1Z" fill="#ffea94"/></g><rect width="2272" height="1872.7" fill="none"/></g></g></svg>